solid model
facet normal 0.0 0.0 -1.0
outer loop
vertex -3.36759604540093 3.36759604540093 0.0
vertex -3.06681449846779 0.821750468200504 0.0
vertex -3.175 3.88825358729285e-16 0.0
endloop
endfacet
facet normal 0.0 0.0 -1.0
outer loop
vertex -3.06681449846779 0.821750468200504 0.0
vertex -3.36759604540093 3.36759604540093 0.0
vertex -2.38125 4.12444598552339 0.0
endloop
endfacet
facet normal 0.0 0.0 -1.0
outer loop
vertex -3.06681449846779 0.821750468200504 0.0
vertex -2.38125 4.12444598552339 0.0
vertex -2.74963065701559 1.5875 0.0
endloop
endfacet
facet normal 0.0 0.0 -1.0
outer loop
vertex -2.74963065701559 1.5875 0.0
vertex -2.38125 4.12444598552339 0.0
vertex -2.24506403026729 2.24506403026729 0.0
endloop
endfacet
facet normal 0.0 0.0 -1.0
outer loop
vertex -2.24506403026729 2.24506403026729 0.0
vertex -2.38125 4.12444598552339 0.0
vertex -1.23262570230075 4.60022174770169 0.0
endloop
endfacet
facet normal 0.0 0.0 -1.0
outer loop
vertex -2.24506403026729 2.24506403026729 0.0
vertex -1.23262570230075 4.60022174770169 0.0
vertex -1.5875 2.74963065701559 0.0
endloop
endfacet
facet normal 0.0 0.0 -1.0
outer loop
vertex -1.5875 2.74963065701559 0.0
vertex -1.23262570230075 4.60022174770169 0.0
vertex -0.821750468200503 3.06681449846779 0.0
endloop
endfacet
facet normal 0.0 0.0 -1.0
outer loop
vertex -0.821750468200503 3.06681449846779 0.0
vertex -1.23262570230075 4.60022174770169 0.0
vertex 0.0 4.7625 0.0
endloop
endfacet
facet normal 0.0 0.0 -1.0
outer loop
vertex -0.821750468200503 3.06681449846779 0.0
vertex 0.0 4.7625 0.0
vertex 1.94412679364642e-16 3.175 0.0
endloop
endfacet
facet normal 0.0 0.0 -1.0
outer loop
vertex 1.94412679364642e-16 3.175 0.0
vertex 0.0 4.7625 0.0
vertex 1.23262570230076 4.60022174770169 0.0
endloop
endfacet
facet normal 0.0 0.0 -1.0
outer loop
vertex 1.94412679364642e-16 3.175 0.0
vertex 1.23262570230076 4.60022174770169 0.0
vertex 0.821750468200504 3.06681449846779 0.0
endloop
endfacet
facet normal 0.0 0.0 -1.0
outer loop
vertex 0.821750468200504 3.06681449846779 0.0
vertex 1.23262570230076 4.60022174770169 0.0
vertex 1.5875 2.74963065701559 0.0
endloop
endfacet
facet normal 0.0 0.0 -1.0
outer loop
vertex 1.5875 2.74963065701559 0.0
vertex 1.23262570230076 4.60022174770169 0.0
vertex 2.38125 4.12444598552339 0.0
endloop
endfacet
facet normal 0.0 0.0 -1.0
outer loop
vertex 1.5875 2.74963065701559 0.0
vertex 2.38125 4.12444598552339 0.0
vertex 2.24506403026729 2.24506403026729 0.0
endloop
endfacet
facet normal 0.0 0.0 -1.0
outer loop
vertex 2.24506403026729 2.24506403026729 0.0
vertex 2.38125 4.12444598552339 0.0
vertex 2.74963065701559 1.5875 0.0
endloop
endfacet
facet normal 0.0 0.0 -1.0
outer loop
vertex 2.74963065701559 1.5875 0.0
vertex 2.38125 4.12444598552339 0.0
vertex 3.36759604540093 3.36759604540093 0.0
endloop
endfacet
facet normal 0.0 0.0 -1.0
outer loop
vertex 2.74963065701559 1.5875 0.0
vertex 3.36759604540093 3.36759604540093 0.0
vertex 3.06681449846779 0.821750468200503 0.0
endloop
endfacet
facet normal 0.0 0.0 -1.0
outer loop
vertex 3.06681449846779 0.821750468200503 0.0
vertex 3.36759604540093 3.36759604540093 0.0
vertex 3.175 0.0 0.0
endloop
endfacet
facet normal 0.0 0.0 -1.0
outer loop
vertex 3.175 0.0 0.0
vertex 3.36759604540093 3.36759604540093 0.0
vertex 3.36759604540093 -3.36759604540093 0.0
endloop
endfacet
facet normal 0.0 0.0 -1.0
outer loop
vertex 3.36759604540093 -3.36759604540093 0.0
vertex 3.36759604540093 3.36759604540093 0.0
vertex 4.12444598552339 -2.38125 0.0
endloop
endfacet
facet normal 0.0 0.0 -1.0
outer loop
vertex 4.12444598552339 -2.38125 0.0
vertex 3.36759604540093 3.36759604540093 0.0
vertex 4.12444598552339 2.38125 0.0
endloop
endfacet
facet normal 0.0 0.0 -1.0
outer loop
vertex 4.12444598552339 -2.38125 0.0
vertex 4.12444598552339 2.38125 0.0
vertex 4.60022174770169 -1.23262570230076 0.0
endloop
endfacet
facet normal 0.0 0.0 -1.0
outer loop
vertex 4.60022174770169 -1.23262570230076 0.0
vertex 4.12444598552339 2.38125 0.0
vertex 4.60022174770169 1.23262570230075 0.0
endloop
endfacet
facet normal 0.0 0.0 -1.0
outer loop
vertex 4.60022174770169 -1.23262570230076 0.0
vertex 4.60022174770169 1.23262570230075 0.0
vertex 4.7625 -8.7485705714089e-16 0.0
endloop
endfacet
facet normal 0.0 0.0 -1.0
outer loop
vertex -4.60022174770169 1.23262570230076 0.0
vertex -4.60022174770169 -1.23262570230075 0.0
vertex -4.7625 2.91619019046963e-16 0.0
endloop
endfacet
facet normal 0.0 0.0 -1.0
outer loop
vertex -4.60022174770169 -1.23262570230075 0.0
vertex -4.60022174770169 1.23262570230076 0.0
vertex -4.12444598552339 -2.38125 0.0
endloop
endfacet
facet normal 0.0 0.0 -1.0
outer loop
vertex -4.12444598552339 -2.38125 0.0
vertex -4.60022174770169 1.23262570230076 0.0
vertex -4.12444598552339 2.38125 0.0
endloop
endfacet
facet normal 0.0 0.0 -1.0
outer loop
vertex -4.12444598552339 -2.38125 0.0
vertex -4.12444598552339 2.38125 0.0
vertex -3.36759604540093 -3.36759604540093 0.0
endloop
endfacet
facet normal 0.0 0.0 -1.0
outer loop
vertex -3.36759604540093 -3.36759604540093 0.0
vertex -4.12444598552339 2.38125 0.0
vertex -3.36759604540093 3.36759604540093 0.0
endloop
endfacet
facet normal 0.0 0.0 -1.0
outer loop
vertex -3.36759604540093 -3.36759604540093 0.0
vertex -3.36759604540093 3.36759604540093 0.0
vertex -3.175 3.88825358729285e-16 0.0
endloop
endfacet
facet normal 0.0 0.0 -1.0
outer loop
vertex -3.36759604540093 -3.36759604540093 0.0
vertex -3.175 3.88825358729285e-16 0.0
vertex -3.06681449846779 -0.821750468200502 0.0
endloop
endfacet
facet normal 0.0 0.0 -1.0
outer loop
vertex -3.36759604540093 -3.36759604540093 0.0
vertex -3.06681449846779 -0.821750468200502 0.0
vertex -2.38125 -4.12444598552339 0.0
endloop
endfacet
facet normal 0.0 0.0 -1.0
outer loop
vertex -2.38125 -4.12444598552339 0.0
vertex -3.06681449846779 -0.821750468200502 0.0
vertex -2.74963065701559 -1.5875 0.0
endloop
endfacet
facet normal 0.0 0.0 -1.0
outer loop
vertex -2.38125 -4.12444598552339 0.0
vertex -2.74963065701559 -1.5875 0.0
vertex -2.24506403026729 -2.24506403026729 0.0
endloop
endfacet
facet normal 0.0 0.0 -1.0
outer loop
vertex -2.38125 -4.12444598552339 0.0
vertex -2.24506403026729 -2.24506403026729 0.0
vertex -1.23262570230076 -4.60022174770169 0.0
endloop
endfacet
facet normal 0.0 0.0 -1.0
outer loop
vertex -1.23262570230076 -4.60022174770169 0.0
vertex -2.24506403026729 -2.24506403026729 0.0
vertex -1.5875 -2.74963065701559 0.0
endloop
endfacet
facet normal 0.0 0.0 -1.0
outer loop
vertex -1.23262570230076 -4.60022174770169 0.0
vertex -1.5875 -2.74963065701559 0.0
vertex -0.821750468200506 -3.06681449846779 0.0
endloop
endfacet
facet normal 0.0 0.0 -1.0
outer loop
vertex -1.23262570230076 -4.60022174770169 0.0
vertex -0.821750468200506 -3.06681449846779 0.0
vertex -5.83238038093927e-16 -4.7625 0.0
endloop
endfacet
facet normal 0.0 0.0 -1.0
outer loop
vertex -5.83238038093927e-16 -4.7625 0.0
vertex -0.821750468200506 -3.06681449846779 0.0
vertex -5.83238038093927e-16 -3.175 0.0
endloop
endfacet
facet normal 0.0 0.0 -1.0
outer loop
vertex -5.83238038093927e-16 -4.7625 0.0
vertex -5.83238038093927e-16 -3.175 0.0
vertex 0.821750468200502 -3.06681449846779 0.0
endloop
endfacet
facet normal 0.0 0.0 -1.0
outer loop
vertex -5.83238038093927e-16 -4.7625 0.0
vertex 0.821750468200502 -3.06681449846779 0.0
vertex 1.23262570230075 -4.60022174770169 0.0
endloop
endfacet
facet normal 0.0 0.0 -1.0
outer loop
vertex 1.23262570230075 -4.60022174770169 0.0
vertex 0.821750468200502 -3.06681449846779 0.0
vertex 1.5875 -2.74963065701559 0.0
endloop
endfacet
facet normal 0.0 0.0 -1.0
outer loop
vertex 1.23262570230075 -4.60022174770169 0.0
vertex 1.5875 -2.74963065701559 0.0
vertex 2.38125 -4.12444598552339 0.0
endloop
endfacet
facet normal 0.0 0.0 -1.0
outer loop
vertex 2.38125 -4.12444598552339 0.0
vertex 1.5875 -2.74963065701559 0.0
vertex 2.24506403026729 -2.24506403026729 0.0
endloop
endfacet
facet normal 0.0 0.0 -1.0
outer loop
vertex 2.38125 -4.12444598552339 0.0
vertex 2.24506403026729 -2.24506403026729 0.0
vertex 2.74963065701559 -1.5875 0.0
endloop
endfacet
facet normal 0.0 0.0 -1.0
outer loop
vertex 2.38125 -4.12444598552339 0.0
vertex 2.74963065701559 -1.5875 0.0
vertex 3.36759604540093 -3.36759604540093 0.0
endloop
endfacet
facet normal 0.0 0.0 -1.0
outer loop
vertex 3.36759604540093 -3.36759604540093 0.0
vertex 2.74963065701559 -1.5875 0.0
vertex 3.06681449846779 -0.821750468200506 0.0
endloop
endfacet
facet normal 0.0 0.0 -1.0
outer loop
vertex 3.36759604540093 -3.36759604540093 0.0
vertex 3.06681449846779 -0.821750468200506 0.0
vertex 3.175 0.0 0.0
endloop
endfacet
facet normal 0.0 0.0 1.0
outer loop
vertex -4.60022174770169 -1.23262570230075 25.4
vertex -4.60022174770169 1.23262570230076 25.4
vertex -4.7625 2.91619019046963e-16 25.4
endloop
endfacet
facet normal 0.0 0.0 1.0
outer loop
vertex -4.60022174770169 1.23262570230076 25.4
vertex -4.60022174770169 -1.23262570230075 25.4
vertex -4.12444598552339 -2.38125 25.4
endloop
endfacet
facet normal 0.0 0.0 1.0
outer loop
vertex -4.60022174770169 1.23262570230076 25.4
vertex -4.12444598552339 -2.38125 25.4
vertex -4.12444598552339 2.38125 25.4
endloop
endfacet
facet normal 0.0 0.0 1.0
outer loop
vertex -4.12444598552339 2.38125 25.4
vertex -4.12444598552339 -2.38125 25.4
vertex -3.36759604540093 -3.36759604540093 25.4
endloop
endfacet
facet normal 0.0 0.0 1.0
outer loop
vertex -4.12444598552339 2.38125 25.4
vertex -3.36759604540093 -3.36759604540093 25.4
vertex -3.36759604540093 3.36759604540093 25.4
endloop
endfacet
facet normal 0.0 0.0 1.0
outer loop
vertex -3.36759604540093 3.36759604540093 25.4
vertex -3.36759604540093 -3.36759604540093 25.4
vertex -3.175 3.88825358729285e-16 25.4
endloop
endfacet
facet normal 0.0 0.0 1.0
outer loop
vertex -3.175 3.88825358729285e-16 25.4
vertex -3.36759604540093 -3.36759604540093 25.4
vertex -3.06681449846779 -0.821750468200502 25.4
endloop
endfacet
facet normal 0.0 0.0 1.0
outer loop
vertex -3.06681449846779 -0.821750468200502 25.4
vertex -3.36759604540093 -3.36759604540093 25.4
vertex -2.38125 -4.12444598552339 25.4
endloop
endfacet
facet normal 0.0 0.0 1.0
outer loop
vertex -3.06681449846779 -0.821750468200502 25.4
vertex -2.38125 -4.12444598552339 25.4
vertex -2.74963065701559 -1.5875 25.4
endloop
endfacet
facet normal 0.0 0.0 1.0
outer loop
vertex -2.74963065701559 -1.5875 25.4
vertex -2.38125 -4.12444598552339 25.4
vertex -2.24506403026729 -2.24506403026729 25.4
endloop
endfacet
facet normal 0.0 0.0 1.0
outer loop
vertex -2.24506403026729 -2.24506403026729 25.4
vertex -2.38125 -4.12444598552339 25.4
vertex -1.23262570230076 -4.60022174770169 25.4
endloop
endfacet
facet normal 0.0 0.0 1.0
outer loop
vertex -2.24506403026729 -2.24506403026729 25.4
vertex -1.23262570230076 -4.60022174770169 25.4
vertex -1.5875 -2.74963065701559 25.4
endloop
endfacet
facet normal 0.0 0.0 1.0
outer loop
vertex -1.5875 -2.74963065701559 25.4
vertex -1.23262570230076 -4.60022174770169 25.4
vertex -0.821750468200506 -3.06681449846779 25.4
endloop
endfacet
facet normal 0.0 0.0 1.0
outer loop
vertex -0.821750468200506 -3.06681449846779 25.4
vertex -1.23262570230076 -4.60022174770169 25.4
vertex -5.83238038093927e-16 -4.7625 25.4
endloop
endfacet
facet normal 0.0 0.0 1.0
outer loop
vertex -0.821750468200506 -3.06681449846779 25.4
vertex -5.83238038093927e-16 -4.7625 25.4
vertex -5.83238038093927e-16 -3.175 25.4
endloop
endfacet
facet normal 0.0 0.0 1.0
outer loop
vertex -5.83238038093927e-16 -3.175 25.4
vertex -5.83238038093927e-16 -4.7625 25.4
vertex 1.23262570230075 -4.60022174770169 25.4
endloop
endfacet
facet normal 0.0 0.0 1.0
outer loop
vertex -5.83238038093927e-16 -3.175 25.4
vertex 1.23262570230075 -4.60022174770169 25.4
vertex 0.821750468200502 -3.06681449846779 25.4
endloop
endfacet
facet normal 0.0 0.0 1.0
outer loop
vertex 0.821750468200502 -3.06681449846779 25.4
vertex 1.23262570230075 -4.60022174770169 25.4
vertex 1.5875 -2.74963065701559 25.4
endloop
endfacet
facet normal 0.0 0.0 1.0
outer loop
vertex 1.5875 -2.74963065701559 25.4
vertex 1.23262570230075 -4.60022174770169 25.4
vertex 2.38125 -4.12444598552339 25.4
endloop
endfacet
facet normal 0.0 0.0 1.0
outer loop
vertex 1.5875 -2.74963065701559 25.4
vertex 2.38125 -4.12444598552339 25.4
vertex 2.24506403026729 -2.24506403026729 25.4
endloop
endfacet
facet normal 0.0 0.0 1.0
outer loop
vertex 2.24506403026729 -2.24506403026729 25.4
vertex 2.38125 -4.12444598552339 25.4
vertex 2.74963065701559 -1.5875 25.4
endloop
endfacet
facet normal 0.0 0.0 1.0
outer loop
vertex 2.74963065701559 -1.5875 25.4
vertex 2.38125 -4.12444598552339 25.4
vertex 3.36759604540093 -3.36759604540093 25.4
endloop
endfacet
facet normal 0.0 0.0 1.0
outer loop
vertex 2.74963065701559 -1.5875 25.4
vertex 3.36759604540093 -3.36759604540093 25.4
vertex 3.06681449846779 -0.821750468200506 25.4
endloop
endfacet
facet normal 0.0 0.0 1.0
outer loop
vertex 3.06681449846779 -0.821750468200506 25.4
vertex 3.36759604540093 -3.36759604540093 25.4
vertex 3.175 0.0 25.4
endloop
endfacet
facet normal 0.0 0.0 1.0
outer loop
vertex -3.36759604540093 3.36759604540093 25.4
vertex -3.06681449846779 0.821750468200504 25.4
vertex -2.38125 4.12444598552339 25.4
endloop
endfacet
facet normal 0.0 0.0 1.0
outer loop
vertex -3.06681449846779 0.821750468200504 25.4
vertex -3.36759604540093 3.36759604540093 25.4
vertex -3.175 3.88825358729285e-16 25.4
endloop
endfacet
facet normal 0.0 0.0 1.0
outer loop
vertex -2.38125 4.12444598552339 25.4
vertex -3.06681449846779 0.821750468200504 25.4
vertex -2.74963065701559 1.5875 25.4
endloop
endfacet
facet normal 0.0 0.0 1.0
outer loop
vertex -2.38125 4.12444598552339 25.4
vertex -2.74963065701559 1.5875 25.4
vertex -2.24506403026729 2.24506403026729 25.4
endloop
endfacet
facet normal 0.0 0.0 1.0
outer loop
vertex -2.38125 4.12444598552339 25.4
vertex -2.24506403026729 2.24506403026729 25.4
vertex -1.23262570230075 4.60022174770169 25.4
endloop
endfacet
facet normal 0.0 0.0 1.0
outer loop
vertex -1.23262570230075 4.60022174770169 25.4
vertex -2.24506403026729 2.24506403026729 25.4
vertex -1.5875 2.74963065701559 25.4
endloop
endfacet
facet normal 0.0 0.0 1.0
outer loop
vertex -1.23262570230075 4.60022174770169 25.4
vertex -1.5875 2.74963065701559 25.4
vertex -0.821750468200503 3.06681449846779 25.4
endloop
endfacet
facet normal 0.0 0.0 1.0
outer loop
vertex -1.23262570230075 4.60022174770169 25.4
vertex -0.821750468200503 3.06681449846779 25.4
vertex 0.0 4.7625 25.4
endloop
endfacet
facet normal 0.0 0.0 1.0
outer loop
vertex 0.0 4.7625 25.4
vertex -0.821750468200503 3.06681449846779 25.4
vertex 1.94412679364642e-16 3.175 25.4
endloop
endfacet
facet normal 0.0 0.0 1.0
outer loop
vertex 0.0 4.7625 25.4
vertex 1.94412679364642e-16 3.175 25.4
vertex 1.23262570230076 4.60022174770169 25.4
endloop
endfacet
facet normal 0.0 0.0 1.0
outer loop
vertex 1.23262570230076 4.60022174770169 25.4
vertex 1.94412679364642e-16 3.175 25.4
vertex 0.821750468200504 3.06681449846779 25.4
endloop
endfacet
facet normal 0.0 0.0 1.0
outer loop
vertex 1.23262570230076 4.60022174770169 25.4
vertex 0.821750468200504 3.06681449846779 25.4
vertex 1.5875 2.74963065701559 25.4
endloop
endfacet
facet normal 0.0 0.0 1.0
outer loop
vertex 1.23262570230076 4.60022174770169 25.4
vertex 1.5875 2.74963065701559 25.4
vertex 2.38125 4.12444598552339 25.4
endloop
endfacet
facet normal 0.0 0.0 1.0
outer loop
vertex 2.38125 4.12444598552339 25.4
vertex 1.5875 2.74963065701559 25.4
vertex 2.24506403026729 2.24506403026729 25.4
endloop
endfacet
facet normal 0.0 0.0 1.0
outer loop
vertex 2.38125 4.12444598552339 25.4
vertex 2.24506403026729 2.24506403026729 25.4
vertex 2.74963065701559 1.5875 25.4
endloop
endfacet
facet normal 0.0 0.0 1.0
outer loop
vertex 2.38125 4.12444598552339 25.4
vertex 2.74963065701559 1.5875 25.4
vertex 3.36759604540093 3.36759604540093 25.4
endloop
endfacet
facet normal 0.0 0.0 1.0
outer loop
vertex 3.36759604540093 3.36759604540093 25.4
vertex 2.74963065701559 1.5875 25.4
vertex 3.06681449846779 0.821750468200503 25.4
endloop
endfacet
facet normal 0.0 0.0 1.0
outer loop
vertex 3.36759604540093 3.36759604540093 25.4
vertex 3.06681449846779 0.821750468200503 25.4
vertex 3.175 0.0 25.4
endloop
endfacet
facet normal 0.0 0.0 1.0
outer loop
vertex 3.36759604540093 3.36759604540093 25.4
vertex 3.175 0.0 25.4
vertex 3.36759604540093 -3.36759604540093 25.4
endloop
endfacet
facet normal 0.0 0.0 1.0
outer loop
vertex 3.36759604540093 3.36759604540093 25.4
vertex 3.36759604540093 -3.36759604540093 25.4
vertex 4.12444598552339 -2.38125 25.4
endloop
endfacet
facet normal 0.0 0.0 1.0
outer loop
vertex 3.36759604540093 3.36759604540093 25.4
vertex 4.12444598552339 -2.38125 25.4
vertex 4.12444598552339 2.38125 25.4
endloop
endfacet
facet normal 0.0 0.0 1.0
outer loop
vertex 4.12444598552339 2.38125 25.4
vertex 4.12444598552339 -2.38125 25.4
vertex 4.60022174770169 -1.23262570230076 25.4
endloop
endfacet
facet normal 0.0 0.0 1.0
outer loop
vertex 4.12444598552339 2.38125 25.4
vertex 4.60022174770169 -1.23262570230076 25.4
vertex 4.60022174770169 1.23262570230075 25.4
endloop
endfacet
facet normal 0.0 0.0 1.0
outer loop
vertex 4.60022174770169 1.23262570230075 25.4
vertex 4.60022174770169 -1.23262570230076 25.4
vertex 4.7625 -8.7485705714089e-16 25.4
endloop
endfacet
facet normal 0.923879532511287 -0.38268343236509 0.0
outer loop
vertex 4.60022174770169 -1.23262570230076 0.0
vertex 4.12444598552339 -2.38125 25.4
vertex 4.12444598552339 -2.38125 0.0
endloop
endfacet
facet normal 0.923879532511287 -0.38268343236509 0.0
outer loop
vertex 4.12444598552339 -2.38125 25.4
vertex 4.60022174770169 -1.23262570230076 0.0
vertex 4.60022174770169 -1.23262570230076 25.4
endloop
endfacet
facet normal 0.793353340291235 -0.608761429008721 0.0
outer loop
vertex 4.12444598552339 -2.38125 0.0
vertex 3.36759604540093 -3.36759604540093 25.4
vertex 3.36759604540093 -3.36759604540093 0.0
endloop
endfacet
facet normal 0.793353340291235 -0.608761429008721 0.0
outer loop
vertex 3.36759604540093 -3.36759604540093 25.4
vertex 4.12444598552339 -2.38125 0.0
vertex 4.12444598552339 -2.38125 25.4
endloop
endfacet
facet normal 0.60876142900872 -0.793353340291235 0.0
outer loop
vertex 3.36759604540093 -3.36759604540093 25.4
vertex 2.38125 -4.12444598552339 0.0
vertex 3.36759604540093 -3.36759604540093 0.0
endloop
endfacet
facet normal 0.60876142900872 -0.793353340291235 0.0
outer loop
vertex 2.38125 -4.12444598552339 0.0
vertex 3.36759604540093 -3.36759604540093 25.4
vertex 2.38125 -4.12444598552339 25.4
endloop
endfacet
facet normal 0.382683432365089 -0.923879532511287 0.0
outer loop
vertex 2.38125 -4.12444598552339 25.4
vertex 1.23262570230075 -4.60022174770169 0.0
vertex 2.38125 -4.12444598552339 0.0
endloop
endfacet
facet normal 0.382683432365089 -0.923879532511287 0.0
outer loop
vertex 1.23262570230075 -4.60022174770169 0.0
vertex 2.38125 -4.12444598552339 25.4
vertex 1.23262570230075 -4.60022174770169 25.4
endloop
endfacet
facet normal 0.130526192220052 -0.99144486137381 0.0
outer loop
vertex 1.23262570230075 -4.60022174770169 25.4
vertex -5.83238038093927e-16 -4.7625 0.0
vertex 1.23262570230075 -4.60022174770169 0.0
endloop
endfacet
facet normal 0.130526192220052 -0.99144486137381 0.0
outer loop
vertex -5.83238038093927e-16 -4.7625 0.0
vertex 1.23262570230075 -4.60022174770169 25.4
vertex -5.83238038093927e-16 -4.7625 25.4
endloop
endfacet
facet normal -0.130526192220052 -0.99144486137381 -0.0
outer loop
vertex -5.83238038093927e-16 -4.7625 25.4
vertex -1.23262570230076 -4.60022174770169 0.0
vertex -5.83238038093927e-16 -4.7625 0.0
endloop
endfacet
facet normal -0.130526192220052 -0.99144486137381 -0.0
outer loop
vertex -1.23262570230076 -4.60022174770169 0.0
vertex -5.83238038093927e-16 -4.7625 25.4
vertex -1.23262570230076 -4.60022174770169 25.4
endloop
endfacet
facet normal -0.38268343236509 -0.923879532511287 -0.0
outer loop
vertex -1.23262570230076 -4.60022174770169 25.4
vertex -2.38125 -4.12444598552339 0.0
vertex -1.23262570230076 -4.60022174770169 0.0
endloop
endfacet
facet normal -0.38268343236509 -0.923879532511287 -0.0
outer loop
vertex -2.38125 -4.12444598552339 0.0
vertex -1.23262570230076 -4.60022174770169 25.4
vertex -2.38125 -4.12444598552339 25.4
endloop
endfacet
facet normal -0.608761429008721 -0.793353340291235 -0.0
outer loop
vertex -2.38125 -4.12444598552339 25.4
vertex -3.36759604540093 -3.36759604540093 0.0
vertex -2.38125 -4.12444598552339 0.0
endloop
endfacet
facet normal -0.608761429008721 -0.793353340291235 -0.0
outer loop
vertex -3.36759604540093 -3.36759604540093 0.0
vertex -2.38125 -4.12444598552339 25.4
vertex -3.36759604540093 -3.36759604540093 25.4
endloop
endfacet
facet normal -0.793353340291235 -0.608761429008721 -0.0
outer loop
vertex -4.12444598552339 -2.38125 25.4
vertex -3.36759604540093 -3.36759604540093 0.0
vertex -3.36759604540093 -3.36759604540093 25.4
endloop
endfacet
facet normal -0.793353340291235 -0.608761429008721 -0.0
outer loop
vertex -3.36759604540093 -3.36759604540093 0.0
vertex -4.12444598552339 -2.38125 25.4
vertex -4.12444598552339 -2.38125 0.0
endloop
endfacet
facet normal -0.923879532511287 -0.38268343236509 -0.0
outer loop
vertex -4.60022174770169 -1.23262570230075 25.4
vertex -4.12444598552339 -2.38125 0.0
vertex -4.12444598552339 -2.38125 25.4
endloop
endfacet
facet normal -0.923879532511287 -0.38268343236509 -0.0
outer loop
vertex -4.12444598552339 -2.38125 0.0
vertex -4.60022174770169 -1.23262570230075 25.4
vertex -4.60022174770169 -1.23262570230075 0.0
endloop
endfacet
facet normal -0.99144486137381 -0.130526192220051 -0.0
outer loop
vertex -4.7625 2.91619019046963e-16 25.4
vertex -4.60022174770169 -1.23262570230075 0.0
vertex -4.60022174770169 -1.23262570230075 25.4
endloop
endfacet
facet normal -0.99144486137381 -0.130526192220051 -0.0
outer loop
vertex -4.60022174770169 -1.23262570230075 0.0
vertex -4.7625 2.91619019046963e-16 25.4
vertex -4.7625 2.91619019046963e-16 0.0
endloop
endfacet
facet normal -0.99144486137381 0.130526192220052 0.0
outer loop
vertex -4.60022174770169 1.23262570230076 25.4
vertex -4.7625 2.91619019046963e-16 0.0
vertex -4.7625 2.91619019046963e-16 25.4
endloop
endfacet
facet normal -0.99144486137381 0.130526192220052 0.0
outer loop
vertex -4.7625 2.91619019046963e-16 0.0
vertex -4.60022174770169 1.23262570230076 25.4
vertex -4.60022174770169 1.23262570230076 0.0
endloop
endfacet
facet normal -0.923879532511287 0.38268343236509 0.0
outer loop
vertex -4.12444598552339 2.38125 25.4
vertex -4.60022174770169 1.23262570230076 0.0
vertex -4.60022174770169 1.23262570230076 25.4
endloop
endfacet
facet normal -0.923879532511287 0.38268343236509 0.0
outer loop
vertex -4.60022174770169 1.23262570230076 0.0
vertex -4.12444598552339 2.38125 25.4
vertex -4.12444598552339 2.38125 0.0
endloop
endfacet
facet normal -0.793353340291235 0.608761429008721 0.0
outer loop
vertex -3.36759604540093 3.36759604540093 25.4
vertex -4.12444598552339 2.38125 0.0
vertex -4.12444598552339 2.38125 25.4
endloop
endfacet
facet normal -0.793353340291235 0.608761429008721 0.0
outer loop
vertex -4.12444598552339 2.38125 0.0
vertex -3.36759604540093 3.36759604540093 25.4
vertex -3.36759604540093 3.36759604540093 0.0
endloop
endfacet
facet normal -0.608761429008721 0.793353340291235 0.0
outer loop
vertex -3.36759604540093 3.36759604540093 25.4
vertex -2.38125 4.12444598552339 0.0
vertex -3.36759604540093 3.36759604540093 0.0
endloop
endfacet
facet normal -0.608761429008721 0.793353340291235 0.0
outer loop
vertex -2.38125 4.12444598552339 0.0
vertex -3.36759604540093 3.36759604540093 25.4
vertex -2.38125 4.12444598552339 25.4
endloop
endfacet
facet normal -0.38268343236509 0.923879532511287 0.0
outer loop
vertex -2.38125 4.12444598552339 25.4
vertex -1.23262570230075 4.60022174770169 0.0
vertex -2.38125 4.12444598552339 0.0
endloop
endfacet
facet normal -0.38268343236509 0.923879532511287 0.0
outer loop
vertex -1.23262570230075 4.60022174770169 0.0
vertex -2.38125 4.12444598552339 25.4
vertex -1.23262570230075 4.60022174770169 25.4
endloop
endfacet
facet normal -0.130526192220051 0.99144486137381 0.0
outer loop
vertex -1.23262570230075 4.60022174770169 25.4
vertex 0.0 4.7625 0.0
vertex -1.23262570230075 4.60022174770169 0.0
endloop
endfacet
facet normal -0.130526192220051 0.99144486137381 0.0
outer loop
vertex 0.0 4.7625 0.0
vertex -1.23262570230075 4.60022174770169 25.4
vertex 0.0 4.7625 25.4
endloop
endfacet
facet normal 0.130526192220052 0.99144486137381 0.0
outer loop
vertex 0.0 4.7625 25.4
vertex 1.23262570230076 4.60022174770169 0.0
vertex 0.0 4.7625 0.0
endloop
endfacet
facet normal 0.130526192220052 0.99144486137381 0.0
outer loop
vertex 1.23262570230076 4.60022174770169 0.0
vertex 0.0 4.7625 25.4
vertex 1.23262570230076 4.60022174770169 25.4
endloop
endfacet
facet normal 0.38268343236509 0.923879532511287 0.0
outer loop
vertex 1.23262570230076 4.60022174770169 25.4
vertex 2.38125 4.12444598552339 0.0
vertex 1.23262570230076 4.60022174770169 0.0
endloop
endfacet
facet normal 0.38268343236509 0.923879532511287 0.0
outer loop
vertex 2.38125 4.12444598552339 0.0
vertex 1.23262570230076 4.60022174770169 25.4
vertex 2.38125 4.12444598552339 25.4
endloop
endfacet
facet normal 0.608761429008721 0.793353340291235 0.0
outer loop
vertex 2.38125 4.12444598552339 25.4
vertex 3.36759604540093 3.36759604540093 0.0
vertex 2.38125 4.12444598552339 0.0
endloop
endfacet
facet normal 0.608761429008721 0.793353340291235 0.0
outer loop
vertex 3.36759604540093 3.36759604540093 0.0
vertex 2.38125 4.12444598552339 25.4
vertex 3.36759604540093 3.36759604540093 25.4
endloop
endfacet
facet normal 0.793353340291236 0.60876142900872 0.0
outer loop
vertex 3.36759604540093 3.36759604540093 0.0
vertex 4.12444598552339 2.38125 25.4
vertex 4.12444598552339 2.38125 0.0
endloop
endfacet
facet normal 0.793353340291236 0.60876142900872 0.0
outer loop
vertex 4.12444598552339 2.38125 25.4
vertex 3.36759604540093 3.36759604540093 0.0
vertex 3.36759604540093 3.36759604540093 25.4
endloop
endfacet
facet normal 0.923879532511287 0.382683432365089 0.0
outer loop
vertex 4.12444598552339 2.38125 0.0
vertex 4.60022174770169 1.23262570230075 25.4
vertex 4.60022174770169 1.23262570230075 0.0
endloop
endfacet
facet normal 0.923879532511287 0.382683432365089 0.0
outer loop
vertex 4.60022174770169 1.23262570230075 25.4
vertex 4.12444598552339 2.38125 0.0
vertex 4.12444598552339 2.38125 25.4
endloop
endfacet
facet normal 0.99144486137381 0.130526192220052 0.0
outer loop
vertex 4.60022174770169 1.23262570230075 0.0
vertex 4.7625 -8.7485705714089e-16 25.4
vertex 4.7625 -8.7485705714089e-16 0.0
endloop
endfacet
facet normal 0.99144486137381 0.130526192220052 0.0
outer loop
vertex 4.7625 -8.7485705714089e-16 25.4
vertex 4.60022174770169 1.23262570230075 0.0
vertex 4.60022174770169 1.23262570230075 25.4
endloop
endfacet
facet normal 0.99144486137381 -0.130526192220052 0.0
outer loop
vertex 4.7625 -8.7485705714089e-16 0.0
vertex 4.60022174770169 -1.23262570230076 25.4
vertex 4.60022174770169 -1.23262570230076 0.0
endloop
endfacet
facet normal 0.99144486137381 -0.130526192220052 0.0
outer loop
vertex 4.60022174770169 -1.23262570230076 25.4
vertex 4.7625 -8.7485705714089e-16 0.0
vertex 4.7625 -8.7485705714089e-16 25.4
endloop
endfacet
facet normal 0.99144486137381 0.130526192220051 -0.0
outer loop
vertex -3.175 3.88825358729285e-16 12.7
vertex -3.06681449846779 -0.821750468200502 25.4
vertex -3.06681449846779 -0.821750468200502 12.7
endloop
endfacet
facet normal 0.99144486137381 0.130526192220051 -0.0
outer loop
vertex -3.06681449846779 -0.821750468200502 25.4
vertex -3.175 3.88825358729285e-16 12.7
vertex -3.175 3.88825358729285e-16 25.4
endloop
endfacet
facet normal 0.923879532511287 0.382683432365089 -0.0
outer loop
vertex -3.06681449846779 -0.821750468200502 12.7
vertex -2.74963065701559 -1.5875 25.4
vertex -2.74963065701559 -1.5875 12.7
endloop
endfacet
facet normal 0.923879532511287 0.382683432365089 -0.0
outer loop
vertex -2.74963065701559 -1.5875 25.4
vertex -3.06681449846779 -0.821750468200502 12.7
vertex -3.06681449846779 -0.821750468200502 25.4
endloop
endfacet
facet normal 0.793353340291235 0.60876142900872 -0.0
outer loop
vertex -2.74963065701559 -1.5875 12.7
vertex -2.24506403026729 -2.24506403026729 25.4
vertex -2.24506403026729 -2.24506403026729 12.7
endloop
endfacet
facet normal 0.793353340291235 0.60876142900872 -0.0
outer loop
vertex -2.24506403026729 -2.24506403026729 25.4
vertex -2.74963065701559 -1.5875 12.7
vertex -2.74963065701559 -1.5875 25.4
endloop
endfacet
facet normal 0.608761429008721 0.793353340291235 -0.0
outer loop
vertex -2.24506403026729 -2.24506403026729 25.4
vertex -1.5875 -2.74963065701559 12.7
vertex -2.24506403026729 -2.24506403026729 12.7
endloop
endfacet
facet normal 0.608761429008721 0.793353340291235 -0.0
outer loop
vertex -1.5875 -2.74963065701559 12.7
vertex -2.24506403026729 -2.24506403026729 25.4
vertex -1.5875 -2.74963065701559 25.4
endloop
endfacet
facet normal 0.38268343236509 0.923879532511287 -0.0
outer loop
vertex -1.5875 -2.74963065701559 25.4
vertex -0.821750468200506 -3.06681449846779 12.7
vertex -1.5875 -2.74963065701559 12.7
endloop
endfacet
facet normal 0.38268343236509 0.923879532511287 -0.0
outer loop
vertex -0.821750468200506 -3.06681449846779 12.7
vertex -1.5875 -2.74963065701559 25.4
vertex -0.821750468200506 -3.06681449846779 25.4
endloop
endfacet
facet normal 0.130526192220052 0.99144486137381 -0.0
outer loop
vertex -0.821750468200506 -3.06681449846779 25.4
vertex -5.83238038093927e-16 -3.175 12.7
vertex -0.821750468200506 -3.06681449846779 12.7
endloop
endfacet
facet normal 0.130526192220052 0.99144486137381 -0.0
outer loop
vertex -5.83238038093927e-16 -3.175 12.7
vertex -0.821750468200506 -3.06681449846779 25.4
vertex -5.83238038093927e-16 -3.175 25.4
endloop
endfacet
facet normal -0.130526192220051 0.99144486137381 -0.0
outer loop
vertex -5.83238038093927e-16 -3.175 25.4
vertex 0.821750468200502 -3.06681449846779 12.7
vertex -5.83238038093927e-16 -3.175 12.7
endloop
endfacet
facet normal -0.130526192220051 0.99144486137381 -0.0
outer loop
vertex 0.821750468200502 -3.06681449846779 12.7
vertex -5.83238038093927e-16 -3.175 25.4
vertex 0.821750468200502 -3.06681449846779 25.4
endloop
endfacet
facet normal -0.382683432365089 0.923879532511287 -0.0
outer loop
vertex 0.821750468200502 -3.06681449846779 25.4
vertex 1.5875 -2.74963065701559 12.7
vertex 0.821750468200502 -3.06681449846779 12.7
endloop
endfacet
facet normal -0.382683432365089 0.923879532511287 -0.0
outer loop
vertex 1.5875 -2.74963065701559 12.7
vertex 0.821750468200502 -3.06681449846779 25.4
vertex 1.5875 -2.74963065701559 25.4
endloop
endfacet
facet normal -0.60876142900872 0.793353340291236 -0.0
outer loop
vertex 1.5875 -2.74963065701559 25.4
vertex 2.24506403026729 -2.24506403026729 12.7
vertex 1.5875 -2.74963065701559 12.7
endloop
endfacet
facet normal -0.60876142900872 0.793353340291236 -0.0
outer loop
vertex 2.24506403026729 -2.24506403026729 12.7
vertex 1.5875 -2.74963065701559 25.4
vertex 2.24506403026729 -2.24506403026729 25.4
endloop
endfacet
facet normal -0.793353340291235 0.608761429008721 0.0
outer loop
vertex 2.74963065701559 -1.5875 25.4
vertex 2.24506403026729 -2.24506403026729 12.7
vertex 2.24506403026729 -2.24506403026729 25.4
endloop
endfacet
facet normal -0.793353340291235 0.608761429008721 0.0
outer loop
vertex 2.24506403026729 -2.24506403026729 12.7
vertex 2.74963065701559 -1.5875 25.4
vertex 2.74963065701559 -1.5875 12.7
endloop
endfacet
facet normal -0.923879532511287 0.382683432365091 0.0
outer loop
vertex 3.06681449846779 -0.821750468200506 25.4
vertex 2.74963065701559 -1.5875 12.7
vertex 2.74963065701559 -1.5875 25.4
endloop
endfacet
facet normal -0.923879532511287 0.382683432365091 0.0
outer loop
vertex 2.74963065701559 -1.5875 12.7
vertex 3.06681449846779 -0.821750468200506 25.4
vertex 3.06681449846779 -0.821750468200506 12.7
endloop
endfacet
facet normal -0.99144486137381 0.130526192220052 0.0
outer loop
vertex 3.175 0.0 25.4
vertex 3.06681449846779 -0.821750468200506 12.7
vertex 3.06681449846779 -0.821750468200506 25.4
endloop
endfacet
facet normal -0.99144486137381 0.130526192220052 0.0
outer loop
vertex 3.06681449846779 -0.821750468200506 12.7
vertex 3.175 0.0 25.4
vertex 3.175 0.0 12.7
endloop
endfacet
facet normal -0.99144486137381 -0.130526192220052 0.0
outer loop
vertex 3.06681449846779 0.821750468200503 25.4
vertex 3.175 0.0 12.7
vertex 3.175 0.0 25.4
endloop
endfacet
facet normal -0.99144486137381 -0.130526192220052 0.0
outer loop
vertex 3.175 0.0 12.7
vertex 3.06681449846779 0.821750468200503 25.4
vertex 3.06681449846779 0.821750468200503 12.7
endloop
endfacet
facet normal -0.923879532511287 -0.38268343236509 0.0
outer loop
vertex 2.74963065701559 1.5875 25.4
vertex 3.06681449846779 0.821750468200503 12.7
vertex 3.06681449846779 0.821750468200503 25.4
endloop
endfacet
facet normal -0.923879532511287 -0.38268343236509 0.0
outer loop
vertex 3.06681449846779 0.821750468200503 12.7
vertex 2.74963065701559 1.5875 25.4
vertex 2.74963065701559 1.5875 12.7
endloop
endfacet
facet normal -0.793353340291235 -0.608761429008721 0.0
outer loop
vertex 2.24506403026729 2.24506403026729 25.4
vertex 2.74963065701559 1.5875 12.7
vertex 2.74963065701559 1.5875 25.4
endloop
endfacet
facet normal -0.793353340291235 -0.608761429008721 0.0
outer loop
vertex 2.74963065701559 1.5875 12.7
vertex 2.24506403026729 2.24506403026729 25.4
vertex 2.24506403026729 2.24506403026729 12.7
endloop
endfacet
facet normal -0.608761429008721 -0.793353340291235 0.0
outer loop
vertex 2.24506403026729 2.24506403026729 25.4
vertex 1.5875 2.74963065701559 12.7
vertex 2.24506403026729 2.24506403026729 12.7
endloop
endfacet
facet normal -0.608761429008721 -0.793353340291235 0.0
outer loop
vertex 1.5875 2.74963065701559 12.7
vertex 2.24506403026729 2.24506403026729 25.4
vertex 1.5875 2.74963065701559 25.4
endloop
endfacet
facet normal -0.38268343236509 -0.923879532511287 0.0
outer loop
vertex 1.5875 2.74963065701559 25.4
vertex 0.821750468200504 3.06681449846779 12.7
vertex 1.5875 2.74963065701559 12.7
endloop
endfacet
facet normal -0.38268343236509 -0.923879532511287 0.0
outer loop
vertex 0.821750468200504 3.06681449846779 12.7
vertex 1.5875 2.74963065701559 25.4
vertex 0.821750468200504 3.06681449846779 25.4
endloop
endfacet
facet normal -0.130526192220052 -0.99144486137381 0.0
outer loop
vertex 0.821750468200504 3.06681449846779 25.4
vertex 1.94412679364642e-16 3.175 12.7
vertex 0.821750468200504 3.06681449846779 12.7
endloop
endfacet
facet normal -0.130526192220052 -0.99144486137381 0.0
outer loop
vertex 1.94412679364642e-16 3.175 12.7
vertex 0.821750468200504 3.06681449846779 25.4
vertex 1.94412679364642e-16 3.175 25.4
endloop
endfacet
facet normal 0.130526192220052 -0.99144486137381 0.0
outer loop
vertex 1.94412679364642e-16 3.175 25.4
vertex -0.821750468200503 3.06681449846779 12.7
vertex 1.94412679364642e-16 3.175 12.7
endloop
endfacet
facet normal 0.130526192220052 -0.99144486137381 0.0
outer loop
vertex -0.821750468200503 3.06681449846779 12.7
vertex 1.94412679364642e-16 3.175 25.4
vertex -0.821750468200503 3.06681449846779 25.4
endloop
endfacet
facet normal 0.382683432365089 -0.923879532511287 0.0
outer loop
vertex -0.821750468200503 3.06681449846779 25.4
vertex -1.5875 2.74963065701559 12.7
vertex -0.821750468200503 3.06681449846779 12.7
endloop
endfacet
facet normal 0.382683432365089 -0.923879532511287 0.0
outer loop
vertex -1.5875 2.74963065701559 12.7
vertex -0.821750468200503 3.06681449846779 25.4
vertex -1.5875 2.74963065701559 25.4
endloop
endfacet
facet normal 0.608761429008721 -0.793353340291235 0.0
outer loop
vertex -1.5875 2.74963065701559 25.4
vertex -2.24506403026729 2.24506403026729 12.7
vertex -1.5875 2.74963065701559 12.7
endloop
endfacet
facet normal 0.608761429008721 -0.793353340291235 0.0
outer loop
vertex -2.24506403026729 2.24506403026729 12.7
vertex -1.5875 2.74963065701559 25.4
vertex -2.24506403026729 2.24506403026729 25.4
endloop
endfacet
facet normal 0.793353340291235 -0.608761429008721 -0.0
outer loop
vertex -2.24506403026729 2.24506403026729 12.7
vertex -2.74963065701559 1.5875 25.4
vertex -2.74963065701559 1.5875 12.7
endloop
endfacet
facet normal 0.793353340291235 -0.608761429008721 -0.0
outer loop
vertex -2.74963065701559 1.5875 25.4
vertex -2.24506403026729 2.24506403026729 12.7
vertex -2.24506403026729 2.24506403026729 25.4
endloop
endfacet
facet normal 0.923879532511287 -0.38268343236509 -0.0
outer loop
vertex -2.74963065701559 1.5875 12.7
vertex -3.06681449846779 0.821750468200504 25.4
vertex -3.06681449846779 0.821750468200504 12.7
endloop
endfacet
facet normal 0.923879532511287 -0.38268343236509 -0.0
outer loop
vertex -3.06681449846779 0.821750468200504 25.4
vertex -2.74963065701559 1.5875 12.7
vertex -2.74963065701559 1.5875 25.4
endloop
endfacet
facet normal 0.99144486137381 -0.130526192220052 -0.0
outer loop
vertex -3.06681449846779 0.821750468200504 12.7
vertex -3.175 3.88825358729285e-16 25.4
vertex -3.175 3.88825358729285e-16 12.7
endloop
endfacet
facet normal 0.99144486137381 -0.130526192220052 -0.0
outer loop
vertex -3.175 3.88825358729285e-16 25.4
vertex -3.06681449846779 0.821750468200504 12.7
vertex -3.06681449846779 0.821750468200504 25.4
endloop
endfacet
facet normal 0.0 0.0 -1.0
outer loop
vertex -2.74963065701559 1.5875 12.7
vertex -2.46213614262575 0.433457743241485 12.7
vertex -2.49042800720001 -0.218559696544874 12.7
endloop
endfacet
facet normal 0.0 0.0 -1.0
outer loop
vertex -2.46213614262575 0.433457743241485 12.7
vertex -2.74963065701559 1.5875 12.7
vertex -2.24506403026729 2.24506403026729 12.7
endloop
endfacet
facet normal 0.0 0.0 -1.0
outer loop
vertex -2.46213614262575 0.433457743241485 12.7
vertex -2.24506403026729 2.24506403026729 12.7
vertex -2.2660537688039 1.05593575414873 12.7
endloop
endfacet
facet normal 0.0 0.0 -1.0
outer loop
vertex -2.2660537688039 1.05593575414873 12.7
vertex -2.24506403026729 2.24506403026729 12.7
vertex -1.91554357546898 1.60645348842707 12.7
endloop
endfacet
facet normal 0.0 0.0 -1.0
outer loop
vertex -1.91554357546898 1.60645348842707 12.7
vertex -2.24506403026729 2.24506403026729 12.7
vertex -1.5875 2.74963065701559 12.7
endloop
endfacet
facet normal 0.0 0.0 -1.0
outer loop
vertex -1.91554357546898 1.60645348842707 12.7
vertex -1.5875 2.74963065701559 12.7
vertex -1.43449225305128 2.04749407225903 12.7
endloop
endfacet
facet normal 0.0 0.0 -1.0
outer loop
vertex -1.43449225305128 2.04749407225903 12.7
vertex -1.5875 2.74963065701559 12.7
vertex -0.821750468200503 3.06681449846779 12.7
endloop
endfacet
facet normal 0.0 0.0 -1.0
outer loop
vertex -1.43449225305128 2.04749407225903 12.7
vertex -0.821750468200503 3.06681449846779 12.7
vertex -0.855682654198676 2.34900131871047 12.7
endloop
endfacet
facet normal 0.0 0.0 -1.0
outer loop
vertex -0.855682654198676 2.34900131871047 12.7
vertex -0.821750468200503 3.06681449846779 12.7
vertex -0.218559696544874 2.49042800720001 12.7
endloop
endfacet
facet normal 0.0 0.0 -1.0
outer loop
vertex -0.218559696544874 2.49042800720001 12.7
vertex -0.821750468200503 3.06681449846779 12.7
vertex 1.94412679364642e-16 3.175 12.7
endloop
endfacet
facet normal 0.0 0.0 -1.0
outer loop
vertex -0.218559696544874 2.49042800720001 12.7
vertex 1.94412679364642e-16 3.175 12.7
vertex 0.433457743241485 2.46213614262575 12.7
endloop
endfacet
facet normal 0.0 0.0 -1.0
outer loop
vertex 0.433457743241485 2.46213614262575 12.7
vertex 1.94412679364642e-16 3.175 12.7
vertex 0.821750468200504 3.06681449846779 12.7
endloop
endfacet
facet normal 0.0 0.0 -1.0
outer loop
vertex 0.433457743241485 2.46213614262575 12.7
vertex 0.821750468200504 3.06681449846779 12.7
vertex 1.05593575414873 2.2660537688039 12.7
endloop
endfacet
facet normal 0.0 0.0 -1.0
outer loop
vertex 1.05593575414873 2.2660537688039 12.7
vertex 0.821750468200504 3.06681449846779 12.7
vertex 1.5875 2.74963065701559 12.7
endloop
endfacet
facet normal 0.0 0.0 -1.0
outer loop
vertex 1.05593575414873 2.2660537688039 12.7
vertex 1.5875 2.74963065701559 12.7
vertex 1.60645348842707 1.91554357546898 12.7
endloop
endfacet
facet normal 0.0 0.0 -1.0
outer loop
vertex 1.60645348842707 1.91554357546898 12.7
vertex 1.5875 2.74963065701559 12.7
vertex 2.24506403026729 2.24506403026729 12.7
endloop
endfacet
facet normal 0.0 0.0 -1.0
outer loop
vertex 1.60645348842707 1.91554357546898 12.7
vertex 2.24506403026729 2.24506403026729 12.7
vertex 2.04749407225903 1.43449225305128 12.7
endloop
endfacet
facet normal 0.0 0.0 -1.0
outer loop
vertex 2.04749407225903 1.43449225305128 12.7
vertex 2.24506403026729 2.24506403026729 12.7
vertex 2.34900131871047 0.855682654198674 12.7
endloop
endfacet
facet normal 0.0 0.0 -1.0
outer loop
vertex 2.34900131871047 0.855682654198674 12.7
vertex 2.24506403026729 2.24506403026729 12.7
vertex 2.74963065701559 1.5875 12.7
endloop
endfacet
facet normal 0.0 0.0 -1.0
outer loop
vertex 2.34900131871047 0.855682654198674 12.7
vertex 2.74963065701559 1.5875 12.7
vertex 2.49042800720001 0.218559696544873 12.7
endloop
endfacet
facet normal 0.0 0.0 -1.0
outer loop
vertex 2.49042800720001 0.218559696544873 12.7
vertex 2.74963065701559 1.5875 12.7
vertex 2.74963065701559 -1.5875 12.7
endloop
endfacet
facet normal 0.0 0.0 -1.0
outer loop
vertex 2.74963065701559 -1.5875 12.7
vertex 2.74963065701559 1.5875 12.7
vertex 3.06681449846779 -0.821750468200506 12.7
endloop
endfacet
facet normal 0.0 0.0 -1.0
outer loop
vertex 3.06681449846779 -0.821750468200506 12.7
vertex 2.74963065701559 1.5875 12.7
vertex 3.06681449846779 0.821750468200503 12.7
endloop
endfacet
facet normal 0.0 0.0 -1.0
outer loop
vertex 3.06681449846779 -0.821750468200506 12.7
vertex 3.06681449846779 0.821750468200503 12.7
vertex 3.175 0.0 12.7
endloop
endfacet
facet normal 0.0 0.0 -1.0
outer loop
vertex -3.06681449846779 0.821750468200504 12.7
vertex -3.06681449846779 -0.821750468200502 12.7
vertex -3.175 3.88825358729285e-16 12.7
endloop
endfacet
facet normal 0.0 0.0 -1.0
outer loop
vertex -3.06681449846779 -0.821750468200502 12.7
vertex -3.06681449846779 0.821750468200504 12.7
vertex -2.74963065701559 -1.5875 12.7
endloop
endfacet
facet normal 0.0 0.0 -1.0
outer loop
vertex -2.74963065701559 -1.5875 12.7
vertex -3.06681449846779 0.821750468200504 12.7
vertex -2.74963065701559 1.5875 12.7
endloop
endfacet
facet normal 0.0 0.0 -1.0
outer loop
vertex -2.74963065701559 -1.5875 12.7
vertex -2.74963065701559 1.5875 12.7
vertex -2.24506403026729 -2.24506403026729 12.7
endloop
endfacet
facet normal 0.0 0.0 -1.0
outer loop
vertex -2.24506403026729 -2.24506403026729 12.7
vertex -2.74963065701559 1.5875 12.7
vertex -2.49042800720001 -0.218559696544874 12.7
endloop
endfacet
facet normal 0.0 0.0 -1.0
outer loop
vertex -2.24506403026729 -2.24506403026729 12.7
vertex -2.49042800720001 -0.218559696544874 12.7
vertex -2.34900131871047 -0.855682654198675 12.7
endloop
endfacet
facet normal 0.0 0.0 -1.0
outer loop
vertex -2.24506403026729 -2.24506403026729 12.7
vertex -2.34900131871047 -0.855682654198675 12.7
vertex -2.04749407225903 -1.43449225305128 12.7
endloop
endfacet
facet normal 0.0 0.0 -1.0
outer loop
vertex -2.24506403026729 -2.24506403026729 12.7
vertex -2.04749407225903 -1.43449225305128 12.7
vertex -1.5875 -2.74963065701559 12.7
endloop
endfacet
facet normal 0.0 0.0 -1.0
outer loop
vertex -1.5875 -2.74963065701559 12.7
vertex -2.04749407225903 -1.43449225305128 12.7
vertex -1.60645348842707 -1.91554357546898 12.7
endloop
endfacet
facet normal 0.0 0.0 -1.0
outer loop
vertex -1.5875 -2.74963065701559 12.7
vertex -1.60645348842707 -1.91554357546898 12.7
vertex -1.05593575414873 -2.2660537688039 12.7
endloop
endfacet
facet normal 0.0 0.0 -1.0
outer loop
vertex -1.5875 -2.74963065701559 12.7
vertex -1.05593575414873 -2.2660537688039 12.7
vertex -0.821750468200506 -3.06681449846779 12.7
endloop
endfacet
facet normal 0.0 0.0 -1.0
outer loop
vertex -0.821750468200506 -3.06681449846779 12.7
vertex -1.05593575414873 -2.2660537688039 12.7
vertex -0.433457743241485 -2.46213614262575 12.7
endloop
endfacet
facet normal 0.0 0.0 -1.0
outer loop
vertex -0.821750468200506 -3.06681449846779 12.7
vertex -0.433457743241485 -2.46213614262575 12.7
vertex -5.83238038093927e-16 -3.175 12.7
endloop
endfacet
facet normal 0.0 0.0 -1.0
outer loop
vertex -5.83238038093927e-16 -3.175 12.7
vertex -0.433457743241485 -2.46213614262575 12.7
vertex 0.218559696544873 -2.49042800720001 12.7
endloop
endfacet
facet normal 0.0 0.0 -1.0
outer loop
vertex -5.83238038093927e-16 -3.175 12.7
vertex 0.218559696544873 -2.49042800720001 12.7
vertex 0.821750468200502 -3.06681449846779 12.7
endloop
endfacet
facet normal 0.0 0.0 -1.0
outer loop
vertex 0.821750468200502 -3.06681449846779 12.7
vertex 0.218559696544873 -2.49042800720001 12.7
vertex 0.855682654198675 -2.34900131871047 12.7
endloop
endfacet
facet normal 0.0 0.0 -1.0
outer loop
vertex 0.821750468200502 -3.06681449846779 12.7
vertex 0.855682654198675 -2.34900131871047 12.7
vertex 1.5875 -2.74963065701559 12.7
endloop
endfacet
facet normal 0.0 0.0 -1.0
outer loop
vertex 1.5875 -2.74963065701559 12.7
vertex 0.855682654198675 -2.34900131871047 12.7
vertex 1.43449225305128 -2.04749407225903 12.7
endloop
endfacet
facet normal 0.0 0.0 -1.0
outer loop
vertex 1.5875 -2.74963065701559 12.7
vertex 1.43449225305128 -2.04749407225903 12.7
vertex 1.91554357546898 -1.60645348842707 12.7
endloop
endfacet
facet normal 0.0 0.0 -1.0
outer loop
vertex 1.5875 -2.74963065701559 12.7
vertex 1.91554357546898 -1.60645348842707 12.7
vertex 2.24506403026729 -2.24506403026729 12.7
endloop
endfacet
facet normal 0.0 0.0 -1.0
outer loop
vertex 2.24506403026729 -2.24506403026729 12.7
vertex 1.91554357546898 -1.60645348842707 12.7
vertex 2.2660537688039 -1.05593575414873 12.7
endloop
endfacet
facet normal 0.0 0.0 -1.0
outer loop
vertex 2.24506403026729 -2.24506403026729 12.7
vertex 2.2660537688039 -1.05593575414873 12.7
vertex 2.74963065701559 -1.5875 12.7
endloop
endfacet
facet normal 0.0 0.0 -1.0
outer loop
vertex 2.74963065701559 -1.5875 12.7
vertex 2.2660537688039 -1.05593575414873 12.7
vertex 2.46213614262575 -0.433457743241485 12.7
endloop
endfacet
facet normal 0.0 0.0 -1.0
outer loop
vertex 2.74963065701559 -1.5875 12.7
vertex 2.46213614262575 -0.433457743241485 12.7
vertex 2.49042800720001 0.218559696544873 12.7
endloop
endfacet
facet normal 0.99144486137381 0.130526192220051 -0.0
outer loop
vertex -3.175 3.88825358729285e-16 0.0
vertex -3.06681449846779 -0.821750468200502 12.7
vertex -3.06681449846779 -0.821750468200502 0.0
endloop
endfacet
facet normal 0.99144486137381 0.130526192220051 -0.0
outer loop
vertex -3.06681449846779 -0.821750468200502 12.7
vertex -3.175 3.88825358729285e-16 0.0
vertex -3.175 3.88825358729285e-16 12.7
endloop
endfacet
facet normal 0.99144486137381 -0.130526192220052 -0.0
outer loop
vertex -3.06681449846779 0.821750468200504 0.0
vertex -3.175 3.88825358729285e-16 12.7
vertex -3.175 3.88825358729285e-16 0.0
endloop
endfacet
facet normal 0.99144486137381 -0.130526192220052 -0.0
outer loop
vertex -3.175 3.88825358729285e-16 12.7
vertex -3.06681449846779 0.821750468200504 0.0
vertex -3.06681449846779 0.821750468200504 12.7
endloop
endfacet
facet normal 0.923879532511287 -0.38268343236509 -0.0
outer loop
vertex -2.74963065701559 1.5875 0.0
vertex -3.06681449846779 0.821750468200504 12.7
vertex -3.06681449846779 0.821750468200504 0.0
endloop
endfacet
facet normal 0.923879532511287 -0.38268343236509 -0.0
outer loop
vertex -3.06681449846779 0.821750468200504 12.7
vertex -2.74963065701559 1.5875 0.0
vertex -2.74963065701559 1.5875 12.7
endloop
endfacet
facet normal 0.793353340291235 -0.608761429008721 -0.0
outer loop
vertex -2.24506403026729 2.24506403026729 0.0
vertex -2.74963065701559 1.5875 12.7
vertex -2.74963065701559 1.5875 0.0
endloop
endfacet
facet normal 0.793353340291235 -0.608761429008721 -0.0
outer loop
vertex -2.74963065701559 1.5875 12.7
vertex -2.24506403026729 2.24506403026729 0.0
vertex -2.24506403026729 2.24506403026729 12.7
endloop
endfacet
facet normal 0.608761429008721 -0.793353340291235 0.0
outer loop
vertex -1.5875 2.74963065701559 12.7
vertex -2.24506403026729 2.24506403026729 0.0
vertex -1.5875 2.74963065701559 0.0
endloop
endfacet
facet normal 0.608761429008721 -0.793353340291235 0.0
outer loop
vertex -2.24506403026729 2.24506403026729 0.0
vertex -1.5875 2.74963065701559 12.7
vertex -2.24506403026729 2.24506403026729 12.7
endloop
endfacet
facet normal 0.382683432365089 -0.923879532511287 0.0
outer loop
vertex -0.821750468200503 3.06681449846779 12.7
vertex -1.5875 2.74963065701559 0.0
vertex -0.821750468200503 3.06681449846779 0.0
endloop
endfacet
facet normal 0.382683432365089 -0.923879532511287 0.0
outer loop
vertex -1.5875 2.74963065701559 0.0
vertex -0.821750468200503 3.06681449846779 12.7
vertex -1.5875 2.74963065701559 12.7
endloop
endfacet
facet normal 0.130526192220052 -0.99144486137381 0.0
outer loop
vertex 1.94412679364642e-16 3.175 12.7
vertex -0.821750468200503 3.06681449846779 0.0
vertex 1.94412679364642e-16 3.175 0.0
endloop
endfacet
facet normal 0.130526192220052 -0.99144486137381 0.0
outer loop
vertex -0.821750468200503 3.06681449846779 0.0
vertex 1.94412679364642e-16 3.175 12.7
vertex -0.821750468200503 3.06681449846779 12.7
endloop
endfacet
facet normal -0.130526192220052 -0.99144486137381 0.0
outer loop
vertex 0.821750468200504 3.06681449846779 12.7
vertex 1.94412679364642e-16 3.175 0.0
vertex 0.821750468200504 3.06681449846779 0.0
endloop
endfacet
facet normal -0.130526192220052 -0.99144486137381 0.0
outer loop
vertex 1.94412679364642e-16 3.175 0.0
vertex 0.821750468200504 3.06681449846779 12.7
vertex 1.94412679364642e-16 3.175 12.7
endloop
endfacet
facet normal -0.38268343236509 -0.923879532511287 0.0
outer loop
vertex 1.5875 2.74963065701559 12.7
vertex 0.821750468200504 3.06681449846779 0.0
vertex 1.5875 2.74963065701559 0.0
endloop
endfacet
facet normal -0.38268343236509 -0.923879532511287 0.0
outer loop
vertex 0.821750468200504 3.06681449846779 0.0
vertex 1.5875 2.74963065701559 12.7
vertex 0.821750468200504 3.06681449846779 12.7
endloop
endfacet
facet normal -0.608761429008721 -0.793353340291235 0.0
outer loop
vertex 2.24506403026729 2.24506403026729 12.7
vertex 1.5875 2.74963065701559 0.0
vertex 2.24506403026729 2.24506403026729 0.0
endloop
endfacet
facet normal -0.608761429008721 -0.793353340291235 0.0
outer loop
vertex 1.5875 2.74963065701559 0.0
vertex 2.24506403026729 2.24506403026729 12.7
vertex 1.5875 2.74963065701559 12.7
endloop
endfacet
facet normal -0.793353340291235 -0.608761429008721 0.0
outer loop
vertex 2.24506403026729 2.24506403026729 12.7
vertex 2.74963065701559 1.5875 0.0
vertex 2.74963065701559 1.5875 12.7
endloop
endfacet
facet normal -0.793353340291235 -0.608761429008721 0.0
outer loop
vertex 2.74963065701559 1.5875 0.0
vertex 2.24506403026729 2.24506403026729 12.7
vertex 2.24506403026729 2.24506403026729 0.0
endloop
endfacet
facet normal -0.923879532511287 -0.38268343236509 0.0
outer loop
vertex 2.74963065701559 1.5875 12.7
vertex 3.06681449846779 0.821750468200503 0.0
vertex 3.06681449846779 0.821750468200503 12.7
endloop
endfacet
facet normal -0.923879532511287 -0.38268343236509 0.0
outer loop
vertex 3.06681449846779 0.821750468200503 0.0
vertex 2.74963065701559 1.5875 12.7
vertex 2.74963065701559 1.5875 0.0
endloop
endfacet
facet normal -0.99144486137381 -0.130526192220052 0.0
outer loop
vertex 3.06681449846779 0.821750468200503 12.7
vertex 3.175 0.0 0.0
vertex 3.175 0.0 12.7
endloop
endfacet
facet normal -0.99144486137381 -0.130526192220052 0.0
outer loop
vertex 3.175 0.0 0.0
vertex 3.06681449846779 0.821750468200503 12.7
vertex 3.06681449846779 0.821750468200503 0.0
endloop
endfacet
facet normal -0.99144486137381 0.130526192220052 0.0
outer loop
vertex 3.175 0.0 12.7
vertex 3.06681449846779 -0.821750468200506 0.0
vertex 3.06681449846779 -0.821750468200506 12.7
endloop
endfacet
facet normal -0.99144486137381 0.130526192220052 0.0
outer loop
vertex 3.06681449846779 -0.821750468200506 0.0
vertex 3.175 0.0 12.7
vertex 3.175 0.0 0.0
endloop
endfacet
facet normal -0.923879532511287 0.382683432365091 0.0
outer loop
vertex 3.06681449846779 -0.821750468200506 12.7
vertex 2.74963065701559 -1.5875 0.0
vertex 2.74963065701559 -1.5875 12.7
endloop
endfacet
facet normal -0.923879532511287 0.382683432365091 0.0
outer loop
vertex 2.74963065701559 -1.5875 0.0
vertex 3.06681449846779 -0.821750468200506 12.7
vertex 3.06681449846779 -0.821750468200506 0.0
endloop
endfacet
facet normal -0.793353340291235 0.608761429008721 0.0
outer loop
vertex 2.74963065701559 -1.5875 12.7
vertex 2.24506403026729 -2.24506403026729 0.0
vertex 2.24506403026729 -2.24506403026729 12.7
endloop
endfacet
facet normal -0.793353340291235 0.608761429008721 0.0
outer loop
vertex 2.24506403026729 -2.24506403026729 0.0
vertex 2.74963065701559 -1.5875 12.7
vertex 2.74963065701559 -1.5875 0.0
endloop
endfacet
facet normal -0.60876142900872 0.793353340291236 -0.0
outer loop
vertex 1.5875 -2.74963065701559 12.7
vertex 2.24506403026729 -2.24506403026729 0.0
vertex 1.5875 -2.74963065701559 0.0
endloop
endfacet
facet normal -0.60876142900872 0.793353340291236 -0.0
outer loop
vertex 2.24506403026729 -2.24506403026729 0.0
vertex 1.5875 -2.74963065701559 12.7
vertex 2.24506403026729 -2.24506403026729 12.7
endloop
endfacet
facet normal -0.382683432365089 0.923879532511287 -0.0
outer loop
vertex 0.821750468200502 -3.06681449846779 12.7
vertex 1.5875 -2.74963065701559 0.0
vertex 0.821750468200502 -3.06681449846779 0.0
endloop
endfacet
facet normal -0.382683432365089 0.923879532511287 -0.0
outer loop
vertex 1.5875 -2.74963065701559 0.0
vertex 0.821750468200502 -3.06681449846779 12.7
vertex 1.5875 -2.74963065701559 12.7
endloop
endfacet
facet normal -0.130526192220051 0.99144486137381 -0.0
outer loop
vertex -5.83238038093927e-16 -3.175 12.7
vertex 0.821750468200502 -3.06681449846779 0.0
vertex -5.83238038093927e-16 -3.175 0.0
endloop
endfacet
facet normal -0.130526192220051 0.99144486137381 -0.0
outer loop
vertex 0.821750468200502 -3.06681449846779 0.0
vertex -5.83238038093927e-16 -3.175 12.7
vertex 0.821750468200502 -3.06681449846779 12.7
endloop
endfacet
facet normal 0.130526192220052 0.99144486137381 -0.0
outer loop
vertex -0.821750468200506 -3.06681449846779 12.7
vertex -5.83238038093927e-16 -3.175 0.0
vertex -0.821750468200506 -3.06681449846779 0.0
endloop
endfacet
facet normal 0.130526192220052 0.99144486137381 -0.0
outer loop
vertex -5.83238038093927e-16 -3.175 0.0
vertex -0.821750468200506 -3.06681449846779 12.7
vertex -5.83238038093927e-16 -3.175 12.7
endloop
endfacet
facet normal 0.38268343236509 0.923879532511287 -0.0
outer loop
vertex -1.5875 -2.74963065701559 12.7
vertex -0.821750468200506 -3.06681449846779 0.0
vertex -1.5875 -2.74963065701559 0.0
endloop
endfacet
facet normal 0.38268343236509 0.923879532511287 -0.0
outer loop
vertex -0.821750468200506 -3.06681449846779 0.0
vertex -1.5875 -2.74963065701559 12.7
vertex -0.821750468200506 -3.06681449846779 12.7
endloop
endfacet
facet normal 0.608761429008721 0.793353340291235 -0.0
outer loop
vertex -2.24506403026729 -2.24506403026729 12.7
vertex -1.5875 -2.74963065701559 0.0
vertex -2.24506403026729 -2.24506403026729 0.0
endloop
endfacet
facet normal 0.608761429008721 0.793353340291235 -0.0
outer loop
vertex -1.5875 -2.74963065701559 0.0
vertex -2.24506403026729 -2.24506403026729 12.7
vertex -1.5875 -2.74963065701559 12.7
endloop
endfacet
facet normal 0.793353340291235 0.60876142900872 -0.0
outer loop
vertex -2.74963065701559 -1.5875 0.0
vertex -2.24506403026729 -2.24506403026729 12.7
vertex -2.24506403026729 -2.24506403026729 0.0
endloop
endfacet
facet normal 0.793353340291235 0.60876142900872 -0.0
outer loop
vertex -2.24506403026729 -2.24506403026729 12.7
vertex -2.74963065701559 -1.5875 0.0
vertex -2.74963065701559 -1.5875 12.7
endloop
endfacet
facet normal 0.923879532511287 0.382683432365089 -0.0
outer loop
vertex -3.06681449846779 -0.821750468200502 0.0
vertex -2.74963065701559 -1.5875 12.7
vertex -2.74963065701559 -1.5875 0.0
endloop
endfacet
facet normal 0.923879532511287 0.382683432365089 -0.0
outer loop
vertex -2.74963065701559 -1.5875 12.7
vertex -3.06681449846779 -0.821750468200502 0.0
vertex -3.06681449846779 -0.821750468200502 12.7
endloop
endfacet
facet normal -0.216702389128329 0.976237714158839 -0.0
outer loop
vertex -0.855682654198676 2.34900131871047 12.7
vertex -0.218559696544874 2.49042800720001 0.0
vertex -0.855682654198676 2.34900131871047 0.0
endloop
endfacet
facet normal -0.216702389128329 0.976237714158839 -0.0
outer loop
vertex -0.218559696544874 2.49042800720001 0.0
vertex -0.855682654198676 2.34900131871047 12.7
vertex -0.218559696544874 2.49042800720001 12.7
endloop
endfacet
facet normal -0.461987347249255 0.886886515277798 -0.0
outer loop
vertex -1.43449225305128 2.04749407225903 12.7
vertex -0.855682654198676 2.34900131871047 0.0
vertex -1.43449225305128 2.04749407225903 0.0
endloop
endfacet
facet normal -0.461987347249255 0.886886515277798 -0.0
outer loop
vertex -0.855682654198676 2.34900131871047 0.0
vertex -1.43449225305128 2.04749407225903 12.7
vertex -0.855682654198676 2.34900131871047 12.7
endloop
endfacet
facet normal -0.675788631125333 0.737095466029841 -0.0
outer loop
vertex -1.91554357546898 1.60645348842707 12.7
vertex -1.43449225305128 2.04749407225903 0.0
vertex -1.91554357546898 1.60645348842707 0.0
endloop
endfacet
facet normal -0.675788631125333 0.737095466029841 -0.0
outer loop
vertex -1.43449225305128 2.04749407225903 0.0
vertex -1.91554357546898 1.60645348842707 12.7
vertex -1.43449225305128 2.04749407225903 12.7
endloop
endfacet
facet normal -0.843536036583737 0.537072578879802 -0.0
outer loop
vertex -1.91554357546898 1.60645348842707 12.7
vertex -2.2660537688039 1.05593575414873 0.0
vertex -2.2660537688039 1.05593575414873 12.7
endloop
endfacet
facet normal -0.843536036583737 0.537072578879802 -0.0
outer loop
vertex -2.2660537688039 1.05593575414873 0.0
vertex -1.91554357546898 1.60645348842707 12.7
vertex -1.91554357546898 1.60645348842707 0.0
endloop
endfacet
facet normal -0.95379785515817 0.300449083033506 -0.0
outer loop
vertex -2.2660537688039 1.05593575414873 12.7
vertex -2.46213614262575 0.433457743241485 0.0
vertex -2.46213614262575 0.433457743241485 12.7
endloop
endfacet
facet normal -0.95379785515817 0.300449083033506 -0.0
outer loop
vertex -2.46213614262575 0.433457743241485 0.0
vertex -2.2660537688039 1.05593575414873 12.7
vertex -2.2660537688039 1.05593575414873 0.0
endloop
endfacet
facet normal -0.999059926129056 0.0433504786940612 -0.0
outer loop
vertex -2.46213614262575 0.433457743241485 12.7
vertex -2.49042800720001 -0.218559696544874 0.0
vertex -2.49042800720001 -0.218559696544874 12.7
endloop
endfacet
facet normal -0.999059926129056 0.0433504786940612 -0.0
outer loop
vertex -2.49042800720001 -0.218559696544874 0.0
vertex -2.46213614262575 0.433457743241485 12.7
vertex -2.46213614262575 0.433457743241485 0.0
endloop
endfacet
facet normal -0.976237714158839 -0.216702389128329 -0.0
outer loop
vertex -2.49042800720001 -0.218559696544874 12.7
vertex -2.34900131871047 -0.855682654198675 0.0
vertex -2.34900131871047 -0.855682654198675 12.7
endloop
endfacet
facet normal -0.976237714158839 -0.216702389128329 -0.0
outer loop
vertex -2.34900131871047 -0.855682654198675 0.0
vertex -2.49042800720001 -0.218559696544874 12.7
vertex -2.49042800720001 -0.218559696544874 0.0
endloop
endfacet
facet normal -0.886886515277798 -0.461987347249255 -0.0
outer loop
vertex -2.34900131871047 -0.855682654198675 12.7
vertex -2.04749407225903 -1.43449225305128 0.0
vertex -2.04749407225903 -1.43449225305128 12.7
endloop
endfacet
facet normal -0.886886515277798 -0.461987347249255 -0.0
outer loop
vertex -2.04749407225903 -1.43449225305128 0.0
vertex -2.34900131871047 -0.855682654198675 12.7
vertex -2.34900131871047 -0.855682654198675 0.0
endloop
endfacet
facet normal -0.737095466029841 -0.675788631125333 -0.0
outer loop
vertex -2.04749407225903 -1.43449225305128 12.7
vertex -1.60645348842707 -1.91554357546898 0.0
vertex -1.60645348842707 -1.91554357546898 12.7
endloop
endfacet
facet normal -0.737095466029841 -0.675788631125333 -0.0
outer loop
vertex -1.60645348842707 -1.91554357546898 0.0
vertex -2.04749407225903 -1.43449225305128 12.7
vertex -2.04749407225903 -1.43449225305128 0.0
endloop
endfacet
facet normal -0.537072578879802 -0.843536036583736 -0.0
outer loop
vertex -1.05593575414873 -2.2660537688039 12.7
vertex -1.60645348842707 -1.91554357546898 0.0
vertex -1.05593575414873 -2.2660537688039 0.0
endloop
endfacet
facet normal -0.537072578879802 -0.843536036583736 -0.0
outer loop
vertex -1.60645348842707 -1.91554357546898 0.0
vertex -1.05593575414873 -2.2660537688039 12.7
vertex -1.60645348842707 -1.91554357546898 12.7
endloop
endfacet
facet normal -0.300449083033505 -0.95379785515817 -2.63965049568242e-18
outer loop
vertex -0.433457743241485 -2.46213614262575 12.7
vertex -0.555376694139087 -2.42373132046821 0.0
vertex -0.433457743241485 -2.46213614262575 0.0
endloop
endfacet
facet normal -0.300449083033505 -0.95379785515817 -2.63965049568242e-18
outer loop
vertex -0.555376694139087 -2.42373132046821 0.0
vertex -0.433457743241485 -2.46213614262575 12.7
vertex -1.05593575414873 -2.2660537688039 0.0
endloop
endfacet
facet normal -0.300449083033505 -0.95379785515817 -2.63965049568242e-18
outer loop
vertex -1.05593575414873 -2.2660537688039 0.0
vertex -0.433457743241485 -2.46213614262575 12.7
vertex -1.05593575414873 -2.2660537688039 12.7
endloop
endfacet
facet normal -0.0433504786940618 -0.999059926129056 -0.0
outer loop
vertex 0.218559696544873 -2.49042800720001 12.7
vertex -0.433457743241485 -2.46213614262575 0.0
vertex 0.218559696544873 -2.49042800720001 0.0
endloop
endfacet
facet normal -0.0433504786940618 -0.999059926129056 -0.0
outer loop
vertex -0.433457743241485 -2.46213614262575 0.0
vertex 0.218559696544873 -2.49042800720001 12.7
vertex -0.433457743241485 -2.46213614262575 12.7
endloop
endfacet
facet normal 0.216702389128329 -0.976237714158839 -0.0
outer loop
vertex 0.855682654198675 -2.34900131871047 12.7
vertex 0.218559696544873 -2.49042800720001 0.0
vertex 0.855682654198675 -2.34900131871047 0.0
endloop
endfacet
facet normal 0.216702389128329 -0.976237714158839 -0.0
outer loop
vertex 0.218559696544873 -2.49042800720001 0.0
vertex 0.855682654198675 -2.34900131871047 12.7
vertex 0.218559696544873 -2.49042800720001 12.7
endloop
endfacet
facet normal 0.461987347249255 -0.886886515277798 -0.0
outer loop
vertex 1.43449225305128 -2.04749407225903 12.7
vertex 0.855682654198675 -2.34900131871047 0.0
vertex 1.43449225305128 -2.04749407225903 0.0
endloop
endfacet
facet normal 0.461987347249255 -0.886886515277798 -0.0
outer loop
vertex 0.855682654198675 -2.34900131871047 0.0
vertex 1.43449225305128 -2.04749407225903 12.7
vertex 0.855682654198675 -2.34900131871047 12.7
endloop
endfacet
facet normal 0.675788631125333 -0.737095466029841 -0.0
outer loop
vertex 1.91554357546898 -1.60645348842707 12.7
vertex 1.43449225305128 -2.04749407225903 0.0
vertex 1.91554357546898 -1.60645348842707 0.0
endloop
endfacet
facet normal 0.675788631125333 -0.737095466029841 -0.0
outer loop
vertex 1.43449225305128 -2.04749407225903 0.0
vertex 1.91554357546898 -1.60645348842707 12.7
vertex 1.43449225305128 -2.04749407225903 12.7
endloop
endfacet
facet normal 0.843536036583736 -0.537072578879802 -0.0
outer loop
vertex 2.2660537688039 -1.05593575414873 0.0
vertex 1.91554357546898 -1.60645348842707 12.7
vertex 1.91554357546898 -1.60645348842707 0.0
endloop
endfacet
facet normal 0.843536036583736 -0.537072578879802 -0.0
outer loop
vertex 1.91554357546898 -1.60645348842707 12.7
vertex 2.2660537688039 -1.05593575414873 0.0
vertex 2.2660537688039 -1.05593575414873 12.7
endloop
endfacet
facet normal 0.95379785515817 -0.300449083033506 -0.0
outer loop
vertex 2.46213614262575 -0.433457743241485 0.0
vertex 2.2660537688039 -1.05593575414873 12.7
vertex 2.2660537688039 -1.05593575414873 0.0
endloop
endfacet
facet normal 0.95379785515817 -0.300449083033506 -0.0
outer loop
vertex 2.2660537688039 -1.05593575414873 12.7
vertex 2.46213614262575 -0.433457743241485 0.0
vertex 2.46213614262575 -0.433457743241485 12.7
endloop
endfacet
facet normal 0.999059926129056 -0.0433504786940618 -0.0
outer loop
vertex 2.49042800720001 0.218559696544873 0.0
vertex 2.46213614262575 -0.433457743241485 12.7
vertex 2.46213614262575 -0.433457743241485 0.0
endloop
endfacet
facet normal 0.999059926129056 -0.0433504786940618 -0.0
outer loop
vertex 2.46213614262575 -0.433457743241485 12.7
vertex 2.49042800720001 0.218559696544873 0.0
vertex 2.49042800720001 0.218559696544873 12.7
endloop
endfacet
facet normal 0.976237714158839 0.216702389128329 0.0
outer loop
vertex 2.34900131871047 0.855682654198674 0.0
vertex 2.49042800720001 0.218559696544873 12.7
vertex 2.49042800720001 0.218559696544873 0.0
endloop
endfacet
facet normal 0.976237714158839 0.216702389128329 0.0
outer loop
vertex 2.49042800720001 0.218559696544873 12.7
vertex 2.34900131871047 0.855682654198674 0.0
vertex 2.34900131871047 0.855682654198674 12.7
endloop
endfacet
facet normal 0.886886515277799 0.461987347249254 0.0
outer loop
vertex 2.04749407225903 1.43449225305128 0.0
vertex 2.34900131871047 0.855682654198674 12.7
vertex 2.34900131871047 0.855682654198674 0.0
endloop
endfacet
facet normal 0.886886515277799 0.461987347249254 0.0
outer loop
vertex 2.34900131871047 0.855682654198674 12.7
vertex 2.04749407225903 1.43449225305128 0.0
vertex 2.04749407225903 1.43449225305128 12.7
endloop
endfacet
facet normal 0.737095466029841 0.675788631125333 0.0
outer loop
vertex 1.60645348842707 1.91554357546898 0.0
vertex 2.04749407225903 1.43449225305128 12.7
vertex 2.04749407225903 1.43449225305128 0.0
endloop
endfacet
facet normal 0.737095466029841 0.675788631125333 0.0
outer loop
vertex 2.04749407225903 1.43449225305128 12.7
vertex 1.60645348842707 1.91554357546898 0.0
vertex 1.60645348842707 1.91554357546898 12.7
endloop
endfacet
facet normal 0.537072578879803 0.843536036583736 -1.57189447627316e-17
outer loop
vertex 1.05593575414873 2.2660537688039 12.7
vertex 1.31806538352154 2.0991579517405 0.0
vertex 1.05593575414873 2.2660537688039 0.0
endloop
endfacet
facet normal 0.537072578879803 0.843536036583736 -1.57189447627316e-17
outer loop
vertex 1.31806538352154 2.0991579517405 0.0
vertex 1.05593575414873 2.2660537688039 12.7
vertex 1.60645348842707 1.91554357546898 0.0
endloop
endfacet
facet normal 0.537072578879803 0.843536036583736 -1.57189447627316e-17
outer loop
vertex 1.60645348842707 1.91554357546898 0.0
vertex 1.05593575414873 2.2660537688039 12.7
vertex 1.60645348842707 1.91554357546898 12.7
endloop
endfacet
facet normal 0.300449083033505 0.95379785515817 0.0
outer loop
vertex 0.433457743241485 2.46213614262575 12.7
vertex 1.05593575414873 2.2660537688039 0.0
vertex 0.433457743241485 2.46213614262575 0.0
endloop
endfacet
facet normal 0.300449083033505 0.95379785515817 0.0
outer loop
vertex 1.05593575414873 2.2660537688039 0.0
vertex 0.433457743241485 2.46213614262575 12.7
vertex 1.05593575414873 2.2660537688039 12.7
endloop
endfacet
facet normal 0.0433504786940612 0.999059926129056 0.0
outer loop
vertex -0.218559696544874 2.49042800720001 12.7
vertex 0.433457743241485 2.46213614262575 0.0
vertex -0.218559696544874 2.49042800720001 0.0
endloop
endfacet
facet normal 0.0433504786940612 0.999059926129056 0.0
outer loop
vertex 0.433457743241485 2.46213614262575 0.0
vertex -0.218559696544874 2.49042800720001 12.7
vertex 0.433457743241485 2.46213614262575 12.7
endloop
endfacet
facet normal 0.0 0.0 -1.0
outer loop
vertex -2.74963065701559 1.5875 0.0
vertex -2.46213614262575 0.433457743241485 0.0
vertex -2.49042800720001 -0.218559696544874 0.0
endloop
endfacet
facet normal 0.0 0.0 -1.0
outer loop
vertex -2.46213614262575 0.433457743241485 0.0
vertex -2.74963065701559 1.5875 0.0
vertex -2.24506403026729 2.24506403026729 0.0
endloop
endfacet
facet normal 0.0 0.0 -1.0
outer loop
vertex -2.46213614262575 0.433457743241485 0.0
vertex -2.24506403026729 2.24506403026729 0.0
vertex -2.2660537688039 1.05593575414873 0.0
endloop
endfacet
facet normal 0.0 0.0 -1.0
outer loop
vertex -2.2660537688039 1.05593575414873 0.0
vertex -2.24506403026729 2.24506403026729 0.0
vertex -1.91554357546898 1.60645348842707 0.0
endloop
endfacet
facet normal 0.0 0.0 -1.0
outer loop
vertex -1.91554357546898 1.60645348842707 0.0
vertex -2.24506403026729 2.24506403026729 0.0
vertex -1.5875 2.74963065701559 0.0
endloop
endfacet
facet normal 0.0 0.0 -1.0
outer loop
vertex -1.91554357546898 1.60645348842707 0.0
vertex -1.5875 2.74963065701559 0.0
vertex -1.43449225305128 2.04749407225903 0.0
endloop
endfacet
facet normal 0.0 0.0 -1.0
outer loop
vertex -1.43449225305128 2.04749407225903 0.0
vertex -1.5875 2.74963065701559 0.0
vertex -0.821750468200503 3.06681449846779 0.0
endloop
endfacet
facet normal 0.0 0.0 -1.0
outer loop
vertex -1.43449225305128 2.04749407225903 0.0
vertex -0.821750468200503 3.06681449846779 0.0
vertex -0.855682654198676 2.34900131871047 0.0
endloop
endfacet
facet normal 0.0 0.0 -1.0
outer loop
vertex -0.855682654198676 2.34900131871047 0.0
vertex -0.821750468200503 3.06681449846779 0.0
vertex -0.218559696544874 2.49042800720001 0.0
endloop
endfacet
facet normal 0.0 0.0 -1.0
outer loop
vertex -0.218559696544874 2.49042800720001 0.0
vertex -0.821750468200503 3.06681449846779 0.0
vertex 1.94412679364642e-16 3.175 0.0
endloop
endfacet
facet normal 0.0 0.0 -1.0
outer loop
vertex -0.218559696544874 2.49042800720001 0.0
vertex 1.94412679364642e-16 3.175 0.0
vertex 0.433457743241485 2.46213614262575 0.0
endloop
endfacet
facet normal 0.0 0.0 -1.0
outer loop
vertex 0.433457743241485 2.46213614262575 0.0
vertex 1.94412679364642e-16 3.175 0.0
vertex 0.821750468200504 3.06681449846779 0.0
endloop
endfacet
facet normal 0.0 0.0 -1.0
outer loop
vertex 0.433457743241485 2.46213614262575 0.0
vertex 0.821750468200504 3.06681449846779 0.0
vertex 1.05593575414873 2.2660537688039 0.0
endloop
endfacet
facet normal 0.0 0.0 -1.0
outer loop
vertex 1.05593575414873 2.2660537688039 0.0
vertex 0.821750468200504 3.06681449846779 0.0
vertex 1.5875 2.74963065701559 0.0
endloop
endfacet
facet normal 0.0 0.0 -1.0
outer loop
vertex 1.05593575414873 2.2660537688039 0.0
vertex 1.5875 2.74963065701559 0.0
vertex 1.31806538352154 2.0991579517405 0.0
endloop
endfacet
facet normal 0.0 0.0 -1.0
outer loop
vertex 1.31806538352154 2.0991579517405 0.0
vertex 1.5875 2.74963065701559 0.0
vertex 1.60645348842707 1.91554357546898 0.0
endloop
endfacet
facet normal 0.0 0.0 -1.0
outer loop
vertex 1.60645348842707 1.91554357546898 0.0
vertex 1.5875 2.74963065701559 0.0
vertex 2.24506403026729 2.24506403026729 0.0
endloop
endfacet
facet normal 0.0 0.0 -1.0
outer loop
vertex 1.60645348842707 1.91554357546898 0.0
vertex 2.24506403026729 2.24506403026729 0.0
vertex 2.04749407225903 1.43449225305128 0.0
endloop
endfacet
facet normal 0.0 0.0 -1.0
outer loop
vertex 2.04749407225903 1.43449225305128 0.0
vertex 2.24506403026729 2.24506403026729 0.0
vertex 2.34900131871047 0.855682654198674 0.0
endloop
endfacet
facet normal 0.0 0.0 -1.0
outer loop
vertex 2.34900131871047 0.855682654198674 0.0
vertex 2.24506403026729 2.24506403026729 0.0
vertex 2.74963065701559 1.5875 0.0
endloop
endfacet
facet normal 0.0 0.0 -1.0
outer loop
vertex 2.34900131871047 0.855682654198674 0.0
vertex 2.74963065701559 1.5875 0.0
vertex 2.49042800720001 0.218559696544873 0.0
endloop
endfacet
facet normal 0.0 0.0 -1.0
outer loop
vertex 2.49042800720001 0.218559696544873 0.0
vertex 2.74963065701559 1.5875 0.0
vertex 2.74963065701559 -1.5875 0.0
endloop
endfacet
facet normal 0.0 0.0 -1.0
outer loop
vertex 2.74963065701559 -1.5875 0.0
vertex 2.74963065701559 1.5875 0.0
vertex 3.06681449846779 -0.821750468200506 0.0
endloop
endfacet
facet normal 0.0 0.0 -1.0
outer loop
vertex 3.06681449846779 -0.821750468200506 0.0
vertex 2.74963065701559 1.5875 0.0
vertex 3.06681449846779 0.821750468200503 0.0
endloop
endfacet
facet normal 0.0 0.0 -1.0
outer loop
vertex 3.06681449846779 -0.821750468200506 0.0
vertex 3.06681449846779 0.821750468200503 0.0
vertex 3.175 0.0 0.0
endloop
endfacet
facet normal 0.0 0.0 -1.0
outer loop
vertex -3.06681449846779 0.821750468200504 0.0
vertex -3.06681449846779 -0.821750468200502 0.0
vertex -3.175 3.88825358729285e-16 0.0
endloop
endfacet
facet normal 0.0 0.0 -1.0
outer loop
vertex -3.06681449846779 -0.821750468200502 0.0
vertex -3.06681449846779 0.821750468200504 0.0
vertex -2.74963065701559 -1.5875 0.0
endloop
endfacet
facet normal 0.0 0.0 -1.0
outer loop
vertex -2.74963065701559 -1.5875 0.0
vertex -3.06681449846779 0.821750468200504 0.0
vertex -2.74963065701559 1.5875 0.0
endloop
endfacet
facet normal 0.0 0.0 -1.0
outer loop
vertex -2.74963065701559 -1.5875 0.0
vertex -2.74963065701559 1.5875 0.0
vertex -2.24506403026729 -2.24506403026729 0.0
endloop
endfacet
facet normal 0.0 0.0 -1.0
outer loop
vertex -2.24506403026729 -2.24506403026729 0.0
vertex -2.74963065701559 1.5875 0.0
vertex -2.49042800720001 -0.218559696544874 0.0
endloop
endfacet
facet normal 0.0 0.0 -1.0
outer loop
vertex -2.24506403026729 -2.24506403026729 0.0
vertex -2.49042800720001 -0.218559696544874 0.0
vertex -2.34900131871047 -0.855682654198675 0.0
endloop
endfacet
facet normal 0.0 0.0 -1.0
outer loop
vertex -2.24506403026729 -2.24506403026729 0.0
vertex -2.34900131871047 -0.855682654198675 0.0
vertex -2.04749407225903 -1.43449225305128 0.0
endloop
endfacet
facet normal 0.0 0.0 -1.0
outer loop
vertex -2.24506403026729 -2.24506403026729 0.0
vertex -2.04749407225903 -1.43449225305128 0.0
vertex -1.5875 -2.74963065701559 0.0
endloop
endfacet
facet normal 0.0 0.0 -1.0
outer loop
vertex -1.5875 -2.74963065701559 0.0
vertex -2.04749407225903 -1.43449225305128 0.0
vertex -1.60645348842707 -1.91554357546898 0.0
endloop
endfacet
facet normal 0.0 0.0 -1.0
outer loop
vertex -1.5875 -2.74963065701559 0.0
vertex -1.60645348842707 -1.91554357546898 0.0
vertex -1.05593575414873 -2.2660537688039 0.0
endloop
endfacet
facet normal 0.0 0.0 -1.0
outer loop
vertex -1.5875 -2.74963065701559 0.0
vertex -1.05593575414873 -2.2660537688039 0.0
vertex -0.821750468200506 -3.06681449846779 0.0
endloop
endfacet
facet normal 0.0 0.0 -1.0
outer loop
vertex -0.821750468200506 -3.06681449846779 0.0
vertex -1.05593575414873 -2.2660537688039 0.0
vertex -0.555376694139087 -2.42373132046821 0.0
endloop
endfacet
facet normal 0.0 0.0 -1.0
outer loop
vertex -0.821750468200506 -3.06681449846779 0.0
vertex -0.555376694139087 -2.42373132046821 0.0
vertex -5.83238038093927e-16 -3.175 0.0
endloop
endfacet
facet normal 0.0 0.0 -1.0
outer loop
vertex -5.83238038093927e-16 -3.175 0.0
vertex -0.555376694139087 -2.42373132046821 0.0
vertex -0.433457743241485 -2.46213614262575 0.0
endloop
endfacet
facet normal 0.0 0.0 -1.0
outer loop
vertex -5.83238038093927e-16 -3.175 0.0
vertex -0.433457743241485 -2.46213614262575 0.0
vertex 0.218559696544873 -2.49042800720001 0.0
endloop
endfacet
facet normal 0.0 0.0 -1.0
outer loop
vertex -5.83238038093927e-16 -3.175 0.0
vertex 0.218559696544873 -2.49042800720001 0.0
vertex 0.821750468200502 -3.06681449846779 0.0
endloop
endfacet
facet normal 0.0 0.0 -1.0
outer loop
vertex 0.821750468200502 -3.06681449846779 0.0
vertex 0.218559696544873 -2.49042800720001 0.0
vertex 0.855682654198675 -2.34900131871047 0.0
endloop
endfacet
facet normal 0.0 0.0 -1.0
outer loop
vertex 0.821750468200502 -3.06681449846779 0.0
vertex 0.855682654198675 -2.34900131871047 0.0
vertex 1.5875 -2.74963065701559 0.0
endloop
endfacet
facet normal 0.0 0.0 -1.0
outer loop
vertex 1.5875 -2.74963065701559 0.0
vertex 0.855682654198675 -2.34900131871047 0.0
vertex 1.43449225305128 -2.04749407225903 0.0
endloop
endfacet
facet normal 0.0 0.0 -1.0
outer loop
vertex 1.5875 -2.74963065701559 0.0
vertex 1.43449225305128 -2.04749407225903 0.0
vertex 1.91554357546898 -1.60645348842707 0.0
endloop
endfacet
facet normal 0.0 0.0 -1.0
outer loop
vertex 1.5875 -2.74963065701559 0.0
vertex 1.91554357546898 -1.60645348842707 0.0
vertex 2.24506403026729 -2.24506403026729 0.0
endloop
endfacet
facet normal 0.0 0.0 -1.0
outer loop
vertex 2.24506403026729 -2.24506403026729 0.0
vertex 1.91554357546898 -1.60645348842707 0.0
vertex 2.2660537688039 -1.05593575414873 0.0
endloop
endfacet
facet normal 0.0 0.0 -1.0
outer loop
vertex 2.24506403026729 -2.24506403026729 0.0
vertex 2.2660537688039 -1.05593575414873 0.0
vertex 2.74963065701559 -1.5875 0.0
endloop
endfacet
facet normal 0.0 0.0 -1.0
outer loop
vertex 2.74963065701559 -1.5875 0.0
vertex 2.2660537688039 -1.05593575414873 0.0
vertex 2.46213614262575 -0.433457743241485 0.0
endloop
endfacet
facet normal 0.0 0.0 -1.0
outer loop
vertex 2.74963065701559 -1.5875 0.0
vertex 2.46213614262575 -0.433457743241485 0.0
vertex 2.49042800720001 0.218559696544873 0.0
endloop
endfacet
endsolid model
