solid Default
  facet normal 0.000000e+00 1.000000e+00 0.000000e+00
    outer loop
      vertex -9.525000e+00 2.095500e+01 6.350000e+00
      vertex -3.175000e+00 2.095500e+01 0.000000e+00
      vertex -9.525000e+00 2.095500e+01 0.000000e+00
    endloop
  endfacet
  facet normal 0.000000e+00 1.000000e+00 0.000000e+00
    outer loop
      vertex -3.175000e+00 2.095500e+01 0.000000e+00
      vertex -9.525000e+00 2.095500e+01 6.350000e+00
      vertex -3.175000e+00 2.095500e+01 6.350000e+00
    endloop
  endfacet
  facet normal 0.000000e+00 0.000000e+00 1.000000e+00
    outer loop
      vertex -3.175000e+00 -2.095500e+01 6.350000e+00
      vertex -9.525000e+00 2.095500e+01 6.350000e+00
      vertex -9.525000e+00 -2.095500e+01 6.350000e+00
    endloop
  endfacet
  facet normal 0.000000e+00 0.000000e+00 1.000000e+00
    outer loop
      vertex -9.525000e+00 2.095500e+01 6.350000e+00
      vertex -3.175000e+00 -2.095500e+01 6.350000e+00
      vertex -3.175000e+00 2.095500e+01 6.350000e+00
    endloop
  endfacet
  facet normal -0.000000e+00 -1.000000e+00 -0.000000e+00
    outer loop
      vertex -3.175000e+00 -2.095500e+01 6.350000e+00
      vertex -9.525000e+00 -2.095500e+01 0.000000e+00
      vertex -3.175000e+00 -2.095500e+01 0.000000e+00
    endloop
  endfacet
  facet normal -0.000000e+00 -1.000000e+00 -0.000000e+00
    outer loop
      vertex -9.525000e+00 -2.095500e+01 0.000000e+00
      vertex -3.175000e+00 -2.095500e+01 6.350000e+00
      vertex -9.525000e+00 -2.095500e+01 6.350000e+00
    endloop
  endfacet
  facet normal 0.000000e+00 0.000000e+00 -1.000000e+00
    outer loop
      vertex -3.175000e+00 2.095500e+01 0.000000e+00
      vertex -9.525000e+00 -2.095500e+01 0.000000e+00
      vertex -9.525000e+00 2.095500e+01 0.000000e+00
    endloop
  endfacet
  facet normal 0.000000e+00 0.000000e+00 -1.000000e+00
    outer loop
      vertex -9.525000e+00 -2.095500e+01 0.000000e+00
      vertex -3.175000e+00 2.095500e+01 0.000000e+00
      vertex -3.175000e+00 -2.095500e+01 0.000000e+00
    endloop
  endfacet
  facet normal 1.000000e+00 0.000000e+00 0.000000e+00
    outer loop
      vertex -3.175000e+00 2.095500e+01 0.000000e+00
      vertex -3.175000e+00 -2.095500e+01 6.350000e+00
      vertex -3.175000e+00 -2.095500e+01 0.000000e+00
    endloop
  endfacet
  facet normal 1.000000e+00 0.000000e+00 0.000000e+00
    outer loop
      vertex -3.175000e+00 -2.095500e+01 6.350000e+00
      vertex -3.175000e+00 2.095500e+01 0.000000e+00
      vertex -3.175000e+00 2.095500e+01 6.350000e+00
    endloop
  endfacet
  facet normal -1.000000e+00 0.000000e+00 0.000000e+00
    outer loop
      vertex -9.525000e+00 2.095500e+01 6.350000e+00
      vertex -9.525000e+00 -2.095500e+01 0.000000e+00
      vertex -9.525000e+00 -2.095500e+01 6.350000e+00
    endloop
  endfacet
  facet normal -1.000000e+00 0.000000e+00 0.000000e+00
    outer loop
      vertex -9.525000e+00 -2.095500e+01 0.000000e+00
      vertex -9.525000e+00 2.095500e+01 6.350000e+00
      vertex -9.525000e+00 2.095500e+01 0.000000e+00
    endloop
  endfacet
  facet normal 0.000000e+00 1.000000e+00 0.000000e+00
    outer loop
      vertex 3.175000e+00 2.095500e+01 6.350000e+00
      vertex 9.525000e+00 2.095500e+01 0.000000e+00
      vertex 3.175000e+00 2.095500e+01 0.000000e+00
    endloop
  endfacet
  facet normal 0.000000e+00 1.000000e+00 0.000000e+00
    outer loop
      vertex 9.525000e+00 2.095500e+01 0.000000e+00
      vertex 3.175000e+00 2.095500e+01 6.350000e+00
      vertex 9.525000e+00 2.095500e+01 6.350000e+00
    endloop
  endfacet
  facet normal 0.000000e+00 0.000000e+00 1.000000e+00
    outer loop
      vertex 9.525000e+00 -2.095500e+01 6.350000e+00
      vertex 3.175000e+00 2.095500e+01 6.350000e+00
      vertex 3.175000e+00 -2.095500e+01 6.350000e+00
    endloop
  endfacet
  facet normal 0.000000e+00 0.000000e+00 1.000000e+00
    outer loop
      vertex 3.175000e+00 2.095500e+01 6.350000e+00
      vertex 9.525000e+00 -2.095500e+01 6.350000e+00
      vertex 9.525000e+00 2.095500e+01 6.350000e+00
    endloop
  endfacet
  facet normal -0.000000e+00 -1.000000e+00 -0.000000e+00
    outer loop
      vertex 9.525000e+00 -2.095500e+01 6.350000e+00
      vertex 3.175000e+00 -2.095500e+01 0.000000e+00
      vertex 9.525000e+00 -2.095500e+01 0.000000e+00
    endloop
  endfacet
  facet normal -0.000000e+00 -1.000000e+00 -0.000000e+00
    outer loop
      vertex 3.175000e+00 -2.095500e+01 0.000000e+00
      vertex 9.525000e+00 -2.095500e+01 6.350000e+00
      vertex 3.175000e+00 -2.095500e+01 6.350000e+00
    endloop
  endfacet
  facet normal 0.000000e+00 0.000000e+00 -1.000000e+00
    outer loop
      vertex 9.525000e+00 2.095500e+01 0.000000e+00
      vertex 3.175000e+00 -2.095500e+01 0.000000e+00
      vertex 3.175000e+00 2.095500e+01 0.000000e+00
    endloop
  endfacet
  facet normal 0.000000e+00 0.000000e+00 -1.000000e+00
    outer loop
      vertex 3.175000e+00 -2.095500e+01 0.000000e+00
      vertex 9.525000e+00 2.095500e+01 0.000000e+00
      vertex 9.525000e+00 -2.095500e+01 0.000000e+00
    endloop
  endfacet
  facet normal 1.000000e+00 0.000000e+00 0.000000e+00
    outer loop
      vertex 9.525000e+00 2.095500e+01 0.000000e+00
      vertex 9.525000e+00 -2.095500e+01 6.350000e+00
      vertex 9.525000e+00 -2.095500e+01 0.000000e+00
    endloop
  endfacet
  facet normal 1.000000e+00 0.000000e+00 0.000000e+00
    outer loop
      vertex 9.525000e+00 -2.095500e+01 6.350000e+00
      vertex 9.525000e+00 2.095500e+01 0.000000e+00
      vertex 9.525000e+00 2.095500e+01 6.350000e+00
    endloop
  endfacet
  facet normal -1.000000e+00 0.000000e+00 0.000000e+00
    outer loop
      vertex 3.175000e+00 2.095500e+01 6.350000e+00
      vertex 3.175000e+00 -2.095500e+01 0.000000e+00
      vertex 3.175000e+00 -2.095500e+01 6.350000e+00
    endloop
  endfacet
  facet normal -1.000000e+00 0.000000e+00 0.000000e+00
    outer loop
      vertex 3.175000e+00 -2.095500e+01 0.000000e+00
      vertex 3.175000e+00 2.095500e+01 6.350000e+00
      vertex 3.175000e+00 2.095500e+01 0.000000e+00
    endloop
  endfacet
endsolid Default
