solid Default
  facet normal -6.123234e-17 0.000000e+00 1.000000e+00
    outer loop
      vertex 5.873750e+01 6.350002e+00 9.525000e+00
      vertex 5.550841e+01 2.369982e+01 9.525000e+00
      vertex 4.921250e+01 6.350002e+00 9.525000e+00
    endloop
  endfacet
  facet normal -6.123234e-17 0.000000e+00 1.000000e+00
    outer loop
      vertex 5.550841e+01 2.369982e+01 9.525000e+00
      vertex 5.873750e+01 6.350002e+00 9.525000e+00
      vertex 5.873750e+01 3.492500e+01 9.525000e+00
    endloop
  endfacet
  facet normal -6.123234e-17 0.000000e+00 1.000000e+00
    outer loop
      vertex 4.921250e+01 6.350002e+00 9.525000e+00
      vertex 5.550841e+01 2.369982e+01 9.525000e+00
      vertex 5.534982e+01 2.331695e+01 9.525000e+00
    endloop
  endfacet
  facet normal -6.123234e-17 0.000000e+00 1.000000e+00
    outer loop
      vertex 4.921250e+01 6.350002e+00 9.525000e+00
      vertex 5.534982e+01 2.331695e+01 9.525000e+00
      vertex 5.509753e+01 2.298817e+01 9.525000e+00
    endloop
  endfacet
  facet normal -6.123234e-17 0.000000e+00 1.000000e+00
    outer loop
      vertex 4.921250e+01 6.350002e+00 9.525000e+00
      vertex 5.509753e+01 2.298817e+01 9.525000e+00
      vertex 4.921250e+01 1.587500e+01 9.525000e+00
    endloop
  endfacet
  facet normal -6.123234e-17 0.000000e+00 1.000000e+00
    outer loop
      vertex 4.921250e+01 1.587500e+01 9.525000e+00
      vertex 5.509753e+01 2.298817e+01 9.525000e+00
      vertex 5.476875e+01 2.273588e+01 9.525000e+00
    endloop
  endfacet
  facet normal -6.123234e-17 0.000000e+00 1.000000e+00
    outer loop
      vertex 4.921250e+01 1.587500e+01 9.525000e+00
      vertex 5.476875e+01 2.273588e+01 9.525000e+00
      vertex 5.438588e+01 2.257729e+01 9.525000e+00
    endloop
  endfacet
  facet normal -6.123234e-17 0.000000e+00 1.000000e+00
    outer loop
      vertex 4.921250e+01 1.587500e+01 9.525000e+00
      vertex 5.438588e+01 2.257729e+01 9.525000e+00
      vertex 5.397500e+01 2.252320e+01 9.525000e+00
    endloop
  endfacet
  facet normal -6.123234e-17 0.000000e+00 1.000000e+00
    outer loop
      vertex 5.550841e+01 2.369982e+01 9.525000e+00
      vertex 5.873750e+01 3.492500e+01 9.525000e+00
      vertex 5.556250e+01 2.411070e+01 9.525000e+00
    endloop
  endfacet
  facet normal -6.123234e-17 0.000000e+00 1.000000e+00
    outer loop
      vertex 5.556250e+01 2.411070e+01 9.525000e+00
      vertex 5.873750e+01 3.492500e+01 9.525000e+00
      vertex 5.550841e+01 2.452157e+01 9.525000e+00
    endloop
  endfacet
  facet normal -6.123234e-17 0.000000e+00 1.000000e+00
    outer loop
      vertex 5.550841e+01 2.452157e+01 9.525000e+00
      vertex 5.873750e+01 3.492500e+01 9.525000e+00
      vertex 5.534982e+01 2.490445e+01 9.525000e+00
    endloop
  endfacet
  facet normal -6.123234e-17 0.000000e+00 1.000000e+00
    outer loop
      vertex 5.534982e+01 2.490445e+01 9.525000e+00
      vertex 5.873750e+01 3.492500e+01 9.525000e+00
      vertex 5.509753e+01 2.523323e+01 9.525000e+00
    endloop
  endfacet
  facet normal -6.123234e-17 0.000000e+00 1.000000e+00
    outer loop
      vertex 5.509753e+01 2.523323e+01 9.525000e+00
      vertex 5.873750e+01 3.492500e+01 9.525000e+00
      vertex 5.476875e+01 2.548551e+01 9.525000e+00
    endloop
  endfacet
  facet normal -6.123234e-17 0.000000e+00 1.000000e+00
    outer loop
      vertex 5.476875e+01 2.548551e+01 9.525000e+00
      vertex 5.873750e+01 3.492500e+01 9.525000e+00
      vertex 5.438588e+01 2.564410e+01 9.525000e+00
    endloop
  endfacet
  facet normal -6.123234e-17 0.000000e+00 1.000000e+00
    outer loop
      vertex 5.438588e+01 2.564410e+01 9.525000e+00
      vertex 5.873750e+01 3.492500e+01 9.525000e+00
      vertex 5.397500e+01 2.569820e+01 9.525000e+00
    endloop
  endfacet
  facet normal -6.123234e-17 0.000000e+00 1.000000e+00
    outer loop
      vertex 5.397500e+01 2.569820e+01 9.525000e+00
      vertex 5.873750e+01 3.492500e+01 9.525000e+00
      vertex 5.509753e+01 3.048123e+01 9.525000e+00
    endloop
  endfacet
  facet normal -6.123234e-17 0.000000e+00 1.000000e+00
    outer loop
      vertex 5.397500e+01 2.569820e+01 9.525000e+00
      vertex 5.509753e+01 3.048123e+01 9.525000e+00
      vertex 5.476875e+01 3.022894e+01 9.525000e+00
    endloop
  endfacet
  facet normal -6.123234e-17 0.000000e+00 1.000000e+00
    outer loop
      vertex 5.397500e+01 2.569820e+01 9.525000e+00
      vertex 5.476875e+01 3.022894e+01 9.525000e+00
      vertex 5.472863e+01 3.021232e+01 9.525000e+00
    endloop
  endfacet
  facet normal -6.123234e-17 0.000000e+00 1.000000e+00
    outer loop
      vertex 5.397500e+01 2.569820e+01 9.525000e+00
      vertex 5.472863e+01 3.021232e+01 9.525000e+00
      vertex 5.438588e+01 3.007035e+01 9.525000e+00
    endloop
  endfacet
  facet normal -6.123234e-17 0.000000e+00 1.000000e+00
    outer loop
      vertex 5.397500e+01 2.569820e+01 9.525000e+00
      vertex 5.438588e+01 3.007035e+01 9.525000e+00
      vertex 5.434282e+01 3.006469e+01 9.525000e+00
    endloop
  endfacet
  facet normal -6.123234e-17 0.000000e+00 1.000000e+00
    outer loop
      vertex 5.397500e+01 2.569820e+01 9.525000e+00
      vertex 5.434282e+01 3.006469e+01 9.525000e+00
      vertex 5.397500e+01 3.001625e+01 9.525000e+00
    endloop
  endfacet
  facet normal -6.123234e-17 0.000000e+00 1.000000e+00
    outer loop
      vertex 5.476875e+01 3.022894e+01 9.525000e+00
      vertex 5.509753e+01 3.048123e+01 9.525000e+00
      vertex 5.506308e+01 3.045479e+01 9.525000e+00
    endloop
  endfacet
  facet normal -6.123234e-17 0.000000e+00 1.000000e+00
    outer loop
      vertex 5.509753e+01 3.048123e+01 9.525000e+00
      vertex 5.873750e+01 3.492500e+01 9.525000e+00
      vertex 5.532338e+01 3.077556e+01 9.525000e+00
    endloop
  endfacet
  facet normal -6.123234e-17 0.000000e+00 1.000000e+00
    outer loop
      vertex 5.532338e+01 3.077556e+01 9.525000e+00
      vertex 5.873750e+01 3.492500e+01 9.525000e+00
      vertex 5.534982e+01 3.081001e+01 9.525000e+00
    endloop
  endfacet
  facet normal -6.123234e-17 0.000000e+00 1.000000e+00
    outer loop
      vertex 5.534982e+01 3.081001e+01 9.525000e+00
      vertex 5.873750e+01 3.492500e+01 9.525000e+00
      vertex 5.549179e+01 3.115277e+01 9.525000e+00
    endloop
  endfacet
  facet normal -6.123234e-17 0.000000e+00 1.000000e+00
    outer loop
      vertex 5.549179e+01 3.115277e+01 9.525000e+00
      vertex 5.873750e+01 3.492500e+01 9.525000e+00
      vertex 5.550841e+01 3.119288e+01 9.525000e+00
    endloop
  endfacet
  facet normal -6.123234e-17 0.000000e+00 1.000000e+00
    outer loop
      vertex 5.550841e+01 3.119288e+01 9.525000e+00
      vertex 5.873750e+01 3.492500e+01 9.525000e+00
      vertex 5.555684e+01 3.156071e+01 9.525000e+00
    endloop
  endfacet
  facet normal -6.123234e-17 0.000000e+00 1.000000e+00
    outer loop
      vertex 5.555684e+01 3.156071e+01 9.525000e+00
      vertex 5.873750e+01 3.492500e+01 9.525000e+00
      vertex 5.556250e+01 3.160376e+01 9.525000e+00
    endloop
  endfacet
  facet normal -6.123234e-17 0.000000e+00 1.000000e+00
    outer loop
      vertex 5.556250e+01 3.160376e+01 9.525000e+00
      vertex 5.873750e+01 3.492500e+01 9.525000e+00
      vertex 5.551407e+01 3.197158e+01 9.525000e+00
    endloop
  endfacet
  facet normal -6.123234e-17 0.000000e+00 1.000000e+00
    outer loop
      vertex 5.551407e+01 3.197158e+01 9.525000e+00
      vertex 5.873750e+01 3.492500e+01 9.525000e+00
      vertex 5.550841e+01 3.201463e+01 9.525000e+00
    endloop
  endfacet
  facet normal -6.123234e-17 0.000000e+00 1.000000e+00
    outer loop
      vertex 5.550841e+01 3.201463e+01 9.525000e+00
      vertex 5.873750e+01 3.492500e+01 9.525000e+00
      vertex 5.536644e+01 3.235740e+01 9.525000e+00
    endloop
  endfacet
  facet normal -6.123234e-17 0.000000e+00 1.000000e+00
    outer loop
      vertex 5.536644e+01 3.235740e+01 9.525000e+00
      vertex 5.873750e+01 3.492500e+01 9.525000e+00
      vertex 5.534982e+01 3.239751e+01 9.525000e+00
    endloop
  endfacet
  facet normal -6.123234e-17 0.000000e+00 1.000000e+00
    outer loop
      vertex 5.534982e+01 3.239751e+01 9.525000e+00
      vertex 5.873750e+01 3.492500e+01 9.525000e+00
      vertex 5.512397e+01 3.269184e+01 9.525000e+00
    endloop
  endfacet
  facet normal -6.123234e-17 0.000000e+00 1.000000e+00
    outer loop
      vertex 5.512397e+01 3.269184e+01 9.525000e+00
      vertex 5.873750e+01 3.492500e+01 9.525000e+00
      vertex 5.509753e+01 3.272629e+01 9.525000e+00
    endloop
  endfacet
  facet normal -6.123234e-17 0.000000e+00 1.000000e+00
    outer loop
      vertex 5.509753e+01 3.272629e+01 9.525000e+00
      vertex 5.873750e+01 3.492500e+01 9.525000e+00
      vertex 5.480320e+01 3.295214e+01 9.525000e+00
    endloop
  endfacet
  facet normal -6.123234e-17 0.000000e+00 1.000000e+00
    outer loop
      vertex 5.480320e+01 3.295214e+01 9.525000e+00
      vertex 5.873750e+01 3.492500e+01 9.525000e+00
      vertex 5.476875e+01 3.297857e+01 9.525000e+00
    endloop
  endfacet
  facet normal -6.123234e-17 0.000000e+00 1.000000e+00
    outer loop
      vertex 5.476875e+01 3.297857e+01 9.525000e+00
      vertex 5.873750e+01 3.492500e+01 9.525000e+00
      vertex 5.442599e+01 3.312055e+01 9.525000e+00
    endloop
  endfacet
  facet normal -6.123234e-17 0.000000e+00 1.000000e+00
    outer loop
      vertex 5.442599e+01 3.312055e+01 9.525000e+00
      vertex 5.873750e+01 3.492500e+01 9.525000e+00
      vertex 5.438588e+01 3.313717e+01 9.525000e+00
    endloop
  endfacet
  facet normal -6.123234e-17 0.000000e+00 1.000000e+00
    outer loop
      vertex 5.438588e+01 3.313717e+01 9.525000e+00
      vertex 5.873750e+01 3.492500e+01 9.525000e+00
      vertex 5.401805e+01 3.318559e+01 9.525000e+00
    endloop
  endfacet
  facet normal -6.123234e-17 0.000000e+00 1.000000e+00
    outer loop
      vertex 5.401805e+01 3.318559e+01 9.525000e+00
      vertex 5.873750e+01 3.492500e+01 9.525000e+00
      vertex 5.397500e+01 3.319126e+01 9.525000e+00
    endloop
  endfacet
  facet normal -6.123234e-17 0.000000e+00 1.000000e+00
    outer loop
      vertex 4.921250e+01 1.587500e+01 9.525000e+00
      vertex 5.244159e+01 2.369982e+01 9.525000e+00
      vertex 4.921250e+01 3.492500e+01 9.525000e+00
    endloop
  endfacet
  facet normal -6.123234e-17 0.000000e+00 1.000000e+00
    outer loop
      vertex 5.244159e+01 2.369982e+01 9.525000e+00
      vertex 4.921250e+01 1.587500e+01 9.525000e+00
      vertex 5.260019e+01 2.331695e+01 9.525000e+00
    endloop
  endfacet
  facet normal -6.123234e-17 0.000000e+00 1.000000e+00
    outer loop
      vertex 5.260019e+01 2.331695e+01 9.525000e+00
      vertex 4.921250e+01 1.587500e+01 9.525000e+00
      vertex 5.285247e+01 2.298817e+01 9.525000e+00
    endloop
  endfacet
  facet normal -6.123234e-17 0.000000e+00 1.000000e+00
    outer loop
      vertex 5.285247e+01 2.298817e+01 9.525000e+00
      vertex 4.921250e+01 1.587500e+01 9.525000e+00
      vertex 5.318125e+01 2.273588e+01 9.525000e+00
    endloop
  endfacet
  facet normal -6.123234e-17 0.000000e+00 1.000000e+00
    outer loop
      vertex 5.318125e+01 2.273588e+01 9.525000e+00
      vertex 4.921250e+01 1.587500e+01 9.525000e+00
      vertex 5.356413e+01 2.257729e+01 9.525000e+00
    endloop
  endfacet
  facet normal -6.123234e-17 0.000000e+00 1.000000e+00
    outer loop
      vertex 5.356413e+01 2.257729e+01 9.525000e+00
      vertex 4.921250e+01 1.587500e+01 9.525000e+00
      vertex 5.397500e+01 2.252320e+01 9.525000e+00
    endloop
  endfacet
  facet normal -6.123234e-17 0.000000e+00 1.000000e+00
    outer loop
      vertex 4.921250e+01 3.492500e+01 9.525000e+00
      vertex 5.244159e+01 2.369982e+01 9.525000e+00
      vertex 5.238750e+01 2.411070e+01 9.525000e+00
    endloop
  endfacet
  facet normal -6.123234e-17 0.000000e+00 1.000000e+00
    outer loop
      vertex 4.921250e+01 3.492500e+01 9.525000e+00
      vertex 5.238750e+01 2.411070e+01 9.525000e+00
      vertex 5.244159e+01 2.452157e+01 9.525000e+00
    endloop
  endfacet
  facet normal -6.123234e-17 0.000000e+00 1.000000e+00
    outer loop
      vertex 4.921250e+01 3.492500e+01 9.525000e+00
      vertex 5.244159e+01 2.452157e+01 9.525000e+00
      vertex 5.260019e+01 2.490445e+01 9.525000e+00
    endloop
  endfacet
  facet normal -6.123234e-17 0.000000e+00 1.000000e+00
    outer loop
      vertex 4.921250e+01 3.492500e+01 9.525000e+00
      vertex 5.260019e+01 2.490445e+01 9.525000e+00
      vertex 5.285247e+01 2.523323e+01 9.525000e+00
    endloop
  endfacet
  facet normal -6.123234e-17 0.000000e+00 1.000000e+00
    outer loop
      vertex 4.921250e+01 3.492500e+01 9.525000e+00
      vertex 5.285247e+01 2.523323e+01 9.525000e+00
      vertex 5.318125e+01 2.548551e+01 9.525000e+00
    endloop
  endfacet
  facet normal -6.123234e-17 0.000000e+00 1.000000e+00
    outer loop
      vertex 4.921250e+01 3.492500e+01 9.525000e+00
      vertex 5.318125e+01 2.548551e+01 9.525000e+00
      vertex 5.356413e+01 2.564410e+01 9.525000e+00
    endloop
  endfacet
  facet normal -6.123234e-17 0.000000e+00 1.000000e+00
    outer loop
      vertex 4.921250e+01 3.492500e+01 9.525000e+00
      vertex 5.356413e+01 2.564410e+01 9.525000e+00
      vertex 5.397500e+01 2.569820e+01 9.525000e+00
    endloop
  endfacet
  facet normal -6.123234e-17 0.000000e+00 1.000000e+00
    outer loop
      vertex 4.921250e+01 3.492500e+01 9.525000e+00
      vertex 5.397500e+01 2.569820e+01 9.525000e+00
      vertex 5.285247e+01 3.048123e+01 9.525000e+00
    endloop
  endfacet
  facet normal -6.123234e-17 0.000000e+00 1.000000e+00
    outer loop
      vertex 5.285247e+01 3.048123e+01 9.525000e+00
      vertex 5.397500e+01 2.569820e+01 9.525000e+00
      vertex 5.318125e+01 3.022894e+01 9.525000e+00
    endloop
  endfacet
  facet normal -6.123234e-17 0.000000e+00 1.000000e+00
    outer loop
      vertex 5.318125e+01 3.022894e+01 9.525000e+00
      vertex 5.397500e+01 2.569820e+01 9.525000e+00
      vertex 5.352401e+01 3.008696e+01 9.525000e+00
    endloop
  endfacet
  facet normal -6.123234e-17 0.000000e+00 1.000000e+00
    outer loop
      vertex 5.352401e+01 3.008696e+01 9.525000e+00
      vertex 5.397500e+01 2.569820e+01 9.525000e+00
      vertex 5.356413e+01 3.007035e+01 9.525000e+00
    endloop
  endfacet
  facet normal -6.123234e-17 0.000000e+00 1.000000e+00
    outer loop
      vertex 5.356413e+01 3.007035e+01 9.525000e+00
      vertex 5.397500e+01 2.569820e+01 9.525000e+00
      vertex 5.397500e+01 3.001625e+01 9.525000e+00
    endloop
  endfacet
  facet normal -6.123234e-17 0.000000e+00 1.000000e+00
    outer loop
      vertex 5.356413e+01 3.007035e+01 9.525000e+00
      vertex 5.397500e+01 3.001625e+01 9.525000e+00
      vertex 5.393195e+01 3.002192e+01 9.525000e+00
    endloop
  endfacet
  facet normal -6.123234e-17 0.000000e+00 1.000000e+00
    outer loop
      vertex 5.285247e+01 3.048123e+01 9.525000e+00
      vertex 5.318125e+01 3.022894e+01 9.525000e+00
      vertex 5.314680e+01 3.025537e+01 9.525000e+00
    endloop
  endfacet
  facet normal -6.123234e-17 0.000000e+00 1.000000e+00
    outer loop
      vertex 4.921250e+01 3.492500e+01 9.525000e+00
      vertex 5.285247e+01 3.048123e+01 9.525000e+00
      vertex 5.282604e+01 3.051567e+01 9.525000e+00
    endloop
  endfacet
  facet normal -6.123234e-17 0.000000e+00 1.000000e+00
    outer loop
      vertex 4.921250e+01 3.492500e+01 9.525000e+00
      vertex 5.282604e+01 3.051567e+01 9.525000e+00
      vertex 5.260019e+01 3.081001e+01 9.525000e+00
    endloop
  endfacet
  facet normal -6.123234e-17 0.000000e+00 1.000000e+00
    outer loop
      vertex 4.921250e+01 3.492500e+01 9.525000e+00
      vertex 5.260019e+01 3.081001e+01 9.525000e+00
      vertex 5.258357e+01 3.085012e+01 9.525000e+00
    endloop
  endfacet
  facet normal -6.123234e-17 0.000000e+00 1.000000e+00
    outer loop
      vertex 4.921250e+01 3.492500e+01 9.525000e+00
      vertex 5.258357e+01 3.085012e+01 9.525000e+00
      vertex 5.244159e+01 3.119288e+01 9.525000e+00
    endloop
  endfacet
  facet normal -6.123234e-17 0.000000e+00 1.000000e+00
    outer loop
      vertex 4.921250e+01 3.492500e+01 9.525000e+00
      vertex 5.244159e+01 3.119288e+01 9.525000e+00
      vertex 5.243592e+01 3.123594e+01 9.525000e+00
    endloop
  endfacet
  facet normal -6.123234e-17 0.000000e+00 1.000000e+00
    outer loop
      vertex 4.921250e+01 3.492500e+01 9.525000e+00
      vertex 5.243592e+01 3.123594e+01 9.525000e+00
      vertex 5.238750e+01 3.160376e+01 9.525000e+00
    endloop
  endfacet
  facet normal -6.123234e-17 0.000000e+00 1.000000e+00
    outer loop
      vertex 4.921250e+01 3.492500e+01 9.525000e+00
      vertex 5.238750e+01 3.160376e+01 9.525000e+00
      vertex 5.239317e+01 3.164681e+01 9.525000e+00
    endloop
  endfacet
  facet normal -6.123234e-17 0.000000e+00 1.000000e+00
    outer loop
      vertex 4.921250e+01 3.492500e+01 9.525000e+00
      vertex 5.239317e+01 3.164681e+01 9.525000e+00
      vertex 5.244159e+01 3.201463e+01 9.525000e+00
    endloop
  endfacet
  facet normal -6.123234e-17 0.000000e+00 1.000000e+00
    outer loop
      vertex 4.921250e+01 3.492500e+01 9.525000e+00
      vertex 5.244159e+01 3.201463e+01 9.525000e+00
      vertex 5.245821e+01 3.205474e+01 9.525000e+00
    endloop
  endfacet
  facet normal -6.123234e-17 0.000000e+00 1.000000e+00
    outer loop
      vertex 4.921250e+01 3.492500e+01 9.525000e+00
      vertex 5.245821e+01 3.205474e+01 9.525000e+00
      vertex 5.260019e+01 3.239751e+01 9.525000e+00
    endloop
  endfacet
  facet normal -6.123234e-17 0.000000e+00 1.000000e+00
    outer loop
      vertex 4.921250e+01 3.492500e+01 9.525000e+00
      vertex 5.260019e+01 3.239751e+01 9.525000e+00
      vertex 5.262662e+01 3.243196e+01 9.525000e+00
    endloop
  endfacet
  facet normal -6.123234e-17 0.000000e+00 1.000000e+00
    outer loop
      vertex 4.921250e+01 3.492500e+01 9.525000e+00
      vertex 5.262662e+01 3.243196e+01 9.525000e+00
      vertex 5.285247e+01 3.272629e+01 9.525000e+00
    endloop
  endfacet
  facet normal -6.123234e-17 0.000000e+00 1.000000e+00
    outer loop
      vertex 4.921250e+01 3.492500e+01 9.525000e+00
      vertex 5.285247e+01 3.272629e+01 9.525000e+00
      vertex 5.288691e+01 3.275272e+01 9.525000e+00
    endloop
  endfacet
  facet normal -6.123234e-17 0.000000e+00 1.000000e+00
    outer loop
      vertex 4.921250e+01 3.492500e+01 9.525000e+00
      vertex 5.288691e+01 3.275272e+01 9.525000e+00
      vertex 5.318125e+01 3.297857e+01 9.525000e+00
    endloop
  endfacet
  facet normal -6.123234e-17 0.000000e+00 1.000000e+00
    outer loop
      vertex 4.921250e+01 3.492500e+01 9.525000e+00
      vertex 5.318125e+01 3.297857e+01 9.525000e+00
      vertex 5.322136e+01 3.299519e+01 9.525000e+00
    endloop
  endfacet
  facet normal -6.123234e-17 0.000000e+00 1.000000e+00
    outer loop
      vertex 4.921250e+01 3.492500e+01 9.525000e+00
      vertex 5.322136e+01 3.299519e+01 9.525000e+00
      vertex 5.356413e+01 3.313717e+01 9.525000e+00
    endloop
  endfacet
  facet normal -6.123234e-17 0.000000e+00 1.000000e+00
    outer loop
      vertex 4.921250e+01 3.492500e+01 9.525000e+00
      vertex 5.356413e+01 3.313717e+01 9.525000e+00
      vertex 5.360717e+01 3.314283e+01 9.525000e+00
    endloop
  endfacet
  facet normal -6.123234e-17 0.000000e+00 1.000000e+00
    outer loop
      vertex 4.921250e+01 3.492500e+01 9.525000e+00
      vertex 5.360717e+01 3.314283e+01 9.525000e+00
      vertex 5.397500e+01 3.319126e+01 9.525000e+00
    endloop
  endfacet
  facet normal -6.123234e-17 0.000000e+00 1.000000e+00
    outer loop
      vertex 4.921250e+01 3.492500e+01 9.525000e+00
      vertex 5.397500e+01 3.319126e+01 9.525000e+00
      vertex 5.873750e+01 3.492500e+01 9.525000e+00
    endloop
  endfacet
  facet normal -6.123234e-17 0.000000e+00 1.000000e+00
    outer loop
      vertex 4.921250e+01 6.350002e+00 9.525000e+00
      vertex -5.873750e+01 -3.492500e+01 9.525000e+00
      vertex 4.921250e+01 -3.492500e+01 9.525000e+00
    endloop
  endfacet
  facet normal -6.123234e-17 0.000000e+00 1.000000e+00
    outer loop
      vertex -5.873750e+01 -3.492500e+01 9.525000e+00
      vertex 4.921250e+01 6.350002e+00 9.525000e+00
      vertex -5.873750e+01 1.587500e+01 9.525000e+00
    endloop
  endfacet
  facet normal -6.123234e-17 0.000000e+00 1.000000e+00
    outer loop
      vertex -5.873750e+01 1.587500e+01 9.525000e+00
      vertex 4.921250e+01 6.350002e+00 9.525000e+00
      vertex 4.921250e+01 1.587500e+01 9.525000e+00
    endloop
  endfacet
  facet normal -1.000000e+00 0.000000e+00 -6.123234e-17
    outer loop
      vertex -5.873750e+01 1.587500e+01 6.350000e+00
      vertex -5.873750e+01 -3.492500e+01 9.525000e+00
      vertex -5.873750e+01 1.587500e+01 9.525000e+00
    endloop
  endfacet
  facet normal -1.000000e+00 0.000000e+00 -6.123234e-17
    outer loop
      vertex -5.873750e+01 -3.492500e+01 9.525000e+00
      vertex -5.873750e+01 1.587500e+01 6.350000e+00
      vertex -5.873750e+01 -3.492500e+01 6.350000e+00
    endloop
  endfacet
  facet normal 0.000000e+00 -1.000000e+00 0.000000e+00
    outer loop
      vertex 4.921250e+01 -3.492500e+01 7.105427e-15
      vertex -5.873750e+01 -3.492500e+01 3.175000e+00
      vertex -5.873750e+01 -3.492500e+01 0.000000e+00
    endloop
  endfacet
  facet normal 0.000000e+00 -1.000000e+00 0.000000e+00
    outer loop
      vertex -5.873750e+01 -3.492500e+01 3.175000e+00
      vertex 4.921250e+01 -3.492500e+01 7.105427e-15
      vertex -7.937500e+00 -3.492500e+01 3.175000e+00
    endloop
  endfacet
  facet normal 0.000000e+00 -1.000000e+00 0.000000e+00
    outer loop
      vertex -7.937500e+00 -3.492500e+01 3.175000e+00
      vertex 4.921250e+01 -3.492500e+01 7.105427e-15
      vertex -7.937500e+00 -3.492500e+01 6.350000e+00
    endloop
  endfacet
  facet normal 0.000000e+00 -1.000000e+00 0.000000e+00
    outer loop
      vertex -7.937500e+00 -3.492500e+01 6.350000e+00
      vertex -5.873750e+01 -3.492500e+01 9.525000e+00
      vertex -5.873750e+01 -3.492500e+01 6.350000e+00
    endloop
  endfacet
  facet normal 0.000000e+00 -1.000000e+00 0.000000e+00
    outer loop
      vertex -5.873750e+01 -3.492500e+01 9.525000e+00
      vertex -7.937500e+00 -3.492500e+01 6.350000e+00
      vertex 4.921250e+01 -3.492500e+01 9.525000e+00
    endloop
  endfacet
  facet normal 0.000000e+00 -1.000000e+00 0.000000e+00
    outer loop
      vertex 4.921250e+01 -3.492500e+01 9.525000e+00
      vertex -7.937500e+00 -3.492500e+01 6.350000e+00
      vertex 4.921250e+01 -3.492500e+01 7.105427e-15
    endloop
  endfacet
  facet normal -1.000000e+00 0.000000e+00 -6.123234e-17
    outer loop
      vertex -7.937500e+00 1.587500e+01 3.175000e+00
      vertex -7.937500e+00 -3.492500e+01 6.350000e+00
      vertex -7.937500e+00 1.587500e+01 6.350000e+00
    endloop
  endfacet
  facet normal -1.000000e+00 0.000000e+00 -6.123234e-17
    outer loop
      vertex -7.937500e+00 -3.492500e+01 6.350000e+00
      vertex -7.937500e+00 1.587500e+01 3.175000e+00
      vertex -7.937500e+00 -3.492500e+01 3.175000e+00
    endloop
  endfacet
  facet normal -6.123234e-17 0.000000e+00 1.000000e+00
    outer loop
      vertex -7.937500e+00 1.587500e+01 6.350000e+00
      vertex -5.873750e+01 -3.492500e+01 6.350000e+00
      vertex -7.937500e+00 -3.492500e+01 6.350000e+00
    endloop
  endfacet
  facet normal -6.123234e-17 0.000000e+00 1.000000e+00
    outer loop
      vertex -5.873750e+01 -3.492500e+01 6.350000e+00
      vertex -7.937500e+00 1.587500e+01 6.350000e+00
      vertex -5.873750e+01 1.587500e+01 6.350000e+00
    endloop
  endfacet
  facet normal -6.123234e-17 0.000000e+00 1.000000e+00
    outer loop
      vertex -7.937500e+00 1.587500e+01 3.175000e+00
      vertex -5.873750e+01 -3.492500e+01 3.175000e+00
      vertex -7.937500e+00 -3.492500e+01 3.175000e+00
    endloop
  endfacet
  facet normal -6.123234e-17 0.000000e+00 1.000000e+00
    outer loop
      vertex -5.873750e+01 -3.492500e+01 3.175000e+00
      vertex -7.937500e+00 1.587500e+01 3.175000e+00
      vertex -5.873750e+01 1.587500e+01 3.175000e+00
    endloop
  endfacet
  facet normal 1.000000e+00 0.000000e+00 6.123234e-17
    outer loop
      vertex 5.873750e+01 6.350002e+00 7.105427e-15
      vertex 5.873750e+01 3.492500e+01 9.525000e+00
      vertex 5.873750e+01 6.350002e+00 9.525000e+00
    endloop
  endfacet
  facet normal 1.000000e+00 0.000000e+00 6.123234e-17
    outer loop
      vertex 5.873750e+01 3.492500e+01 9.525000e+00
      vertex 5.873750e+01 6.350002e+00 7.105427e-15
      vertex 5.873750e+01 3.492500e+01 7.105427e-15
    endloop
  endfacet
  facet normal 0.000000e+00 -1.000000e+00 0.000000e+00
    outer loop
      vertex 5.873750e+01 6.350002e+00 7.105427e-15
      vertex 4.921250e+01 6.350002e+00 9.525000e+00
      vertex 4.921250e+01 6.350002e+00 7.105427e-15
    endloop
  endfacet
  facet normal 0.000000e+00 -1.000000e+00 0.000000e+00
    outer loop
      vertex 4.921250e+01 6.350002e+00 9.525000e+00
      vertex 5.873750e+01 6.350002e+00 7.105427e-15
      vertex 5.873750e+01 6.350002e+00 9.525000e+00
    endloop
  endfacet
  facet normal 0.000000e+00 1.000000e+00 0.000000e+00
    outer loop
      vertex 4.921250e+01 1.587500e+01 9.525000e+00
      vertex -5.873750e+01 1.587500e+01 6.350000e+00
      vertex -5.873750e+01 1.587500e+01 9.525000e+00
    endloop
  endfacet
  facet normal 0.000000e+00 1.000000e+00 0.000000e+00
    outer loop
      vertex -5.873750e+01 1.587500e+01 6.350000e+00
      vertex 4.921250e+01 1.587500e+01 9.525000e+00
      vertex -7.937500e+00 1.587500e+01 6.350000e+00
    endloop
  endfacet
  facet normal 0.000000e+00 1.000000e+00 0.000000e+00
    outer loop
      vertex -7.937500e+00 1.587500e+01 6.350000e+00
      vertex 4.921250e+01 1.587500e+01 9.525000e+00
      vertex -7.937500e+00 1.587500e+01 3.175000e+00
    endloop
  endfacet
  facet normal 0.000000e+00 1.000000e+00 0.000000e+00
    outer loop
      vertex -7.937500e+00 1.587500e+01 3.175000e+00
      vertex -5.873750e+01 1.587500e+01 0.000000e+00
      vertex -5.873750e+01 1.587500e+01 3.175000e+00
    endloop
  endfacet
  facet normal 0.000000e+00 1.000000e+00 0.000000e+00
    outer loop
      vertex -5.873750e+01 1.587500e+01 0.000000e+00
      vertex -7.937500e+00 1.587500e+01 3.175000e+00
      vertex 4.921250e+01 1.587500e+01 7.105427e-15
    endloop
  endfacet
  facet normal 0.000000e+00 1.000000e+00 0.000000e+00
    outer loop
      vertex 4.921250e+01 1.587500e+01 7.105427e-15
      vertex -7.937500e+00 1.587500e+01 3.175000e+00
      vertex 4.921250e+01 1.587500e+01 9.525000e+00
    endloop
  endfacet
  facet normal 0.000000e+00 1.000000e+00 0.000000e+00
    outer loop
      vertex 5.873750e+01 3.492500e+01 9.525000e+00
      vertex 4.921250e+01 3.492500e+01 7.105427e-15
      vertex 4.921250e+01 3.492500e+01 9.525000e+00
    endloop
  endfacet
  facet normal 0.000000e+00 1.000000e+00 0.000000e+00
    outer loop
      vertex 4.921250e+01 3.492500e+01 7.105427e-15
      vertex 5.873750e+01 3.492500e+01 9.525000e+00
      vertex 5.873750e+01 3.492500e+01 7.105427e-15
    endloop
  endfacet
  facet normal -1.000000e+00 0.000000e+00 -6.123234e-17
    outer loop
      vertex 4.921250e+01 3.492500e+01 7.105427e-15
      vertex 4.921250e+01 1.587500e+01 9.525000e+00
      vertex 4.921250e+01 3.492500e+01 9.525000e+00
    endloop
  endfacet
  facet normal -1.000000e+00 0.000000e+00 -6.123234e-17
    outer loop
      vertex 4.921250e+01 1.587500e+01 9.525000e+00
      vertex 4.921250e+01 3.492500e+01 7.105427e-15
      vertex 4.921250e+01 1.587500e+01 7.105427e-15
    endloop
  endfacet
  facet normal 0.000000e+00 -1.000000e+00 0.000000e+00
    outer loop
      vertex 5.397500e+01 2.252320e+01 7.105427e-15
      vertex 5.356413e+01 2.257729e+01 9.525000e+00
      vertex 5.356413e+01 2.257729e+01 7.105427e-15
    endloop
  endfacet
  facet normal -2.588190e-01 -9.659258e-01 -1.584810e-17
    outer loop
      vertex 5.356413e+01 2.257729e+01 9.525000e+00
      vertex 5.397500e+01 2.252320e+01 7.105427e-15
      vertex 5.397500e+01 2.252320e+01 9.525000e+00
    endloop
  endfacet
  facet normal 2.588190e-01 -9.659258e-01 1.584810e-17
    outer loop
      vertex 5.438588e+01 2.257729e+01 7.105427e-15
      vertex 5.397500e+01 2.252320e+01 9.525000e+00
      vertex 5.397500e+01 2.252320e+01 7.105427e-15
    endloop
  endfacet
  facet normal 0.000000e+00 -1.000000e+00 0.000000e+00
    outer loop
      vertex 5.397500e+01 2.252320e+01 9.525000e+00
      vertex 5.438588e+01 2.257729e+01 7.105427e-15
      vertex 5.438588e+01 2.257729e+01 9.525000e+00
    endloop
  endfacet
  facet normal 5.000000e-01 -8.660254e-01 3.061617e-17
    outer loop
      vertex 5.476875e+01 2.273588e+01 7.105427e-15
      vertex 5.438588e+01 2.257729e+01 9.525000e+00
      vertex 5.438588e+01 2.257729e+01 7.105427e-15
    endloop
  endfacet
  facet normal 2.588190e-01 -9.659258e-01 1.584810e-17
    outer loop
      vertex 5.438588e+01 2.257729e+01 9.525000e+00
      vertex 5.476875e+01 2.273588e+01 7.105427e-15
      vertex 5.476875e+01 2.273588e+01 9.525000e+00
    endloop
  endfacet
  facet normal 7.071068e-01 -7.071068e-01 4.329780e-17
    outer loop
      vertex 5.509753e+01 2.298817e+01 7.105427e-15
      vertex 5.476875e+01 2.273588e+01 9.525000e+00
      vertex 5.476875e+01 2.273588e+01 7.105427e-15
    endloop
  endfacet
  facet normal 5.000000e-01 -8.660254e-01 3.061617e-17
    outer loop
      vertex 5.476875e+01 2.273588e+01 9.525000e+00
      vertex 5.509753e+01 2.298817e+01 7.105427e-15
      vertex 5.509753e+01 2.298817e+01 9.525000e+00
    endloop
  endfacet
  facet normal 7.071068e-01 -7.071068e-01 4.329780e-17
    outer loop
      vertex 5.509753e+01 2.298817e+01 7.105427e-15
      vertex 5.534982e+01 2.331695e+01 9.525000e+00
      vertex 5.509753e+01 2.298817e+01 9.525000e+00
    endloop
  endfacet
  facet normal 8.660254e-01 -5.000000e-01 5.302876e-17
    outer loop
      vertex 5.534982e+01 2.331695e+01 9.525000e+00
      vertex 5.509753e+01 2.298817e+01 7.105427e-15
      vertex 5.534982e+01 2.331695e+01 7.105427e-15
    endloop
  endfacet
  facet normal 8.660254e-01 -5.000000e-01 5.302876e-17
    outer loop
      vertex 5.534982e+01 2.331695e+01 7.105427e-15
      vertex 5.550841e+01 2.369982e+01 9.525000e+00
      vertex 5.534982e+01 2.331695e+01 9.525000e+00
    endloop
  endfacet
  facet normal 9.659258e-01 -2.588190e-01 5.914590e-17
    outer loop
      vertex 5.550841e+01 2.369982e+01 9.525000e+00
      vertex 5.534982e+01 2.331695e+01 7.105427e-15
      vertex 5.550841e+01 2.369982e+01 7.105427e-15
    endloop
  endfacet
  facet normal 9.659258e-01 -2.588190e-01 5.914590e-17
    outer loop
      vertex 5.550841e+01 2.369982e+01 7.105427e-15
      vertex 5.556250e+01 2.411070e+01 9.525000e+00
      vertex 5.550841e+01 2.369982e+01 9.525000e+00
    endloop
  endfacet
  facet normal 1.000000e+00 0.000000e+00 6.123234e-17
    outer loop
      vertex 5.556250e+01 2.411070e+01 9.525000e+00
      vertex 5.550841e+01 2.369982e+01 7.105427e-15
      vertex 5.556250e+01 2.411070e+01 7.105427e-15
    endloop
  endfacet
  facet normal 1.000000e+00 0.000000e+00 6.123234e-17
    outer loop
      vertex 5.556250e+01 2.411070e+01 7.105427e-15
      vertex 5.550841e+01 2.452157e+01 9.525000e+00
      vertex 5.556250e+01 2.411070e+01 9.525000e+00
    endloop
  endfacet
  facet normal 9.659258e-01 2.588190e-01 5.914590e-17
    outer loop
      vertex 5.550841e+01 2.452157e+01 9.525000e+00
      vertex 5.556250e+01 2.411070e+01 7.105427e-15
      vertex 5.550841e+01 2.452157e+01 7.105427e-15
    endloop
  endfacet
  facet normal 9.659258e-01 2.588190e-01 5.914590e-17
    outer loop
      vertex 5.550841e+01 2.452157e+01 7.105427e-15
      vertex 5.534982e+01 2.490445e+01 9.525000e+00
      vertex 5.550841e+01 2.452157e+01 9.525000e+00
    endloop
  endfacet
  facet normal 8.660254e-01 5.000000e-01 5.302876e-17
    outer loop
      vertex 5.534982e+01 2.490445e+01 9.525000e+00
      vertex 5.550841e+01 2.452157e+01 7.105427e-15
      vertex 5.534982e+01 2.490445e+01 7.105427e-15
    endloop
  endfacet
  facet normal 8.660254e-01 5.000000e-01 5.302876e-17
    outer loop
      vertex 5.534982e+01 2.490445e+01 7.105427e-15
      vertex 5.509753e+01 2.523323e+01 9.525000e+00
      vertex 5.534982e+01 2.490445e+01 9.525000e+00
    endloop
  endfacet
  facet normal 7.071068e-01 7.071068e-01 4.329780e-17
    outer loop
      vertex 5.509753e+01 2.523323e+01 9.525000e+00
      vertex 5.534982e+01 2.490445e+01 7.105427e-15
      vertex 5.509753e+01 2.523323e+01 7.105427e-15
    endloop
  endfacet
  facet normal 7.071068e-01 7.071068e-01 4.329780e-17
    outer loop
      vertex 5.509753e+01 2.523323e+01 9.525000e+00
      vertex 5.476875e+01 2.548551e+01 7.105427e-15
      vertex 5.476875e+01 2.548551e+01 9.525000e+00
    endloop
  endfacet
  facet normal 5.000000e-01 8.660254e-01 3.061617e-17
    outer loop
      vertex 5.476875e+01 2.548551e+01 7.105427e-15
      vertex 5.509753e+01 2.523323e+01 9.525000e+00
      vertex 5.509753e+01 2.523323e+01 7.105427e-15
    endloop
  endfacet
  facet normal 5.000000e-01 8.660254e-01 3.061617e-17
    outer loop
      vertex 5.476875e+01 2.548551e+01 9.525000e+00
      vertex 5.438588e+01 2.564410e+01 7.105427e-15
      vertex 5.438588e+01 2.564410e+01 9.525000e+00
    endloop
  endfacet
  facet normal 2.588190e-01 9.659258e-01 1.584810e-17
    outer loop
      vertex 5.438588e+01 2.564410e+01 7.105427e-15
      vertex 5.476875e+01 2.548551e+01 9.525000e+00
      vertex 5.476875e+01 2.548551e+01 7.105427e-15
    endloop
  endfacet
  facet normal 2.588190e-01 9.659258e-01 1.584810e-17
    outer loop
      vertex 5.438588e+01 2.564410e+01 9.525000e+00
      vertex 5.397500e+01 2.569820e+01 7.105427e-15
      vertex 5.397500e+01 2.569820e+01 9.525000e+00
    endloop
  endfacet
  facet normal 0.000000e+00 1.000000e+00 0.000000e+00
    outer loop
      vertex 5.397500e+01 2.569820e+01 7.105427e-15
      vertex 5.438588e+01 2.564410e+01 9.525000e+00
      vertex 5.438588e+01 2.564410e+01 7.105427e-15
    endloop
  endfacet
  facet normal 0.000000e+00 1.000000e+00 0.000000e+00
    outer loop
      vertex 5.397500e+01 2.569820e+01 9.525000e+00
      vertex 5.356413e+01 2.564410e+01 7.105427e-15
      vertex 5.356413e+01 2.564410e+01 9.525000e+00
    endloop
  endfacet
  facet normal -2.588190e-01 9.659258e-01 -1.584810e-17
    outer loop
      vertex 5.356413e+01 2.564410e+01 7.105427e-15
      vertex 5.397500e+01 2.569820e+01 9.525000e+00
      vertex 5.397500e+01 2.569820e+01 7.105427e-15
    endloop
  endfacet
  facet normal -2.588190e-01 9.659258e-01 -1.584810e-17
    outer loop
      vertex 5.356413e+01 2.564410e+01 9.525000e+00
      vertex 5.318125e+01 2.548551e+01 7.105427e-15
      vertex 5.318125e+01 2.548551e+01 9.525000e+00
    endloop
  endfacet
  facet normal -5.000000e-01 8.660254e-01 -3.061617e-17
    outer loop
      vertex 5.318125e+01 2.548551e+01 7.105427e-15
      vertex 5.356413e+01 2.564410e+01 9.525000e+00
      vertex 5.356413e+01 2.564410e+01 7.105427e-15
    endloop
  endfacet
  facet normal -5.000000e-01 8.660254e-01 -3.061617e-17
    outer loop
      vertex 5.318125e+01 2.548551e+01 9.525000e+00
      vertex 5.285247e+01 2.523323e+01 7.105427e-15
      vertex 5.285247e+01 2.523323e+01 9.525000e+00
    endloop
  endfacet
  facet normal -7.071068e-01 7.071068e-01 -4.329780e-17
    outer loop
      vertex 5.285247e+01 2.523323e+01 7.105427e-15
      vertex 5.318125e+01 2.548551e+01 9.525000e+00
      vertex 5.318125e+01 2.548551e+01 7.105427e-15
    endloop
  endfacet
  facet normal -7.071068e-01 7.071068e-01 -4.329780e-17
    outer loop
      vertex 5.285247e+01 2.523323e+01 7.105427e-15
      vertex 5.260019e+01 2.490445e+01 9.525000e+00
      vertex 5.285247e+01 2.523323e+01 9.525000e+00
    endloop
  endfacet
  facet normal -8.660254e-01 5.000000e-01 -5.302876e-17
    outer loop
      vertex 5.260019e+01 2.490445e+01 9.525000e+00
      vertex 5.285247e+01 2.523323e+01 7.105427e-15
      vertex 5.260019e+01 2.490445e+01 7.105427e-15
    endloop
  endfacet
  facet normal -8.660254e-01 5.000000e-01 -5.302876e-17
    outer loop
      vertex 5.260019e+01 2.490445e+01 7.105427e-15
      vertex 5.244159e+01 2.452157e+01 9.525000e+00
      vertex 5.260019e+01 2.490445e+01 9.525000e+00
    endloop
  endfacet
  facet normal -9.659258e-01 2.588190e-01 -5.914590e-17
    outer loop
      vertex 5.244159e+01 2.452157e+01 9.525000e+00
      vertex 5.260019e+01 2.490445e+01 7.105427e-15
      vertex 5.244159e+01 2.452157e+01 7.105427e-15
    endloop
  endfacet
  facet normal -9.659258e-01 2.588190e-01 -5.914590e-17
    outer loop
      vertex 5.244159e+01 2.452157e+01 7.105427e-15
      vertex 5.238750e+01 2.411070e+01 9.525000e+00
      vertex 5.244159e+01 2.452157e+01 9.525000e+00
    endloop
  endfacet
  facet normal -1.000000e+00 0.000000e+00 -6.123234e-17
    outer loop
      vertex 5.238750e+01 2.411070e+01 9.525000e+00
      vertex 5.244159e+01 2.452157e+01 7.105427e-15
      vertex 5.238750e+01 2.411070e+01 7.105427e-15
    endloop
  endfacet
  facet normal -1.000000e+00 0.000000e+00 -6.123234e-17
    outer loop
      vertex 5.238750e+01 2.411070e+01 7.105427e-15
      vertex 5.244159e+01 2.369982e+01 9.525000e+00
      vertex 5.238750e+01 2.411070e+01 9.525000e+00
    endloop
  endfacet
  facet normal -9.659258e-01 -2.588190e-01 -5.914590e-17
    outer loop
      vertex 5.244159e+01 2.369982e+01 9.525000e+00
      vertex 5.238750e+01 2.411070e+01 7.105427e-15
      vertex 5.244159e+01 2.369982e+01 7.105427e-15
    endloop
  endfacet
  facet normal -9.659258e-01 -2.588190e-01 -5.914590e-17
    outer loop
      vertex 5.244159e+01 2.369982e+01 7.105427e-15
      vertex 5.260019e+01 2.331695e+01 9.525000e+00
      vertex 5.244159e+01 2.369982e+01 9.525000e+00
    endloop
  endfacet
  facet normal -8.660254e-01 -5.000000e-01 -5.302876e-17
    outer loop
      vertex 5.260019e+01 2.331695e+01 9.525000e+00
      vertex 5.244159e+01 2.369982e+01 7.105427e-15
      vertex 5.260019e+01 2.331695e+01 7.105427e-15
    endloop
  endfacet
  facet normal -8.660254e-01 -5.000000e-01 -5.302876e-17
    outer loop
      vertex 5.260019e+01 2.331695e+01 7.105427e-15
      vertex 5.285247e+01 2.298817e+01 9.525000e+00
      vertex 5.260019e+01 2.331695e+01 9.525000e+00
    endloop
  endfacet
  facet normal -7.071068e-01 -7.071068e-01 -4.329780e-17
    outer loop
      vertex 5.285247e+01 2.298817e+01 9.525000e+00
      vertex 5.260019e+01 2.331695e+01 7.105427e-15
      vertex 5.285247e+01 2.298817e+01 7.105427e-15
    endloop
  endfacet
  facet normal -5.000000e-01 -8.660254e-01 -3.061617e-17
    outer loop
      vertex 5.318125e+01 2.273588e+01 7.105427e-15
      vertex 5.285247e+01 2.298817e+01 9.525000e+00
      vertex 5.285247e+01 2.298817e+01 7.105427e-15
    endloop
  endfacet
  facet normal -7.071068e-01 -7.071068e-01 -4.329780e-17
    outer loop
      vertex 5.285247e+01 2.298817e+01 9.525000e+00
      vertex 5.318125e+01 2.273588e+01 7.105427e-15
      vertex 5.318125e+01 2.273588e+01 9.525000e+00
    endloop
  endfacet
  facet normal -2.588190e-01 -9.659258e-01 -1.584810e-17
    outer loop
      vertex 5.356413e+01 2.257729e+01 7.105427e-15
      vertex 5.318125e+01 2.273588e+01 9.525000e+00
      vertex 5.318125e+01 2.273588e+01 7.105427e-15
    endloop
  endfacet
  facet normal -5.000000e-01 -8.660254e-01 -3.061617e-17
    outer loop
      vertex 5.318125e+01 2.273588e+01 9.525000e+00
      vertex 5.356413e+01 2.257729e+01 7.105427e-15
      vertex 5.356413e+01 2.257729e+01 9.525000e+00
    endloop
  endfacet
  facet normal -6.123234e-17 0.000000e+00 1.000000e+00
    outer loop
      vertex 5.873750e+01 6.350002e+00 7.105427e-15
      vertex 5.550841e+01 2.369982e+01 7.105427e-15
      vertex 4.921250e+01 6.350002e+00 7.105427e-15
    endloop
  endfacet
  facet normal -6.123234e-17 0.000000e+00 1.000000e+00
    outer loop
      vertex 5.550841e+01 2.369982e+01 7.105427e-15
      vertex 5.873750e+01 6.350002e+00 7.105427e-15
      vertex 5.873750e+01 3.492500e+01 7.105427e-15
    endloop
  endfacet
  facet normal -6.123234e-17 0.000000e+00 1.000000e+00
    outer loop
      vertex 4.921250e+01 6.350002e+00 7.105427e-15
      vertex 5.550841e+01 2.369982e+01 7.105427e-15
      vertex 5.534982e+01 2.331695e+01 7.105427e-15
    endloop
  endfacet
  facet normal -6.123234e-17 0.000000e+00 1.000000e+00
    outer loop
      vertex 4.921250e+01 6.350002e+00 7.105427e-15
      vertex 5.534982e+01 2.331695e+01 7.105427e-15
      vertex 5.509753e+01 2.298817e+01 7.105427e-15
    endloop
  endfacet
  facet normal -6.123234e-17 0.000000e+00 1.000000e+00
    outer loop
      vertex 4.921250e+01 6.350002e+00 7.105427e-15
      vertex 5.509753e+01 2.298817e+01 7.105427e-15
      vertex 4.921250e+01 1.587500e+01 7.105427e-15
    endloop
  endfacet
  facet normal -6.123234e-17 0.000000e+00 1.000000e+00
    outer loop
      vertex 4.921250e+01 1.587500e+01 7.105427e-15
      vertex 5.509753e+01 2.298817e+01 7.105427e-15
      vertex 5.476875e+01 2.273588e+01 7.105427e-15
    endloop
  endfacet
  facet normal -6.123234e-17 0.000000e+00 1.000000e+00
    outer loop
      vertex 4.921250e+01 1.587500e+01 7.105427e-15
      vertex 5.476875e+01 2.273588e+01 7.105427e-15
      vertex 5.438588e+01 2.257729e+01 7.105427e-15
    endloop
  endfacet
  facet normal -6.123234e-17 0.000000e+00 1.000000e+00
    outer loop
      vertex 4.921250e+01 1.587500e+01 7.105427e-15
      vertex 5.438588e+01 2.257729e+01 7.105427e-15
      vertex 5.397500e+01 2.252320e+01 7.105427e-15
    endloop
  endfacet
  facet normal -6.123234e-17 0.000000e+00 1.000000e+00
    outer loop
      vertex 5.550841e+01 2.369982e+01 7.105427e-15
      vertex 5.873750e+01 3.492500e+01 7.105427e-15
      vertex 5.556250e+01 2.411070e+01 7.105427e-15
    endloop
  endfacet
  facet normal -6.123234e-17 0.000000e+00 1.000000e+00
    outer loop
      vertex 5.556250e+01 2.411070e+01 7.105427e-15
      vertex 5.873750e+01 3.492500e+01 7.105427e-15
      vertex 5.550841e+01 2.452157e+01 7.105427e-15
    endloop
  endfacet
  facet normal -6.123234e-17 0.000000e+00 1.000000e+00
    outer loop
      vertex 5.550841e+01 2.452157e+01 7.105427e-15
      vertex 5.873750e+01 3.492500e+01 7.105427e-15
      vertex 5.534982e+01 2.490445e+01 7.105427e-15
    endloop
  endfacet
  facet normal -6.123234e-17 0.000000e+00 1.000000e+00
    outer loop
      vertex 5.534982e+01 2.490445e+01 7.105427e-15
      vertex 5.873750e+01 3.492500e+01 7.105427e-15
      vertex 5.509753e+01 2.523323e+01 7.105427e-15
    endloop
  endfacet
  facet normal -6.123234e-17 0.000000e+00 1.000000e+00
    outer loop
      vertex 5.509753e+01 2.523323e+01 7.105427e-15
      vertex 5.873750e+01 3.492500e+01 7.105427e-15
      vertex 5.476875e+01 2.548551e+01 7.105427e-15
    endloop
  endfacet
  facet normal -6.123234e-17 0.000000e+00 1.000000e+00
    outer loop
      vertex 5.476875e+01 2.548551e+01 7.105427e-15
      vertex 5.873750e+01 3.492500e+01 7.105427e-15
      vertex 5.438588e+01 2.564410e+01 7.105427e-15
    endloop
  endfacet
  facet normal -6.123234e-17 0.000000e+00 1.000000e+00
    outer loop
      vertex 5.438588e+01 2.564410e+01 7.105427e-15
      vertex 5.873750e+01 3.492500e+01 7.105427e-15
      vertex 5.397500e+01 2.569820e+01 7.105427e-15
    endloop
  endfacet
  facet normal -6.123234e-17 0.000000e+00 1.000000e+00
    outer loop
      vertex 5.397500e+01 2.569820e+01 7.105427e-15
      vertex 5.873750e+01 3.492500e+01 7.105427e-15
      vertex 5.509753e+01 3.048123e+01 7.105427e-15
    endloop
  endfacet
  facet normal -6.123234e-17 0.000000e+00 1.000000e+00
    outer loop
      vertex 5.397500e+01 2.569820e+01 7.105427e-15
      vertex 5.509753e+01 3.048123e+01 7.105427e-15
      vertex 5.476875e+01 3.022894e+01 7.105427e-15
    endloop
  endfacet
  facet normal -6.123234e-17 0.000000e+00 1.000000e+00
    outer loop
      vertex 5.397500e+01 2.569820e+01 7.105427e-15
      vertex 5.476875e+01 3.022894e+01 7.105427e-15
      vertex 5.472863e+01 3.021232e+01 7.105427e-15
    endloop
  endfacet
  facet normal -6.123234e-17 0.000000e+00 1.000000e+00
    outer loop
      vertex 5.397500e+01 2.569820e+01 7.105427e-15
      vertex 5.472863e+01 3.021232e+01 7.105427e-15
      vertex 5.438588e+01 3.007035e+01 7.105427e-15
    endloop
  endfacet
  facet normal -6.123234e-17 0.000000e+00 1.000000e+00
    outer loop
      vertex 5.397500e+01 2.569820e+01 7.105427e-15
      vertex 5.438588e+01 3.007035e+01 7.105427e-15
      vertex 5.434282e+01 3.006469e+01 7.105427e-15
    endloop
  endfacet
  facet normal -6.123234e-17 0.000000e+00 1.000000e+00
    outer loop
      vertex 5.397500e+01 2.569820e+01 7.105427e-15
      vertex 5.434282e+01 3.006469e+01 7.105427e-15
      vertex 5.397500e+01 3.001625e+01 7.105427e-15
    endloop
  endfacet
  facet normal -6.123234e-17 0.000000e+00 1.000000e+00
    outer loop
      vertex 5.476875e+01 3.022894e+01 7.105427e-15
      vertex 5.509753e+01 3.048123e+01 7.105427e-15
      vertex 5.506308e+01 3.045479e+01 7.105427e-15
    endloop
  endfacet
  facet normal -6.123234e-17 0.000000e+00 1.000000e+00
    outer loop
      vertex 5.509753e+01 3.048123e+01 7.105427e-15
      vertex 5.873750e+01 3.492500e+01 7.105427e-15
      vertex 5.532338e+01 3.077556e+01 7.105427e-15
    endloop
  endfacet
  facet normal -6.123234e-17 0.000000e+00 1.000000e+00
    outer loop
      vertex 5.532338e+01 3.077556e+01 7.105427e-15
      vertex 5.873750e+01 3.492500e+01 7.105427e-15
      vertex 5.534982e+01 3.081001e+01 7.105427e-15
    endloop
  endfacet
  facet normal -6.123234e-17 0.000000e+00 1.000000e+00
    outer loop
      vertex 5.534982e+01 3.081001e+01 7.105427e-15
      vertex 5.873750e+01 3.492500e+01 7.105427e-15
      vertex 5.549179e+01 3.115277e+01 7.105427e-15
    endloop
  endfacet
  facet normal -6.123234e-17 0.000000e+00 1.000000e+00
    outer loop
      vertex 5.549179e+01 3.115277e+01 7.105427e-15
      vertex 5.873750e+01 3.492500e+01 7.105427e-15
      vertex 5.550841e+01 3.119288e+01 7.105427e-15
    endloop
  endfacet
  facet normal -6.123234e-17 0.000000e+00 1.000000e+00
    outer loop
      vertex 5.550841e+01 3.119288e+01 7.105427e-15
      vertex 5.873750e+01 3.492500e+01 7.105427e-15
      vertex 5.555684e+01 3.156071e+01 7.105427e-15
    endloop
  endfacet
  facet normal -6.123234e-17 0.000000e+00 1.000000e+00
    outer loop
      vertex 5.555684e+01 3.156071e+01 7.105427e-15
      vertex 5.873750e+01 3.492500e+01 7.105427e-15
      vertex 5.556250e+01 3.160376e+01 7.105427e-15
    endloop
  endfacet
  facet normal -6.123234e-17 0.000000e+00 1.000000e+00
    outer loop
      vertex 5.556250e+01 3.160376e+01 7.105427e-15
      vertex 5.873750e+01 3.492500e+01 7.105427e-15
      vertex 5.551407e+01 3.197158e+01 7.105427e-15
    endloop
  endfacet
  facet normal -6.123234e-17 0.000000e+00 1.000000e+00
    outer loop
      vertex 5.551407e+01 3.197158e+01 7.105427e-15
      vertex 5.873750e+01 3.492500e+01 7.105427e-15
      vertex 5.550841e+01 3.201463e+01 7.105427e-15
    endloop
  endfacet
  facet normal -6.123234e-17 0.000000e+00 1.000000e+00
    outer loop
      vertex 5.550841e+01 3.201463e+01 7.105427e-15
      vertex 5.873750e+01 3.492500e+01 7.105427e-15
      vertex 5.536644e+01 3.235740e+01 7.105427e-15
    endloop
  endfacet
  facet normal -6.123234e-17 0.000000e+00 1.000000e+00
    outer loop
      vertex 5.536644e+01 3.235740e+01 7.105427e-15
      vertex 5.873750e+01 3.492500e+01 7.105427e-15
      vertex 5.534982e+01 3.239751e+01 7.105427e-15
    endloop
  endfacet
  facet normal -6.123234e-17 0.000000e+00 1.000000e+00
    outer loop
      vertex 5.534982e+01 3.239751e+01 7.105427e-15
      vertex 5.873750e+01 3.492500e+01 7.105427e-15
      vertex 5.512397e+01 3.269184e+01 7.105427e-15
    endloop
  endfacet
  facet normal -6.123234e-17 0.000000e+00 1.000000e+00
    outer loop
      vertex 5.512397e+01 3.269184e+01 7.105427e-15
      vertex 5.873750e+01 3.492500e+01 7.105427e-15
      vertex 5.509753e+01 3.272629e+01 7.105427e-15
    endloop
  endfacet
  facet normal -6.123234e-17 0.000000e+00 1.000000e+00
    outer loop
      vertex 5.509753e+01 3.272629e+01 7.105427e-15
      vertex 5.873750e+01 3.492500e+01 7.105427e-15
      vertex 5.480320e+01 3.295214e+01 7.105427e-15
    endloop
  endfacet
  facet normal -6.123234e-17 0.000000e+00 1.000000e+00
    outer loop
      vertex 5.480320e+01 3.295214e+01 7.105427e-15
      vertex 5.873750e+01 3.492500e+01 7.105427e-15
      vertex 5.476875e+01 3.297857e+01 7.105427e-15
    endloop
  endfacet
  facet normal -6.123234e-17 0.000000e+00 1.000000e+00
    outer loop
      vertex 5.476875e+01 3.297857e+01 7.105427e-15
      vertex 5.873750e+01 3.492500e+01 7.105427e-15
      vertex 5.442599e+01 3.312055e+01 7.105427e-15
    endloop
  endfacet
  facet normal -6.123234e-17 0.000000e+00 1.000000e+00
    outer loop
      vertex 5.442599e+01 3.312055e+01 7.105427e-15
      vertex 5.873750e+01 3.492500e+01 7.105427e-15
      vertex 5.438588e+01 3.313717e+01 7.105427e-15
    endloop
  endfacet
  facet normal -6.123234e-17 0.000000e+00 1.000000e+00
    outer loop
      vertex 5.438588e+01 3.313717e+01 7.105427e-15
      vertex 5.873750e+01 3.492500e+01 7.105427e-15
      vertex 5.401805e+01 3.318559e+01 7.105427e-15
    endloop
  endfacet
  facet normal -6.123234e-17 0.000000e+00 1.000000e+00
    outer loop
      vertex 5.401805e+01 3.318559e+01 7.105427e-15
      vertex 5.873750e+01 3.492500e+01 7.105427e-15
      vertex 5.397500e+01 3.319126e+01 7.105427e-15
    endloop
  endfacet
  facet normal -6.123234e-17 0.000000e+00 1.000000e+00
    outer loop
      vertex 4.921250e+01 1.587500e+01 7.105427e-15
      vertex 5.244159e+01 2.369982e+01 7.105427e-15
      vertex 4.921250e+01 3.492500e+01 7.105427e-15
    endloop
  endfacet
  facet normal -6.123234e-17 0.000000e+00 1.000000e+00
    outer loop
      vertex 5.244159e+01 2.369982e+01 7.105427e-15
      vertex 4.921250e+01 1.587500e+01 7.105427e-15
      vertex 5.260019e+01 2.331695e+01 7.105427e-15
    endloop
  endfacet
  facet normal -6.123234e-17 0.000000e+00 1.000000e+00
    outer loop
      vertex 5.260019e+01 2.331695e+01 7.105427e-15
      vertex 4.921250e+01 1.587500e+01 7.105427e-15
      vertex 5.285247e+01 2.298817e+01 7.105427e-15
    endloop
  endfacet
  facet normal -6.123234e-17 0.000000e+00 1.000000e+00
    outer loop
      vertex 5.285247e+01 2.298817e+01 7.105427e-15
      vertex 4.921250e+01 1.587500e+01 7.105427e-15
      vertex 5.318125e+01 2.273588e+01 7.105427e-15
    endloop
  endfacet
  facet normal -6.123234e-17 0.000000e+00 1.000000e+00
    outer loop
      vertex 5.318125e+01 2.273588e+01 7.105427e-15
      vertex 4.921250e+01 1.587500e+01 7.105427e-15
      vertex 5.356413e+01 2.257729e+01 7.105427e-15
    endloop
  endfacet
  facet normal -6.123234e-17 0.000000e+00 1.000000e+00
    outer loop
      vertex 5.356413e+01 2.257729e+01 7.105427e-15
      vertex 4.921250e+01 1.587500e+01 7.105427e-15
      vertex 5.397500e+01 2.252320e+01 7.105427e-15
    endloop
  endfacet
  facet normal -6.123234e-17 0.000000e+00 1.000000e+00
    outer loop
      vertex 4.921250e+01 3.492500e+01 7.105427e-15
      vertex 5.244159e+01 2.369982e+01 7.105427e-15
      vertex 5.238750e+01 2.411070e+01 7.105427e-15
    endloop
  endfacet
  facet normal -6.123234e-17 0.000000e+00 1.000000e+00
    outer loop
      vertex 4.921250e+01 3.492500e+01 7.105427e-15
      vertex 5.238750e+01 2.411070e+01 7.105427e-15
      vertex 5.244159e+01 2.452157e+01 7.105427e-15
    endloop
  endfacet
  facet normal -6.123234e-17 0.000000e+00 1.000000e+00
    outer loop
      vertex 4.921250e+01 3.492500e+01 7.105427e-15
      vertex 5.244159e+01 2.452157e+01 7.105427e-15
      vertex 5.260019e+01 2.490445e+01 7.105427e-15
    endloop
  endfacet
  facet normal -6.123234e-17 0.000000e+00 1.000000e+00
    outer loop
      vertex 4.921250e+01 3.492500e+01 7.105427e-15
      vertex 5.260019e+01 2.490445e+01 7.105427e-15
      vertex 5.285247e+01 2.523323e+01 7.105427e-15
    endloop
  endfacet
  facet normal -6.123234e-17 0.000000e+00 1.000000e+00
    outer loop
      vertex 4.921250e+01 3.492500e+01 7.105427e-15
      vertex 5.285247e+01 2.523323e+01 7.105427e-15
      vertex 5.318125e+01 2.548551e+01 7.105427e-15
    endloop
  endfacet
  facet normal -6.123234e-17 0.000000e+00 1.000000e+00
    outer loop
      vertex 4.921250e+01 3.492500e+01 7.105427e-15
      vertex 5.318125e+01 2.548551e+01 7.105427e-15
      vertex 5.356413e+01 2.564410e+01 7.105427e-15
    endloop
  endfacet
  facet normal -6.123234e-17 0.000000e+00 1.000000e+00
    outer loop
      vertex 4.921250e+01 3.492500e+01 7.105427e-15
      vertex 5.356413e+01 2.564410e+01 7.105427e-15
      vertex 5.397500e+01 2.569820e+01 7.105427e-15
    endloop
  endfacet
  facet normal -6.123234e-17 0.000000e+00 1.000000e+00
    outer loop
      vertex 4.921250e+01 3.492500e+01 7.105427e-15
      vertex 5.397500e+01 2.569820e+01 7.105427e-15
      vertex 5.285247e+01 3.048123e+01 7.105427e-15
    endloop
  endfacet
  facet normal -6.123234e-17 0.000000e+00 1.000000e+00
    outer loop
      vertex 5.285247e+01 3.048123e+01 7.105427e-15
      vertex 5.397500e+01 2.569820e+01 7.105427e-15
      vertex 5.318125e+01 3.022894e+01 7.105427e-15
    endloop
  endfacet
  facet normal -6.123234e-17 0.000000e+00 1.000000e+00
    outer loop
      vertex 5.318125e+01 3.022894e+01 7.105427e-15
      vertex 5.397500e+01 2.569820e+01 7.105427e-15
      vertex 5.352401e+01 3.008696e+01 7.105427e-15
    endloop
  endfacet
  facet normal -6.123234e-17 0.000000e+00 1.000000e+00
    outer loop
      vertex 5.352401e+01 3.008696e+01 7.105427e-15
      vertex 5.397500e+01 2.569820e+01 7.105427e-15
      vertex 5.356413e+01 3.007035e+01 7.105427e-15
    endloop
  endfacet
  facet normal -6.123234e-17 0.000000e+00 1.000000e+00
    outer loop
      vertex 5.356413e+01 3.007035e+01 7.105427e-15
      vertex 5.397500e+01 2.569820e+01 7.105427e-15
      vertex 5.397500e+01 3.001625e+01 7.105427e-15
    endloop
  endfacet
  facet normal -6.123234e-17 0.000000e+00 1.000000e+00
    outer loop
      vertex 5.356413e+01 3.007035e+01 7.105427e-15
      vertex 5.397500e+01 3.001625e+01 7.105427e-15
      vertex 5.393195e+01 3.002192e+01 7.105427e-15
    endloop
  endfacet
  facet normal -6.123234e-17 0.000000e+00 1.000000e+00
    outer loop
      vertex 5.285247e+01 3.048123e+01 7.105427e-15
      vertex 5.318125e+01 3.022894e+01 7.105427e-15
      vertex 5.314680e+01 3.025537e+01 7.105427e-15
    endloop
  endfacet
  facet normal -6.123234e-17 0.000000e+00 1.000000e+00
    outer loop
      vertex 4.921250e+01 3.492500e+01 7.105427e-15
      vertex 5.285247e+01 3.048123e+01 7.105427e-15
      vertex 5.282604e+01 3.051567e+01 7.105427e-15
    endloop
  endfacet
  facet normal -6.123234e-17 0.000000e+00 1.000000e+00
    outer loop
      vertex 4.921250e+01 3.492500e+01 7.105427e-15
      vertex 5.282604e+01 3.051567e+01 7.105427e-15
      vertex 5.260019e+01 3.081001e+01 7.105427e-15
    endloop
  endfacet
  facet normal -6.123234e-17 0.000000e+00 1.000000e+00
    outer loop
      vertex 4.921250e+01 3.492500e+01 7.105427e-15
      vertex 5.260019e+01 3.081001e+01 7.105427e-15
      vertex 5.258357e+01 3.085012e+01 7.105427e-15
    endloop
  endfacet
  facet normal -6.123234e-17 0.000000e+00 1.000000e+00
    outer loop
      vertex 4.921250e+01 3.492500e+01 7.105427e-15
      vertex 5.258357e+01 3.085012e+01 7.105427e-15
      vertex 5.244159e+01 3.119288e+01 7.105427e-15
    endloop
  endfacet
  facet normal -6.123234e-17 0.000000e+00 1.000000e+00
    outer loop
      vertex 4.921250e+01 3.492500e+01 7.105427e-15
      vertex 5.244159e+01 3.119288e+01 7.105427e-15
      vertex 5.243592e+01 3.123594e+01 7.105427e-15
    endloop
  endfacet
  facet normal -6.123234e-17 0.000000e+00 1.000000e+00
    outer loop
      vertex 4.921250e+01 3.492500e+01 7.105427e-15
      vertex 5.243592e+01 3.123594e+01 7.105427e-15
      vertex 5.238750e+01 3.160376e+01 7.105427e-15
    endloop
  endfacet
  facet normal -6.123234e-17 0.000000e+00 1.000000e+00
    outer loop
      vertex 4.921250e+01 3.492500e+01 7.105427e-15
      vertex 5.238750e+01 3.160376e+01 7.105427e-15
      vertex 5.239317e+01 3.164681e+01 7.105427e-15
    endloop
  endfacet
  facet normal -6.123234e-17 0.000000e+00 1.000000e+00
    outer loop
      vertex 4.921250e+01 3.492500e+01 7.105427e-15
      vertex 5.239317e+01 3.164681e+01 7.105427e-15
      vertex 5.244159e+01 3.201463e+01 7.105427e-15
    endloop
  endfacet
  facet normal -6.123234e-17 0.000000e+00 1.000000e+00
    outer loop
      vertex 4.921250e+01 3.492500e+01 7.105427e-15
      vertex 5.244159e+01 3.201463e+01 7.105427e-15
      vertex 5.245821e+01 3.205474e+01 7.105427e-15
    endloop
  endfacet
  facet normal -6.123234e-17 0.000000e+00 1.000000e+00
    outer loop
      vertex 4.921250e+01 3.492500e+01 7.105427e-15
      vertex 5.245821e+01 3.205474e+01 7.105427e-15
      vertex 5.260019e+01 3.239751e+01 7.105427e-15
    endloop
  endfacet
  facet normal -6.123234e-17 0.000000e+00 1.000000e+00
    outer loop
      vertex 4.921250e+01 3.492500e+01 7.105427e-15
      vertex 5.260019e+01 3.239751e+01 7.105427e-15
      vertex 5.262662e+01 3.243196e+01 7.105427e-15
    endloop
  endfacet
  facet normal -6.123234e-17 0.000000e+00 1.000000e+00
    outer loop
      vertex 4.921250e+01 3.492500e+01 7.105427e-15
      vertex 5.262662e+01 3.243196e+01 7.105427e-15
      vertex 5.285247e+01 3.272629e+01 7.105427e-15
    endloop
  endfacet
  facet normal -6.123234e-17 0.000000e+00 1.000000e+00
    outer loop
      vertex 4.921250e+01 3.492500e+01 7.105427e-15
      vertex 5.285247e+01 3.272629e+01 7.105427e-15
      vertex 5.288691e+01 3.275272e+01 7.105427e-15
    endloop
  endfacet
  facet normal -6.123234e-17 0.000000e+00 1.000000e+00
    outer loop
      vertex 4.921250e+01 3.492500e+01 7.105427e-15
      vertex 5.288691e+01 3.275272e+01 7.105427e-15
      vertex 5.318125e+01 3.297857e+01 7.105427e-15
    endloop
  endfacet
  facet normal -6.123234e-17 0.000000e+00 1.000000e+00
    outer loop
      vertex 4.921250e+01 3.492500e+01 7.105427e-15
      vertex 5.318125e+01 3.297857e+01 7.105427e-15
      vertex 5.322136e+01 3.299519e+01 7.105427e-15
    endloop
  endfacet
  facet normal -6.123234e-17 0.000000e+00 1.000000e+00
    outer loop
      vertex 4.921250e+01 3.492500e+01 7.105427e-15
      vertex 5.322136e+01 3.299519e+01 7.105427e-15
      vertex 5.356413e+01 3.313717e+01 7.105427e-15
    endloop
  endfacet
  facet normal -6.123234e-17 0.000000e+00 1.000000e+00
    outer loop
      vertex 4.921250e+01 3.492500e+01 7.105427e-15
      vertex 5.356413e+01 3.313717e+01 7.105427e-15
      vertex 5.360717e+01 3.314283e+01 7.105427e-15
    endloop
  endfacet
  facet normal -6.123234e-17 0.000000e+00 1.000000e+00
    outer loop
      vertex 4.921250e+01 3.492500e+01 7.105427e-15
      vertex 5.360717e+01 3.314283e+01 7.105427e-15
      vertex 5.397500e+01 3.319126e+01 7.105427e-15
    endloop
  endfacet
  facet normal -6.123234e-17 0.000000e+00 1.000000e+00
    outer loop
      vertex 4.921250e+01 3.492500e+01 7.105427e-15
      vertex 5.397500e+01 3.319126e+01 7.105427e-15
      vertex 5.873750e+01 3.492500e+01 7.105427e-15
    endloop
  endfacet
  facet normal -6.123234e-17 0.000000e+00 1.000000e+00
    outer loop
      vertex 4.921250e+01 6.350002e+00 7.105427e-15
      vertex -5.873750e+01 -3.492500e+01 0.000000e+00
      vertex 4.921250e+01 -3.492500e+01 7.105427e-15
    endloop
  endfacet
  facet normal -6.123234e-17 0.000000e+00 1.000000e+00
    outer loop
      vertex -5.873750e+01 -3.492500e+01 0.000000e+00
      vertex 4.921250e+01 6.350002e+00 7.105427e-15
      vertex -5.873750e+01 1.587500e+01 0.000000e+00
    endloop
  endfacet
  facet normal -6.123234e-17 0.000000e+00 1.000000e+00
    outer loop
      vertex -5.873750e+01 1.587500e+01 0.000000e+00
      vertex 4.921250e+01 6.350002e+00 7.105427e-15
      vertex 4.921250e+01 1.587500e+01 7.105427e-15
    endloop
  endfacet
  facet normal 1.000000e+00 0.000000e+00 6.123234e-17
    outer loop
      vertex 4.921250e+01 -3.492500e+01 7.105427e-15
      vertex 4.921250e+01 6.350002e+00 9.525000e+00
      vertex 4.921250e+01 -3.492500e+01 9.525000e+00
    endloop
  endfacet
  facet normal 1.000000e+00 0.000000e+00 6.123234e-17
    outer loop
      vertex 4.921250e+01 6.350002e+00 9.525000e+00
      vertex 4.921250e+01 -3.492500e+01 7.105427e-15
      vertex 4.921250e+01 6.350002e+00 7.105427e-15
    endloop
  endfacet
  facet normal -3.870095e-14 -1.000000e+00 -2.369750e-30
    outer loop
      vertex 5.397500e+01 3.001625e+01 7.105427e-15
      vertex 5.393195e+01 3.002192e+01 9.525000e+00
      vertex 5.393195e+01 3.002192e+01 7.105427e-15
    endloop
  endfacet
  facet normal -1.305262e-01 -9.914449e-01 -7.992423e-18
    outer loop
      vertex 5.393195e+01 3.002192e+01 9.525000e+00
      vertex 5.397500e+01 3.001625e+01 7.105427e-15
      vertex 5.397500e+01 3.001625e+01 9.525000e+00
    endloop
  endfacet
  facet normal 1.305262e-01 -9.914449e-01 7.992423e-18
    outer loop
      vertex 5.434282e+01 3.006469e+01 7.105427e-15
      vertex 5.397500e+01 3.001625e+01 9.525000e+00
      vertex 5.397500e+01 3.001625e+01 7.105427e-15
    endloop
  endfacet
  facet normal -3.870095e-14 -1.000000e+00 -2.369750e-30
    outer loop
      vertex 5.397500e+01 3.001625e+01 9.525000e+00
      vertex 5.434282e+01 3.006469e+01 7.105427e-15
      vertex 5.434282e+01 3.006469e+01 9.525000e+00
    endloop
  endfacet
  facet normal 2.588190e-01 -9.659258e-01 1.584810e-17
    outer loop
      vertex 5.438588e+01 3.007035e+01 7.105427e-15
      vertex 5.434282e+01 3.006469e+01 9.525000e+00
      vertex 5.434282e+01 3.006469e+01 7.105427e-15
    endloop
  endfacet
  facet normal 1.305262e-01 -9.914449e-01 7.992423e-18
    outer loop
      vertex 5.434282e+01 3.006469e+01 9.525000e+00
      vertex 5.438588e+01 3.007035e+01 7.105427e-15
      vertex 5.438588e+01 3.007035e+01 9.525000e+00
    endloop
  endfacet
  facet normal 3.826834e-01 -9.238795e-01 2.343260e-17
    outer loop
      vertex 5.472863e+01 3.021232e+01 7.105427e-15
      vertex 5.438588e+01 3.007035e+01 9.525000e+00
      vertex 5.438588e+01 3.007035e+01 7.105427e-15
    endloop
  endfacet
  facet normal 2.588190e-01 -9.659258e-01 1.584810e-17
    outer loop
      vertex 5.438588e+01 3.007035e+01 9.525000e+00
      vertex 5.472863e+01 3.021232e+01 7.105427e-15
      vertex 5.472863e+01 3.021232e+01 9.525000e+00
    endloop
  endfacet
  facet normal 5.000000e-01 -8.660254e-01 3.061617e-17
    outer loop
      vertex 5.476875e+01 3.022894e+01 7.105427e-15
      vertex 5.472863e+01 3.021232e+01 9.525000e+00
      vertex 5.472863e+01 3.021232e+01 7.105427e-15
    endloop
  endfacet
  facet normal 3.826834e-01 -9.238795e-01 2.343260e-17
    outer loop
      vertex 5.472863e+01 3.021232e+01 9.525000e+00
      vertex 5.476875e+01 3.022894e+01 7.105427e-15
      vertex 5.476875e+01 3.022894e+01 9.525000e+00
    endloop
  endfacet
  facet normal 6.087614e-01 -7.933533e-01 3.727589e-17
    outer loop
      vertex 5.506308e+01 3.045479e+01 7.105427e-15
      vertex 5.476875e+01 3.022894e+01 9.525000e+00
      vertex 5.476875e+01 3.022894e+01 7.105427e-15
    endloop
  endfacet
  facet normal 5.000000e-01 -8.660254e-01 3.061617e-17
    outer loop
      vertex 5.476875e+01 3.022894e+01 9.525000e+00
      vertex 5.506308e+01 3.045479e+01 7.105427e-15
      vertex 5.506308e+01 3.045479e+01 9.525000e+00
    endloop
  endfacet
  facet normal 7.071068e-01 -7.071068e-01 4.329780e-17
    outer loop
      vertex 5.509753e+01 3.048123e+01 7.105427e-15
      vertex 5.506308e+01 3.045479e+01 9.525000e+00
      vertex 5.506308e+01 3.045479e+01 7.105427e-15
    endloop
  endfacet
  facet normal 6.087614e-01 -7.933533e-01 3.727589e-17
    outer loop
      vertex 5.506308e+01 3.045479e+01 9.525000e+00
      vertex 5.509753e+01 3.048123e+01 7.105427e-15
      vertex 5.509753e+01 3.048123e+01 9.525000e+00
    endloop
  endfacet
  facet normal 7.071068e-01 -7.071068e-01 4.329780e-17
    outer loop
      vertex 5.509753e+01 3.048123e+01 7.105427e-15
      vertex 5.532338e+01 3.077556e+01 9.525000e+00
      vertex 5.509753e+01 3.048123e+01 9.525000e+00
    endloop
  endfacet
  facet normal 7.933533e-01 -6.087614e-01 4.857888e-17
    outer loop
      vertex 5.532338e+01 3.077556e+01 9.525000e+00
      vertex 5.509753e+01 3.048123e+01 7.105427e-15
      vertex 5.532338e+01 3.077556e+01 7.105427e-15
    endloop
  endfacet
  facet normal 7.933533e-01 -6.087614e-01 4.857888e-17
    outer loop
      vertex 5.532338e+01 3.077556e+01 7.105427e-15
      vertex 5.534982e+01 3.081001e+01 9.525000e+00
      vertex 5.532338e+01 3.077556e+01 9.525000e+00
    endloop
  endfacet
  facet normal 8.660254e-01 -5.000000e-01 5.302876e-17
    outer loop
      vertex 5.534982e+01 3.081001e+01 9.525000e+00
      vertex 5.532338e+01 3.077556e+01 7.105427e-15
      vertex 5.534982e+01 3.081001e+01 7.105427e-15
    endloop
  endfacet
  facet normal 8.660254e-01 -5.000000e-01 5.302876e-17
    outer loop
      vertex 5.534982e+01 3.081001e+01 7.105427e-15
      vertex 5.549179e+01 3.115277e+01 9.525000e+00
      vertex 5.534982e+01 3.081001e+01 9.525000e+00
    endloop
  endfacet
  facet normal 9.238795e-01 -3.826834e-01 5.657131e-17
    outer loop
      vertex 5.549179e+01 3.115277e+01 9.525000e+00
      vertex 5.534982e+01 3.081001e+01 7.105427e-15
      vertex 5.549179e+01 3.115277e+01 7.105427e-15
    endloop
  endfacet
  facet normal 9.238795e-01 -3.826834e-01 5.657131e-17
    outer loop
      vertex 5.549179e+01 3.115277e+01 7.105427e-15
      vertex 5.550841e+01 3.119288e+01 9.525000e+00
      vertex 5.549179e+01 3.115277e+01 9.525000e+00
    endloop
  endfacet
  facet normal 9.659258e-01 -2.588190e-01 5.914590e-17
    outer loop
      vertex 5.550841e+01 3.119288e+01 9.525000e+00
      vertex 5.549179e+01 3.115277e+01 7.105427e-15
      vertex 5.550841e+01 3.119288e+01 7.105427e-15
    endloop
  endfacet
  facet normal 9.659258e-01 -2.588190e-01 5.914590e-17
    outer loop
      vertex 5.550841e+01 3.119288e+01 7.105427e-15
      vertex 5.555684e+01 3.156071e+01 9.525000e+00
      vertex 5.550841e+01 3.119288e+01 9.525000e+00
    endloop
  endfacet
  facet normal 9.914449e-01 -1.305262e-01 6.070849e-17
    outer loop
      vertex 5.555684e+01 3.156071e+01 9.525000e+00
      vertex 5.550841e+01 3.119288e+01 7.105427e-15
      vertex 5.555684e+01 3.156071e+01 7.105427e-15
    endloop
  endfacet
  facet normal 9.914449e-01 -1.305262e-01 6.070849e-17
    outer loop
      vertex 5.555684e+01 3.156071e+01 7.105427e-15
      vertex 5.556250e+01 3.160376e+01 9.525000e+00
      vertex 5.555684e+01 3.156071e+01 9.525000e+00
    endloop
  endfacet
  facet normal 1.000000e+00 -3.871877e-14 6.123234e-17
    outer loop
      vertex 5.556250e+01 3.160376e+01 9.525000e+00
      vertex 5.555684e+01 3.156071e+01 7.105427e-15
      vertex 5.556250e+01 3.160376e+01 7.105427e-15
    endloop
  endfacet
  facet normal 1.000000e+00 -3.871877e-14 6.123234e-17
    outer loop
      vertex 5.556250e+01 3.160376e+01 7.105427e-15
      vertex 5.551407e+01 3.197158e+01 9.525000e+00
      vertex 5.556250e+01 3.160376e+01 9.525000e+00
    endloop
  endfacet
  facet normal 9.914449e-01 1.305262e-01 6.070849e-17
    outer loop
      vertex 5.551407e+01 3.197158e+01 9.525000e+00
      vertex 5.556250e+01 3.160376e+01 7.105427e-15
      vertex 5.551407e+01 3.197158e+01 7.105427e-15
    endloop
  endfacet
  facet normal 9.914449e-01 1.305262e-01 6.070849e-17
    outer loop
      vertex 5.551407e+01 3.197158e+01 7.105427e-15
      vertex 5.550841e+01 3.201463e+01 9.525000e+00
      vertex 5.551407e+01 3.197158e+01 9.525000e+00
    endloop
  endfacet
  facet normal 9.659258e-01 2.588190e-01 5.914590e-17
    outer loop
      vertex 5.550841e+01 3.201463e+01 9.525000e+00
      vertex 5.551407e+01 3.197158e+01 7.105427e-15
      vertex 5.550841e+01 3.201463e+01 7.105427e-15
    endloop
  endfacet
  facet normal 9.659258e-01 2.588190e-01 5.914590e-17
    outer loop
      vertex 5.550841e+01 3.201463e+01 7.105427e-15
      vertex 5.536644e+01 3.235740e+01 9.525000e+00
      vertex 5.550841e+01 3.201463e+01 9.525000e+00
    endloop
  endfacet
  facet normal 9.238795e-01 3.826834e-01 5.657131e-17
    outer loop
      vertex 5.536644e+01 3.235740e+01 9.525000e+00
      vertex 5.550841e+01 3.201463e+01 7.105427e-15
      vertex 5.536644e+01 3.235740e+01 7.105427e-15
    endloop
  endfacet
  facet normal 9.238795e-01 3.826834e-01 5.657131e-17
    outer loop
      vertex 5.536644e+01 3.235740e+01 7.105427e-15
      vertex 5.534982e+01 3.239751e+01 9.525000e+00
      vertex 5.536644e+01 3.235740e+01 9.525000e+00
    endloop
  endfacet
  facet normal 8.660254e-01 5.000000e-01 5.302876e-17
    outer loop
      vertex 5.534982e+01 3.239751e+01 9.525000e+00
      vertex 5.536644e+01 3.235740e+01 7.105427e-15
      vertex 5.534982e+01 3.239751e+01 7.105427e-15
    endloop
  endfacet
  facet normal 8.660254e-01 5.000000e-01 5.302876e-17
    outer loop
      vertex 5.534982e+01 3.239751e+01 7.105427e-15
      vertex 5.512397e+01 3.269184e+01 9.525000e+00
      vertex 5.534982e+01 3.239751e+01 9.525000e+00
    endloop
  endfacet
  facet normal 7.933533e-01 6.087614e-01 4.857888e-17
    outer loop
      vertex 5.512397e+01 3.269184e+01 9.525000e+00
      vertex 5.534982e+01 3.239751e+01 7.105427e-15
      vertex 5.512397e+01 3.269184e+01 7.105427e-15
    endloop
  endfacet
  facet normal 7.933533e-01 6.087614e-01 4.857888e-17
    outer loop
      vertex 5.512397e+01 3.269184e+01 7.105427e-15
      vertex 5.509753e+01 3.272629e+01 9.525000e+00
      vertex 5.512397e+01 3.269184e+01 9.525000e+00
    endloop
  endfacet
  facet normal 7.071068e-01 7.071068e-01 4.329780e-17
    outer loop
      vertex 5.509753e+01 3.272629e+01 9.525000e+00
      vertex 5.512397e+01 3.269184e+01 7.105427e-15
      vertex 5.509753e+01 3.272629e+01 7.105427e-15
    endloop
  endfacet
  facet normal 7.071068e-01 7.071068e-01 4.329780e-17
    outer loop
      vertex 5.509753e+01 3.272629e+01 9.525000e+00
      vertex 5.480320e+01 3.295214e+01 7.105427e-15
      vertex 5.480320e+01 3.295214e+01 9.525000e+00
    endloop
  endfacet
  facet normal 6.087614e-01 7.933533e-01 3.727589e-17
    outer loop
      vertex 5.480320e+01 3.295214e+01 7.105427e-15
      vertex 5.509753e+01 3.272629e+01 9.525000e+00
      vertex 5.509753e+01 3.272629e+01 7.105427e-15
    endloop
  endfacet
  facet normal 6.087614e-01 7.933533e-01 3.727589e-17
    outer loop
      vertex 5.480320e+01 3.295214e+01 9.525000e+00
      vertex 5.476875e+01 3.297857e+01 7.105427e-15
      vertex 5.476875e+01 3.297857e+01 9.525000e+00
    endloop
  endfacet
  facet normal 5.000000e-01 8.660254e-01 3.061617e-17
    outer loop
      vertex 5.476875e+01 3.297857e+01 7.105427e-15
      vertex 5.480320e+01 3.295214e+01 9.525000e+00
      vertex 5.480320e+01 3.295214e+01 7.105427e-15
    endloop
  endfacet
  facet normal 5.000000e-01 8.660254e-01 3.061617e-17
    outer loop
      vertex 5.476875e+01 3.297857e+01 9.525000e+00
      vertex 5.442599e+01 3.312055e+01 7.105427e-15
      vertex 5.442599e+01 3.312055e+01 9.525000e+00
    endloop
  endfacet
  facet normal 3.826834e-01 9.238795e-01 2.343260e-17
    outer loop
      vertex 5.442599e+01 3.312055e+01 7.105427e-15
      vertex 5.476875e+01 3.297857e+01 9.525000e+00
      vertex 5.476875e+01 3.297857e+01 7.105427e-15
    endloop
  endfacet
  facet normal 3.826834e-01 9.238795e-01 2.343260e-17
    outer loop
      vertex 5.442599e+01 3.312055e+01 9.525000e+00
      vertex 5.438588e+01 3.313717e+01 7.105427e-15
      vertex 5.438588e+01 3.313717e+01 9.525000e+00
    endloop
  endfacet
  facet normal 2.588190e-01 9.659258e-01 1.584810e-17
    outer loop
      vertex 5.438588e+01 3.313717e+01 7.105427e-15
      vertex 5.442599e+01 3.312055e+01 9.525000e+00
      vertex 5.442599e+01 3.312055e+01 7.105427e-15
    endloop
  endfacet
  facet normal 2.588190e-01 9.659258e-01 1.584810e-17
    outer loop
      vertex 5.438588e+01 3.313717e+01 9.525000e+00
      vertex 5.401805e+01 3.318559e+01 7.105427e-15
      vertex 5.401805e+01 3.318559e+01 9.525000e+00
    endloop
  endfacet
  facet normal 1.305262e-01 9.914449e-01 7.992423e-18
    outer loop
      vertex 5.401805e+01 3.318559e+01 7.105427e-15
      vertex 5.438588e+01 3.313717e+01 9.525000e+00
      vertex 5.438588e+01 3.313717e+01 7.105427e-15
    endloop
  endfacet
  facet normal 1.305262e-01 9.914449e-01 7.992423e-18
    outer loop
      vertex 5.401805e+01 3.318559e+01 9.525000e+00
      vertex 5.397500e+01 3.319126e+01 7.105427e-15
      vertex 5.397500e+01 3.319126e+01 9.525000e+00
    endloop
  endfacet
  facet normal 3.870095e-14 1.000000e+00 2.369750e-30
    outer loop
      vertex 5.397500e+01 3.319126e+01 7.105427e-15
      vertex 5.401805e+01 3.318559e+01 9.525000e+00
      vertex 5.401805e+01 3.318559e+01 7.105427e-15
    endloop
  endfacet
  facet normal 3.870095e-14 1.000000e+00 2.369750e-30
    outer loop
      vertex 5.397500e+01 3.319126e+01 9.525000e+00
      vertex 5.360717e+01 3.314283e+01 7.105427e-15
      vertex 5.360717e+01 3.314283e+01 9.525000e+00
    endloop
  endfacet
  facet normal -1.305262e-01 9.914449e-01 -7.992423e-18
    outer loop
      vertex 5.360717e+01 3.314283e+01 7.105427e-15
      vertex 5.397500e+01 3.319126e+01 9.525000e+00
      vertex 5.397500e+01 3.319126e+01 7.105427e-15
    endloop
  endfacet
  facet normal -1.305262e-01 9.914449e-01 -7.992423e-18
    outer loop
      vertex 5.360717e+01 3.314283e+01 9.525000e+00
      vertex 5.356413e+01 3.313717e+01 7.105427e-15
      vertex 5.356413e+01 3.313717e+01 9.525000e+00
    endloop
  endfacet
  facet normal -2.588190e-01 9.659258e-01 -1.584810e-17
    outer loop
      vertex 5.356413e+01 3.313717e+01 7.105427e-15
      vertex 5.360717e+01 3.314283e+01 9.525000e+00
      vertex 5.360717e+01 3.314283e+01 7.105427e-15
    endloop
  endfacet
  facet normal -2.588190e-01 9.659258e-01 -1.584810e-17
    outer loop
      vertex 5.356413e+01 3.313717e+01 9.525000e+00
      vertex 5.322136e+01 3.299519e+01 7.105427e-15
      vertex 5.322136e+01 3.299519e+01 9.525000e+00
    endloop
  endfacet
  facet normal -3.826834e-01 9.238795e-01 -2.343260e-17
    outer loop
      vertex 5.322136e+01 3.299519e+01 7.105427e-15
      vertex 5.356413e+01 3.313717e+01 9.525000e+00
      vertex 5.356413e+01 3.313717e+01 7.105427e-15
    endloop
  endfacet
  facet normal -3.826834e-01 9.238795e-01 -2.343260e-17
    outer loop
      vertex 5.322136e+01 3.299519e+01 9.525000e+00
      vertex 5.318125e+01 3.297857e+01 7.105427e-15
      vertex 5.318125e+01 3.297857e+01 9.525000e+00
    endloop
  endfacet
  facet normal -5.000000e-01 8.660254e-01 -3.061617e-17
    outer loop
      vertex 5.318125e+01 3.297857e+01 7.105427e-15
      vertex 5.322136e+01 3.299519e+01 9.525000e+00
      vertex 5.322136e+01 3.299519e+01 7.105427e-15
    endloop
  endfacet
  facet normal -5.000000e-01 8.660254e-01 -3.061617e-17
    outer loop
      vertex 5.318125e+01 3.297857e+01 9.525000e+00
      vertex 5.288691e+01 3.275272e+01 7.105427e-15
      vertex 5.288691e+01 3.275272e+01 9.525000e+00
    endloop
  endfacet
  facet normal -6.087614e-01 7.933533e-01 -3.727589e-17
    outer loop
      vertex 5.288691e+01 3.275272e+01 7.105427e-15
      vertex 5.318125e+01 3.297857e+01 9.525000e+00
      vertex 5.318125e+01 3.297857e+01 7.105427e-15
    endloop
  endfacet
  facet normal -6.087614e-01 7.933533e-01 -3.727589e-17
    outer loop
      vertex 5.288691e+01 3.275272e+01 9.525000e+00
      vertex 5.285247e+01 3.272629e+01 7.105427e-15
      vertex 5.285247e+01 3.272629e+01 9.525000e+00
    endloop
  endfacet
  facet normal -7.071068e-01 7.071068e-01 -4.329780e-17
    outer loop
      vertex 5.285247e+01 3.272629e+01 7.105427e-15
      vertex 5.288691e+01 3.275272e+01 9.525000e+00
      vertex 5.288691e+01 3.275272e+01 7.105427e-15
    endloop
  endfacet
  facet normal -7.071068e-01 7.071068e-01 -4.329780e-17
    outer loop
      vertex 5.285247e+01 3.272629e+01 7.105427e-15
      vertex 5.262662e+01 3.243196e+01 9.525000e+00
      vertex 5.285247e+01 3.272629e+01 9.525000e+00
    endloop
  endfacet
  facet normal -7.933533e-01 6.087614e-01 -4.857888e-17
    outer loop
      vertex 5.262662e+01 3.243196e+01 9.525000e+00
      vertex 5.285247e+01 3.272629e+01 7.105427e-15
      vertex 5.262662e+01 3.243196e+01 7.105427e-15
    endloop
  endfacet
  facet normal -7.933533e-01 6.087614e-01 -4.857888e-17
    outer loop
      vertex 5.262662e+01 3.243196e+01 7.105427e-15
      vertex 5.260019e+01 3.239751e+01 9.525000e+00
      vertex 5.262662e+01 3.243196e+01 9.525000e+00
    endloop
  endfacet
  facet normal -8.660254e-01 5.000000e-01 -5.302876e-17
    outer loop
      vertex 5.260019e+01 3.239751e+01 9.525000e+00
      vertex 5.262662e+01 3.243196e+01 7.105427e-15
      vertex 5.260019e+01 3.239751e+01 7.105427e-15
    endloop
  endfacet
  facet normal -8.660254e-01 5.000000e-01 -5.302876e-17
    outer loop
      vertex 5.260019e+01 3.239751e+01 7.105427e-15
      vertex 5.245821e+01 3.205474e+01 9.525000e+00
      vertex 5.260019e+01 3.239751e+01 9.525000e+00
    endloop
  endfacet
  facet normal -9.238795e-01 3.826834e-01 -5.657131e-17
    outer loop
      vertex 5.245821e+01 3.205474e+01 9.525000e+00
      vertex 5.260019e+01 3.239751e+01 7.105427e-15
      vertex 5.245821e+01 3.205474e+01 7.105427e-15
    endloop
  endfacet
  facet normal -9.238795e-01 3.826834e-01 -5.657131e-17
    outer loop
      vertex 5.245821e+01 3.205474e+01 7.105427e-15
      vertex 5.244159e+01 3.201463e+01 9.525000e+00
      vertex 5.245821e+01 3.205474e+01 9.525000e+00
    endloop
  endfacet
  facet normal -9.659258e-01 2.588190e-01 -5.914590e-17
    outer loop
      vertex 5.244159e+01 3.201463e+01 9.525000e+00
      vertex 5.245821e+01 3.205474e+01 7.105427e-15
      vertex 5.244159e+01 3.201463e+01 7.105427e-15
    endloop
  endfacet
  facet normal -9.659258e-01 2.588190e-01 -5.914590e-17
    outer loop
      vertex 5.244159e+01 3.201463e+01 7.105427e-15
      vertex 5.239317e+01 3.164681e+01 9.525000e+00
      vertex 5.244159e+01 3.201463e+01 9.525000e+00
    endloop
  endfacet
  facet normal -9.914449e-01 1.305262e-01 -6.070849e-17
    outer loop
      vertex 5.239317e+01 3.164681e+01 9.525000e+00
      vertex 5.244159e+01 3.201463e+01 7.105427e-15
      vertex 5.239317e+01 3.164681e+01 7.105427e-15
    endloop
  endfacet
  facet normal -9.914449e-01 1.305262e-01 -6.070849e-17
    outer loop
      vertex 5.239317e+01 3.164681e+01 7.105427e-15
      vertex 5.238750e+01 3.160376e+01 9.525000e+00
      vertex 5.239317e+01 3.164681e+01 9.525000e+00
    endloop
  endfacet
  facet normal -1.000000e+00 3.871877e-14 -6.123234e-17
    outer loop
      vertex 5.238750e+01 3.160376e+01 9.525000e+00
      vertex 5.239317e+01 3.164681e+01 7.105427e-15
      vertex 5.238750e+01 3.160376e+01 7.105427e-15
    endloop
  endfacet
  facet normal -1.000000e+00 3.871877e-14 -6.123234e-17
    outer loop
      vertex 5.238750e+01 3.160376e+01 7.105427e-15
      vertex 5.243592e+01 3.123594e+01 9.525000e+00
      vertex 5.238750e+01 3.160376e+01 9.525000e+00
    endloop
  endfacet
  facet normal -9.914449e-01 -1.305262e-01 -6.070849e-17
    outer loop
      vertex 5.243592e+01 3.123594e+01 9.525000e+00
      vertex 5.238750e+01 3.160376e+01 7.105427e-15
      vertex 5.243592e+01 3.123594e+01 7.105427e-15
    endloop
  endfacet
  facet normal -9.914449e-01 -1.305262e-01 -6.070849e-17
    outer loop
      vertex 5.243592e+01 3.123594e+01 7.105427e-15
      vertex 5.244159e+01 3.119288e+01 9.525000e+00
      vertex 5.243592e+01 3.123594e+01 9.525000e+00
    endloop
  endfacet
  facet normal -9.659258e-01 -2.588190e-01 -5.914590e-17
    outer loop
      vertex 5.244159e+01 3.119288e+01 9.525000e+00
      vertex 5.243592e+01 3.123594e+01 7.105427e-15
      vertex 5.244159e+01 3.119288e+01 7.105427e-15
    endloop
  endfacet
  facet normal -9.659258e-01 -2.588190e-01 -5.914590e-17
    outer loop
      vertex 5.244159e+01 3.119288e+01 7.105427e-15
      vertex 5.258357e+01 3.085012e+01 9.525000e+00
      vertex 5.244159e+01 3.119288e+01 9.525000e+00
    endloop
  endfacet
  facet normal -9.238795e-01 -3.826834e-01 -5.657131e-17
    outer loop
      vertex 5.258357e+01 3.085012e+01 9.525000e+00
      vertex 5.244159e+01 3.119288e+01 7.105427e-15
      vertex 5.258357e+01 3.085012e+01 7.105427e-15
    endloop
  endfacet
  facet normal -9.238795e-01 -3.826834e-01 -5.657131e-17
    outer loop
      vertex 5.258357e+01 3.085012e+01 7.105427e-15
      vertex 5.260019e+01 3.081001e+01 9.525000e+00
      vertex 5.258357e+01 3.085012e+01 9.525000e+00
    endloop
  endfacet
  facet normal -8.660254e-01 -5.000000e-01 -5.302876e-17
    outer loop
      vertex 5.260019e+01 3.081001e+01 9.525000e+00
      vertex 5.258357e+01 3.085012e+01 7.105427e-15
      vertex 5.260019e+01 3.081001e+01 7.105427e-15
    endloop
  endfacet
  facet normal -8.660254e-01 -5.000000e-01 -5.302876e-17
    outer loop
      vertex 5.260019e+01 3.081001e+01 7.105427e-15
      vertex 5.282604e+01 3.051567e+01 9.525000e+00
      vertex 5.260019e+01 3.081001e+01 9.525000e+00
    endloop
  endfacet
  facet normal -7.933533e-01 -6.087614e-01 -4.857888e-17
    outer loop
      vertex 5.282604e+01 3.051567e+01 9.525000e+00
      vertex 5.260019e+01 3.081001e+01 7.105427e-15
      vertex 5.282604e+01 3.051567e+01 7.105427e-15
    endloop
  endfacet
  facet normal -7.933533e-01 -6.087614e-01 -4.857888e-17
    outer loop
      vertex 5.282604e+01 3.051567e+01 7.105427e-15
      vertex 5.285247e+01 3.048123e+01 9.525000e+00
      vertex 5.282604e+01 3.051567e+01 9.525000e+00
    endloop
  endfacet
  facet normal -7.071068e-01 -7.071068e-01 -4.329780e-17
    outer loop
      vertex 5.285247e+01 3.048123e+01 9.525000e+00
      vertex 5.282604e+01 3.051567e+01 7.105427e-15
      vertex 5.285247e+01 3.048123e+01 7.105427e-15
    endloop
  endfacet
  facet normal -6.087614e-01 -7.933533e-01 -3.727589e-17
    outer loop
      vertex 5.314680e+01 3.025537e+01 7.105427e-15
      vertex 5.285247e+01 3.048123e+01 9.525000e+00
      vertex 5.285247e+01 3.048123e+01 7.105427e-15
    endloop
  endfacet
  facet normal -7.071068e-01 -7.071068e-01 -4.329780e-17
    outer loop
      vertex 5.285247e+01 3.048123e+01 9.525000e+00
      vertex 5.314680e+01 3.025537e+01 7.105427e-15
      vertex 5.314680e+01 3.025537e+01 9.525000e+00
    endloop
  endfacet
  facet normal -5.000000e-01 -8.660254e-01 -3.061617e-17
    outer loop
      vertex 5.318125e+01 3.022894e+01 7.105427e-15
      vertex 5.314680e+01 3.025537e+01 9.525000e+00
      vertex 5.314680e+01 3.025537e+01 7.105427e-15
    endloop
  endfacet
  facet normal -6.087614e-01 -7.933533e-01 -3.727589e-17
    outer loop
      vertex 5.314680e+01 3.025537e+01 9.525000e+00
      vertex 5.318125e+01 3.022894e+01 7.105427e-15
      vertex 5.318125e+01 3.022894e+01 9.525000e+00
    endloop
  endfacet
  facet normal -3.826834e-01 -9.238795e-01 -2.343260e-17
    outer loop
      vertex 5.352401e+01 3.008696e+01 7.105427e-15
      vertex 5.318125e+01 3.022894e+01 9.525000e+00
      vertex 5.318125e+01 3.022894e+01 7.105427e-15
    endloop
  endfacet
  facet normal -5.000000e-01 -8.660254e-01 -3.061617e-17
    outer loop
      vertex 5.318125e+01 3.022894e+01 9.525000e+00
      vertex 5.352401e+01 3.008696e+01 7.105427e-15
      vertex 5.352401e+01 3.008696e+01 9.525000e+00
    endloop
  endfacet
  facet normal -2.588190e-01 -9.659258e-01 -1.584810e-17
    outer loop
      vertex 5.356413e+01 3.007035e+01 7.105427e-15
      vertex 5.352401e+01 3.008696e+01 9.525000e+00
      vertex 5.352401e+01 3.008696e+01 7.105427e-15
    endloop
  endfacet
  facet normal -3.826834e-01 -9.238795e-01 -2.343260e-17
    outer loop
      vertex 5.352401e+01 3.008696e+01 9.525000e+00
      vertex 5.356413e+01 3.007035e+01 7.105427e-15
      vertex 5.356413e+01 3.007035e+01 9.525000e+00
    endloop
  endfacet
  facet normal -1.305262e-01 -9.914449e-01 -7.992423e-18
    outer loop
      vertex 5.393195e+01 3.002192e+01 7.105427e-15
      vertex 5.356413e+01 3.007035e+01 9.525000e+00
      vertex 5.356413e+01 3.007035e+01 7.105427e-15
    endloop
  endfacet
  facet normal -2.588190e-01 -9.659258e-01 -1.584810e-17
    outer loop
      vertex 5.356413e+01 3.007035e+01 9.525000e+00
      vertex 5.393195e+01 3.002192e+01 7.105427e-15
      vertex 5.393195e+01 3.002192e+01 9.525000e+00
    endloop
  endfacet
  facet normal -1.000000e+00 0.000000e+00 -6.123234e-17
    outer loop
      vertex -5.873750e+01 1.587500e+01 0.000000e+00
      vertex -5.873750e+01 -3.492500e+01 3.175000e+00
      vertex -5.873750e+01 1.587500e+01 3.175000e+00
    endloop
  endfacet
  facet normal -1.000000e+00 0.000000e+00 -6.123234e-17
    outer loop
      vertex -5.873750e+01 -3.492500e+01 3.175000e+00
      vertex -5.873750e+01 1.587500e+01 0.000000e+00
      vertex -5.873750e+01 -3.492500e+01 0.000000e+00
    endloop
  endfacet
endsolid Default
