solid railguide
facet normal 0.707106781186546 0.0 0.707106781186549
outer loop
vertex 95.25 25.4 25.4000000000001
vertex 82.55 0.0 38.1000000000001
vertex 95.25 0.0 25.4000000000001
endloop
endfacet
facet normal 0.707106781186546 0.0 0.707106781186549
outer loop
vertex 82.55 0.0 38.1000000000001
vertex 95.25 25.4 25.4000000000001
vertex 85.7858348819086 17.6483013234374 34.8641651180915
endloop
endfacet
facet normal 0.707106781186546 0.0 0.707106781186549
outer loop
vertex 82.55 0.0 38.1000000000001
vertex 85.7858348819086 17.6483013234374 34.8641651180915
vertex 85.5258455118086 17.4571062959068 35.1241544881914
endloop
endfacet
facet normal 0.707106781186546 0.0 0.707106781186549
outer loop
vertex 82.55 0.0 38.1000000000001
vertex 85.5258455118086 17.4571062959068 35.1241544881914
vertex 85.2397239460917 17.3675887951274 35.4102760539083
endloop
endfacet
facet normal 0.707106781186546 0.0 0.707106781186549
outer loop
vertex 85.7858348819086 17.6483013234374 34.8641651180915
vertex 95.25 25.4 25.4000000000001
vertex 86.001974210472 17.9281442525578 34.648025789528
endloop
endfacet
facet normal 0.707106781186546 0.0 0.707106781186549
outer loop
vertex 86.001974210472 17.9281442525578 34.648025789528
vertex 95.25 25.4 25.4000000000001
vertex 86.1595339594444 18.2775642501107 34.4904660405556
endloop
endfacet
facet normal 0.707106781186546 0.0 0.707106781186549
outer loop
vertex 86.1595339594444 18.2775642501107 34.4904660405556
vertex 95.25 25.4 25.4000000000001
vertex 86.2477766923133 18.6727489207067 34.4022233076868
endloop
endfacet
facet normal 0.707106781186546 0.0 0.707106781186549
outer loop
vertex 86.2477766923133 18.6727489207067 34.4022233076868
vertex 95.25 25.4 25.4000000000001
vertex 86.2606888126614 19.0867670821183 34.3893111873387
endloop
endfacet
facet normal 0.707106781186546 0.0 0.707106781186549
outer loop
vertex 86.2606888126614 19.0867670821183 34.3893111873387
vertex 95.25 25.4 25.4000000000001
vertex 86.1973903808254 19.4914040808425 34.4526096191746
endloop
endfacet
facet normal 0.707106781186546 0.0 0.707106781186549
outer loop
vertex 86.1973903808254 19.4914040808425 34.4526096191746
vertex 95.25 25.4 25.4000000000001
vertex 86.0621950803294 19.8590845741107 34.5878049196707
endloop
endfacet
facet normal 0.707106781186546 0.0 0.707106781186549
outer loop
vertex 86.0621950803294 19.8590845741107 34.5878049196707
vertex 95.25 25.4 25.4000000000001
vertex 85.8643162474813 20.1647517439274 34.7856837525188
endloop
endfacet
facet normal 0.707106781186546 0.0 0.707106781186549
outer loop
vertex 85.8643162474813 20.1647517439274 34.7856837525188
vertex 95.25 25.4 25.4000000000001
vertex 85.6172389977294 20.3875748778083 35.0327610022706
endloop
endfacet
facet normal 0.707106781186546 0.0 0.707106781186549
outer loop
vertex 85.6172389977294 20.3875748778083 35.0327610022706
vertex 95.25 25.4 25.4000000000001
vertex 85.33780123733 20.5123689474122 35.31219876267
endloop
endfacet
facet normal 0.707106781186546 0.0 0.707106781186549
outer loop
vertex 85.33780123733 20.5123689474122 35.31219876267
vertex 95.25 25.4 25.4000000000001
vertex 85.0450461878615 20.5306294431276 35.6049538121385
endloop
endfacet
facet normal 0.707106781186546 0.0 0.707106781186549
outer loop
vertex 82.55 0.0 38.1000000000001
vertex 84.0873797531278 18.4068141574125 36.5626202468722
vertex 82.55 25.4 38.1000000000001
endloop
endfacet
facet normal 0.707106781186546 0.0 0.707106781186549
outer loop
vertex 84.0873797531278 18.4068141574125 36.5626202468722
vertex 82.55 0.0 38.1000000000001
vertex 84.2225750536238 18.0391336641443 36.4274249463762
endloop
endfacet
facet normal 0.707106781186546 0.0 0.707106781186549
outer loop
vertex 84.2225750536238 18.0391336641443 36.4274249463762
vertex 82.55 0.0 38.1000000000001
vertex 84.4204538864719 17.7334664943276 36.2295461135281
endloop
endfacet
facet normal 0.707106781186546 0.0 0.707106781186549
outer loop
vertex 84.4204538864719 17.7334664943276 36.2295461135281
vertex 82.55 0.0 38.1000000000001
vertex 84.6675311362238 17.5106433604467 35.9824688637762
endloop
endfacet
facet normal 0.707106781186546 0.0 0.707106781186549
outer loop
vertex 84.6675311362238 17.5106433604467 35.9824688637762
vertex 82.55 0.0 38.1000000000001
vertex 84.9469688966232 17.3858492908428 35.7030311033768
endloop
endfacet
facet normal 0.707106781186546 0.0 0.707106781186549
outer loop
vertex 84.9469688966232 17.3858492908428 35.7030311033768
vertex 82.55 0.0 38.1000000000001
vertex 85.2397239460917 17.3675887951274 35.4102760539083
endloop
endfacet
facet normal 0.707106781186546 0.0 0.707106781186549
outer loop
vertex 82.55 25.4 38.1000000000001
vertex 84.0873797531278 18.4068141574125 36.5626202468722
vertex 84.0240813212918 18.8114511561367 36.6259186787082
endloop
endfacet
facet normal 0.707106781186546 0.0 0.707106781186549
outer loop
vertex 82.55 25.4 38.1000000000001
vertex 84.0240813212918 18.8114511561367 36.6259186787082
vertex 84.0369934416399 19.2254693175483 36.6130065583601
endloop
endfacet
facet normal 0.707106781186546 0.0 0.707106781186549
outer loop
vertex 82.55 25.4 38.1000000000001
vertex 84.0369934416399 19.2254693175483 36.6130065583601
vertex 84.1252361745087 19.6206539881443 36.5247638254913
endloop
endfacet
facet normal 0.707106781186546 0.0 0.707106781186549
outer loop
vertex 82.55 25.4 38.1000000000001
vertex 84.1252361745087 19.6206539881443 36.5247638254913
vertex 84.2827959234812 19.9700739856972 36.3672040765188
endloop
endfacet
facet normal 0.707106781186546 0.0 0.707106781186549
outer loop
vertex 82.55 25.4 38.1000000000001
vertex 84.2827959234812 19.9700739856972 36.3672040765188
vertex 84.4989352520446 20.2499169148176 36.1510647479554
endloop
endfacet
facet normal 0.707106781186546 0.0 0.707106781186549
outer loop
vertex 82.55 25.4 38.1000000000001
vertex 84.4989352520446 20.2499169148176 36.1510647479554
vertex 84.7589246221446 20.4411119423482 35.8910753778555
endloop
endfacet
facet normal 0.707106781186546 0.0 0.707106781186549
outer loop
vertex 82.55 25.4 38.1000000000001
vertex 84.7589246221446 20.4411119423482 35.8910753778555
vertex 85.0450461878615 20.5306294431276 35.6049538121385
endloop
endfacet
facet normal 0.707106781186546 0.0 0.707106781186549
outer loop
vertex 82.55 25.4 38.1000000000001
vertex 85.0450461878615 20.5306294431276 35.6049538121385
vertex 95.25 25.4 25.4000000000001
endloop
endfacet
facet normal 0.0 1.0 0.0
outer loop
vertex 82.55 25.4 38.1000000000001
vertex 79.4590994 25.4 15.7909006000001
vertex 69.85 25.4 25.4
endloop
endfacet
facet normal 0.0 1.0 0.0
outer loop
vertex 12.039854 25.4 21.43125
vertex -1.76247905159249e-16 25.4 0.0
vertex -1.59394199228391e-14 25.4 21.43125
endloop
endfacet
facet normal 0.0 1.0 0.0
outer loop
vertex -1.76247905159249e-16 25.4 0.0
vertex 12.039854 25.4 21.43125
vertex 12.039854 25.4 6.35000000000001
endloop
endfacet
facet normal 0.0 1.0 0.0
outer loop
vertex -1.76247905159249e-16 25.4 0.0
vertex 12.039854 25.4 6.35000000000001
vertex 82.55 25.4 6.20392626160537e-14
endloop
endfacet
facet normal 0.0 1.0 0.0
outer loop
vertex 82.55 25.4 6.20392626160537e-14
vertex 12.039854 25.4 6.35000000000001
vertex 70.0181988 25.4 6.35000000000005
endloop
endfacet
facet normal 0.0 1.0 0.0
outer loop
vertex 82.55 25.4 6.20392626160537e-14
vertex 70.0181988 25.4 6.35000000000005
vertex 79.4590994 25.4 15.7909006000001
endloop
endfacet
facet normal 0.0 1.0 0.0
outer loop
vertex 82.55 25.4 6.20392626160537e-14
vertex 79.4590994 25.4 15.7909006000001
vertex 82.55 25.4 38.1000000000001
endloop
endfacet
facet normal 0.0 1.0 0.0
outer loop
vertex 82.55 25.4 6.20392626160537e-14
vertex 82.55 25.4 38.1000000000001
vertex 95.25 25.4 25.4000000000001
endloop
endfacet
facet normal 0.0 1.0 0.0
outer loop
vertex 82.55 25.4 6.20392626160537e-14
vertex 95.25 25.4 25.4000000000001
vertex 95.25 25.4 12.7000000000001
endloop
endfacet
facet normal 0.0 -1.0 0.0
outer loop
vertex -1.76247905159249e-16 0.0 0.0
vertex 12.039854 0.0 6.35000000000001
vertex -1.59394199228391e-14 0.0 21.43125
endloop
endfacet
facet normal 0.0 -1.0 0.0
outer loop
vertex 12.039854 0.0 6.35000000000001
vertex -1.76247905159249e-16 0.0 0.0
vertex 82.55 0.0 6.20392626160537e-14
endloop
endfacet
facet normal 0.0 -1.0 0.0
outer loop
vertex 12.039854 0.0 6.35000000000001
vertex 82.55 0.0 6.20392626160537e-14
vertex 70.0181988 0.0 6.35000000000005
endloop
endfacet
facet normal 0.0 -1.0 0.0
outer loop
vertex 70.0181988 0.0 6.35000000000005
vertex 82.55 0.0 6.20392626160537e-14
vertex 79.4590994 0.0 15.7909006000001
endloop
endfacet
facet normal 0.0 -1.0 0.0
outer loop
vertex 79.4590994 0.0 15.7909006000001
vertex 82.55 0.0 6.20392626160537e-14
vertex 82.55 0.0 38.1000000000001
endloop
endfacet
facet normal 0.0 -1.0 0.0
outer loop
vertex 82.55 0.0 38.1000000000001
vertex 82.55 0.0 6.20392626160537e-14
vertex 95.25 0.0 25.4000000000001
endloop
endfacet
facet normal 0.0 -1.0 0.0
outer loop
vertex 95.25 0.0 25.4000000000001
vertex 82.55 0.0 6.20392626160537e-14
vertex 95.25 0.0 12.7000000000001
endloop
endfacet
facet normal 0.0 -1.0 0.0
outer loop
vertex 82.55 0.0 38.1000000000001
vertex 69.85 0.0 25.4
vertex 79.4590994 0.0 15.7909006000001
endloop
endfacet
facet normal 0.0 -1.0 0.0
outer loop
vertex 12.039854 0.0 21.43125
vertex -1.59394199228391e-14 0.0 21.43125
vertex 12.039854 0.0 6.35000000000001
endloop
endfacet
facet normal 0.707106781186548 0.0 -0.707106781186547
outer loop
vertex 82.55 0.0 6.20392626160537e-14
vertex 90.6986350669677 5.12657710399387 8.14863506696781
vertex 95.25 0.0 12.7000000000001
endloop
endfacet
facet normal 0.707106781186548 0.0 -0.707106781186547
outer loop
vertex 90.6986350669677 5.12657710399387 8.14863506696781
vertex 82.55 0.0 6.20392626160537e-14
vertex 90.5202438253006 5.45535911912751 7.97024382530074
endloop
endfacet
facet normal 0.707106781186548 0.0 -0.707106781186547
outer loop
vertex 90.5202438253006 5.45535911912751 7.97024382530074
vertex 82.55 0.0 6.20392626160537e-14
vertex 82.55 25.4 6.20392626160537e-14
endloop
endfacet
facet normal 0.707106781186548 0.0 -0.707106781186547
outer loop
vertex 95.25 0.0 12.7000000000001
vertex 90.6986350669677 5.12657710399387 8.14863506696781
vertex 90.9311190594009 4.87429379061972 8.38111905940099
endloop
endfacet
facet normal 0.707106781186548 0.0 -0.707106781186547
outer loop
vertex 95.25 0.0 12.7000000000001
vertex 90.9311190594009 4.87429379061972 8.38111905940099
vertex 91.2018524027138 4.71570186989362 8.65185240271391
endloop
endfacet
facet normal 0.707106781186548 0.0 -0.707106781186547
outer loop
vertex 95.25 0.0 12.7000000000001
vertex 91.2018524027138 4.71570186989362 8.65185240271391
vertex 91.4923850669677 4.66160911912751 8.94238506696781
endloop
endfacet
facet normal 0.707106781186548 0.0 -0.707106781186547
outer loop
vertex 90.5202438253006 5.45535911912751 7.97024382530074
vertex 82.55 25.4 6.20392626160537e-14
vertex 90.4081024027138 5.83823388502726 7.85810240271391
endloop
endfacet
facet normal 0.707106781186548 0.0 -0.707106781186547
outer loop
vertex 90.4081024027138 5.83823388502726 7.85810240271391
vertex 82.55 25.4 6.20392626160537e-14
vertex 90.3698530518341 6.24910911912751 7.81985305183416
endloop
endfacet
facet normal 0.707106781186548 0.0 -0.707106781186547
outer loop
vertex 90.3698530518341 6.24910911912751 7.81985305183416
vertex 82.55 25.4 6.20392626160537e-14
vertex 90.4081024027138 6.65998435322777 7.85810240271391
endloop
endfacet
facet normal 0.707106781186548 0.0 -0.707106781186547
outer loop
vertex 90.4081024027138 6.65998435322777 7.85810240271391
vertex 82.55 25.4 6.20392626160537e-14
vertex 90.5202438253006 7.04285911912751 7.97024382530074
endloop
endfacet
facet normal 0.707106781186548 0.0 -0.707106781186547
outer loop
vertex 90.5202438253006 7.04285911912751 7.97024382530074
vertex 82.55 25.4 6.20392626160537e-14
vertex 90.6986350669677 7.37164113426116 8.14863506696781
endloop
endfacet
facet normal 0.707106781186548 0.0 -0.707106781186547
outer loop
vertex 90.6986350669677 7.37164113426116 8.14863506696781
vertex 82.55 25.4 6.20392626160537e-14
vertex 90.9311190594009 7.62392444763531 8.38111905940099
endloop
endfacet
facet normal 0.707106781186548 0.0 -0.707106781186547
outer loop
vertex 90.9311190594009 7.62392444763531 8.38111905940099
vertex 82.55 25.4 6.20392626160537e-14
vertex 91.2018524027138 7.78251636836141 8.65185240271391
endloop
endfacet
facet normal 0.707106781186548 0.0 -0.707106781186547
outer loop
vertex 91.2018524027138 7.78251636836141 8.65185240271391
vertex 82.55 25.4 6.20392626160537e-14
vertex 91.4923850669677 7.83660911912751 8.94238506696781
endloop
endfacet
facet normal 0.707106781186548 0.0 -0.707106781186547
outer loop
vertex 95.25 0.0 12.7000000000001
vertex 92.5766677312216 5.83823388502726 10.0266677312217
vertex 95.25 25.4 12.7000000000001
endloop
endfacet
facet normal 0.707106781186548 0.0 -0.707106781186547
outer loop
vertex 92.5766677312216 5.83823388502726 10.0266677312217
vertex 95.25 0.0 12.7000000000001
vertex 92.4645263086348 5.45535911912751 9.91452630863488
endloop
endfacet
facet normal 0.707106781186548 0.0 -0.707106781186547
outer loop
vertex 92.4645263086348 5.45535911912751 9.91452630863488
vertex 95.25 0.0 12.7000000000001
vertex 92.2861350669677 5.12657710399387 9.73613506696781
endloop
endfacet
facet normal 0.707106781186548 0.0 -0.707106781186547
outer loop
vertex 92.2861350669677 5.12657710399387 9.73613506696781
vertex 95.25 0.0 12.7000000000001
vertex 92.0536510745345 4.87429379061972 9.50365107453463
endloop
endfacet
facet normal 0.707106781186548 0.0 -0.707106781186547
outer loop
vertex 92.0536510745345 4.87429379061972 9.50365107453463
vertex 95.25 0.0 12.7000000000001
vertex 91.7829177312216 4.71570186989362 9.23291773122171
endloop
endfacet
facet normal 0.707106781186548 0.0 -0.707106781186547
outer loop
vertex 91.7829177312216 4.71570186989362 9.23291773122171
vertex 95.25 0.0 12.7000000000001
vertex 91.4923850669677 4.66160911912751 8.94238506696781
endloop
endfacet
facet normal 0.707106781186548 0.0 -0.707106781186547
outer loop
vertex 95.25 25.4 12.7000000000001
vertex 92.5766677312216 5.83823388502726 10.0266677312217
vertex 92.6149170821013 6.24910911912751 10.0649170821015
endloop
endfacet
facet normal 0.707106781186548 0.0 -0.707106781186547
outer loop
vertex 95.25 25.4 12.7000000000001
vertex 92.6149170821013 6.24910911912751 10.0649170821015
vertex 92.5766677312216 6.65998435322776 10.0266677312217
endloop
endfacet
facet normal 0.707106781186548 0.0 -0.707106781186547
outer loop
vertex 95.25 25.4 12.7000000000001
vertex 92.5766677312216 6.65998435322776 10.0266677312217
vertex 92.4645263086348 7.04285911912751 9.91452630863488
endloop
endfacet
facet normal 0.707106781186548 0.0 -0.707106781186547
outer loop
vertex 95.25 25.4 12.7000000000001
vertex 92.4645263086348 7.04285911912751 9.91452630863488
vertex 92.2861350669677 7.37164113426116 9.73613506696781
endloop
endfacet
facet normal 0.707106781186548 0.0 -0.707106781186547
outer loop
vertex 95.25 25.4 12.7000000000001
vertex 92.2861350669677 7.37164113426116 9.73613506696781
vertex 92.0536510745345 7.62392444763531 9.50365107453463
endloop
endfacet
facet normal 0.707106781186548 0.0 -0.707106781186547
outer loop
vertex 95.25 25.4 12.7000000000001
vertex 92.0536510745345 7.62392444763531 9.50365107453463
vertex 91.7829177312216 7.78251636836141 9.23291773122171
endloop
endfacet
facet normal 0.707106781186548 0.0 -0.707106781186547
outer loop
vertex 95.25 25.4 12.7000000000001
vertex 91.7829177312216 7.78251636836141 9.23291773122171
vertex 91.4923850669677 7.83660911912751 8.94238506696781
endloop
endfacet
facet normal 0.707106781186548 0.0 -0.707106781186547
outer loop
vertex 95.25 25.4 12.7000000000001
vertex 91.4923850669677 7.83660911912751 8.94238506696781
vertex 82.55 25.4 6.20392626160537e-14
endloop
endfacet
facet normal -0.707106781186547 0.0 -0.707106781186548
outer loop
vertex 69.85 25.4 25.4
vertex 79.4590994 0.0 15.7909006000001
vertex 69.85 0.0 25.4
endloop
endfacet
facet normal -0.707106781186547 0.0 -0.707106781186548
outer loop
vertex 79.4590994 0.0 15.7909006000001
vertex 69.85 25.4 25.4
vertex 79.4590994 25.4 15.7909006000001
endloop
endfacet
facet normal 7.35522753814166e-16 0.0 -1.0
outer loop
vertex -1.76247905159249e-16 0.0 0.0
vertex 5.68895927317826 11.1313118544247 5.63993296509579e-15
vertex 82.55 0.0 6.20392626160537e-14
endloop
endfacet
facet normal 7.35522753814166e-16 0.0 -1.0
outer loop
vertex 5.68895927317826 11.1313118544247 5.63993296509579e-15
vertex -1.76247905159249e-16 0.0 0.0
vertex 5.30608450727852 11.2899037751508 5.63993296509579e-15
endloop
endfacet
facet normal 7.35522753814166e-16 0.0 -1.0
outer loop
vertex 5.30608450727852 11.2899037751508 5.63993296509579e-15
vertex -1.76247905159249e-16 0.0 0.0
vertex 4.97730249214487 11.542187088525 5.63993296509579e-15
endloop
endfacet
facet normal 7.35522753814166e-16 0.0 -1.0
outer loop
vertex 4.97730249214487 11.542187088525 5.63993296509579e-15
vertex -1.76247905159249e-16 0.0 0.0
vertex 4.72501917877072 11.8709691036586 5.63993296509579e-15
endloop
endfacet
facet normal 7.35522753814166e-16 0.0 -1.0
outer loop
vertex 4.72501917877072 11.8709691036586 5.63993296509579e-15
vertex -1.76247905159249e-16 0.0 0.0
vertex 4.56642725804462 12.2538438695583 5.63993296509579e-15
endloop
endfacet
facet normal 7.35522753814166e-16 0.0 -1.0
outer loop
vertex 4.56642725804462 12.2538438695583 5.63993296509579e-15
vertex -1.76247905159249e-16 0.0 0.0
vertex -1.76247905159249e-16 25.4 0.0
endloop
endfacet
facet normal 7.35522753814166e-16 0.0 -1.0
outer loop
vertex 82.55 0.0 6.20392626160537e-14
vertex 5.68895927317826 11.1313118544247 5.63993296509579e-15
vertex 6.09983450727852 11.0772191036586 5.63993296509579e-15
endloop
endfacet
facet normal 7.35522753814166e-16 0.0 -1.0
outer loop
vertex 4.56642725804462 12.2538438695583 5.63993296509579e-15
vertex -1.76247905159249e-16 25.4 0.0
vertex 4.51233450727852 12.6647191036586 5.63993296509579e-15
endloop
endfacet
facet normal 7.35522753814166e-16 0.0 -1.0
outer loop
vertex 4.51233450727852 12.6647191036586 5.63993296509579e-15
vertex -1.76247905159249e-16 25.4 0.0
vertex 4.56642725804462 13.0755943377589 5.63993296509579e-15
endloop
endfacet
facet normal 7.35522753814166e-16 0.0 -1.0
outer loop
vertex 4.56642725804462 13.0755943377589 5.63993296509579e-15
vertex -1.76247905159249e-16 25.4 0.0
vertex 4.72501917877072 13.4584691036586 5.63993296509579e-15
endloop
endfacet
facet normal 7.35522753814166e-16 0.0 -1.0
outer loop
vertex 4.72501917877072 13.4584691036586 5.63993296509579e-15
vertex -1.76247905159249e-16 25.4 0.0
vertex 4.97730249214487 13.7872511187922 5.63993296509579e-15
endloop
endfacet
facet normal 7.35522753814166e-16 0.0 -1.0
outer loop
vertex 4.97730249214487 13.7872511187922 5.63993296509579e-15
vertex -1.76247905159249e-16 25.4 0.0
vertex 5.30608450727852 14.0395344321664 5.63993296509579e-15
endloop
endfacet
facet normal 7.35522753814166e-16 0.0 -1.0
outer loop
vertex 5.30608450727852 14.0395344321664 5.63993296509579e-15
vertex -1.76247905159249e-16 25.4 0.0
vertex 5.68895927317827 14.1981263528925 5.63993296509579e-15
endloop
endfacet
facet normal 7.35522753814166e-16 0.0 -1.0
outer loop
vertex 5.68895927317827 14.1981263528925 5.63993296509579e-15
vertex -1.76247905159249e-16 25.4 0.0
vertex 6.09983450727852 14.2522191036586 5.63993296509579e-15
endloop
endfacet
facet normal 7.35522753814166e-16 0.0 -1.0
outer loop
vertex 82.55 0.0 6.20392626160537e-14
vertex 6.51070974137877 11.1313118544247 5.63993296509579e-15
vertex 82.55 25.4 6.20392626160537e-14
endloop
endfacet
facet normal 7.35522753814166e-16 0.0 -1.0
outer loop
vertex 6.51070974137877 11.1313118544247 5.63993296509579e-15
vertex 82.55 0.0 6.20392626160537e-14
vertex 6.09983450727852 11.0772191036586 5.63993296509579e-15
endloop
endfacet
facet normal 7.35522753814166e-16 0.0 -1.0
outer loop
vertex 82.55 25.4 6.20392626160537e-14
vertex 6.51070974137877 11.1313118544247 5.63993296509579e-15
vertex 6.89358450727852 11.2899037751508 5.63993296509579e-15
endloop
endfacet
facet normal 7.35522753814166e-16 0.0 -1.0
outer loop
vertex 82.55 25.4 6.20392626160537e-14
vertex 6.89358450727852 11.2899037751508 5.63993296509579e-15
vertex 7.22236652241216 11.542187088525 5.63993296509579e-15
endloop
endfacet
facet normal 7.35522753814166e-16 0.0 -1.0
outer loop
vertex 82.55 25.4 6.20392626160537e-14
vertex 7.22236652241216 11.542187088525 5.63993296509579e-15
vertex 7.47464983578631 11.8709691036586 5.63993296509579e-15
endloop
endfacet
facet normal 7.35522753814166e-16 0.0 -1.0
outer loop
vertex 82.55 25.4 6.20392626160537e-14
vertex 7.47464983578631 11.8709691036586 5.63993296509579e-15
vertex 7.63324175651241 12.2538438695583 5.63993296509579e-15
endloop
endfacet
facet normal 7.35522753814166e-16 0.0 -1.0
outer loop
vertex 82.55 25.4 6.20392626160537e-14
vertex 7.63324175651241 12.2538438695583 5.63993296509579e-15
vertex 7.68733450727852 12.6647191036586 5.63993296509579e-15
endloop
endfacet
facet normal 7.35522753814166e-16 0.0 -1.0
outer loop
vertex 82.55 25.4 6.20392626160537e-14
vertex 7.68733450727852 12.6647191036586 5.63993296509579e-15
vertex 7.63324175651241 13.0755943377589 5.63993296509579e-15
endloop
endfacet
facet normal 7.35522753814166e-16 0.0 -1.0
outer loop
vertex 82.55 25.4 6.20392626160537e-14
vertex 7.63324175651241 13.0755943377589 5.63993296509579e-15
vertex 7.47464983578632 13.4584691036586 5.63993296509579e-15
endloop
endfacet
facet normal 7.35522753814166e-16 0.0 -1.0
outer loop
vertex 82.55 25.4 6.20392626160537e-14
vertex 7.47464983578632 13.4584691036586 5.63993296509579e-15
vertex 7.22236652241216 13.7872511187922 5.63993296509579e-15
endloop
endfacet
facet normal 7.35522753814166e-16 0.0 -1.0
outer loop
vertex 82.55 25.4 6.20392626160537e-14
vertex 7.22236652241216 13.7872511187922 5.63993296509579e-15
vertex 6.89358450727852 14.0395344321664 5.63993296509579e-15
endloop
endfacet
facet normal 7.35522753814166e-16 0.0 -1.0
outer loop
vertex 82.55 25.4 6.20392626160537e-14
vertex 6.89358450727852 14.0395344321664 5.63993296509579e-15
vertex 6.51070974137877 14.1981263528925 5.63993296509579e-15
endloop
endfacet
facet normal 7.35522753814166e-16 0.0 -1.0
outer loop
vertex 82.55 25.4 6.20392626160537e-14
vertex 6.51070974137877 14.1981263528925 5.63993296509579e-15
vertex 6.09983450727852 14.2522191036586 5.63993296509579e-15
endloop
endfacet
facet normal 7.35522753814166e-16 0.0 -1.0
outer loop
vertex 82.55 25.4 6.20392626160537e-14
vertex 6.09983450727852 14.2522191036586 5.63993296509579e-15
vertex -1.76247905159249e-16 25.4 0.0
endloop
endfacet
facet normal -1.0 0.0 -7.35522753814166e-16
outer loop
vertex -1.76247905159249e-16 25.4 0.0
vertex -1.59394199228391e-14 0.0 21.43125
vertex -1.59394199228391e-14 25.4 21.43125
endloop
endfacet
facet normal -1.0 0.0 -7.35522753814166e-16
outer loop
vertex -1.59394199228391e-14 0.0 21.43125
vertex -1.76247905159249e-16 25.4 0.0
vertex -1.76247905159249e-16 0.0 0.0
endloop
endfacet
facet normal -0.707106781186548 -0.0 0.707106781186547
outer loop
vertex 69.85 25.4 25.4
vertex 82.55 0.0 38.1000000000001
vertex 82.55 25.4 38.1000000000001
endloop
endfacet
facet normal -0.707106781186548 -0.0 0.707106781186547
outer loop
vertex 82.55 0.0 38.1000000000001
vertex 69.85 25.4 25.4
vertex 73.5266677312216 6.65998435322776 29.0766677312217
endloop
endfacet
facet normal -0.707106781186548 -0.0 0.707106781186547
outer loop
vertex 82.55 0.0 38.1000000000001
vertex 73.5266677312216 6.65998435322776 29.0766677312217
vertex 73.5649170821013 6.24910911912751 29.1149170821014
endloop
endfacet
facet normal -0.707106781186548 -0.0 0.707106781186547
outer loop
vertex 73.5266677312216 6.65998435322776 29.0766677312217
vertex 69.85 25.4 25.4
vertex 73.4145263086348 7.04285911912751 28.9645263086348
endloop
endfacet
facet normal -0.707106781186548 -0.0 0.707106781186547
outer loop
vertex 73.4145263086348 7.04285911912751 28.9645263086348
vertex 69.85 25.4 25.4
vertex 73.2361350669677 7.37164113426116 28.7861350669678
endloop
endfacet
facet normal -0.707106781186548 -0.0 0.707106781186547
outer loop
vertex 73.2361350669677 7.37164113426116 28.7861350669678
vertex 69.85 25.4 25.4
vertex 73.0036510745345 7.62392444763531 28.5536510745346
endloop
endfacet
facet normal -0.707106781186548 -0.0 0.707106781186547
outer loop
vertex 73.0036510745345 7.62392444763531 28.5536510745346
vertex 69.85 25.4 25.4
vertex 72.7329177312216 7.78251636836141 28.2829177312217
endloop
endfacet
facet normal -0.707106781186548 -0.0 0.707106781186547
outer loop
vertex 72.7329177312216 7.78251636836141 28.2829177312217
vertex 69.85 25.4 25.4
vertex 72.4423850669677 7.83660911912751 27.9923850669678
endloop
endfacet
facet normal -0.707106781186548 -0.0 0.707106781186547
outer loop
vertex 72.4423850669677 7.83660911912751 27.9923850669678
vertex 69.85 25.4 25.4
vertex 72.1518524027138 7.78251636836141 27.7018524027139
endloop
endfacet
facet normal -0.707106781186548 -0.0 0.707106781186547
outer loop
vertex 72.1518524027138 7.78251636836141 27.7018524027139
vertex 69.85 25.4 25.4
vertex 71.8811190594009 7.62392444763531 27.4311190594009
endloop
endfacet
facet normal -0.707106781186548 -0.0 0.707106781186547
outer loop
vertex 71.8811190594009 7.62392444763531 27.4311190594009
vertex 69.85 25.4 25.4
vertex 71.6486350669677 7.37164113426116 27.1986350669678
endloop
endfacet
facet normal -0.707106781186548 -0.0 0.707106781186547
outer loop
vertex 71.6486350669677 7.37164113426116 27.1986350669678
vertex 69.85 25.4 25.4
vertex 71.4702438253006 7.04285911912751 27.0202438253007
endloop
endfacet
facet normal -0.707106781186548 -0.0 0.707106781186547
outer loop
vertex 71.4702438253006 7.04285911912751 27.0202438253007
vertex 69.85 25.4 25.4
vertex 71.3581024027138 6.65998435322776 26.9081024027139
endloop
endfacet
facet normal -0.707106781186548 -0.0 0.707106781186547
outer loop
vertex 71.3581024027138 6.65998435322776 26.9081024027139
vertex 69.85 25.4 25.4
vertex 71.319853051834 6.24910911912751 26.8698530518341
endloop
endfacet
facet normal -0.707106781186548 -0.0 0.707106781186547
outer loop
vertex 82.55 0.0 38.1000000000001
vertex 73.2361350669677 5.12657710399386 28.7861350669678
vertex 69.85 0.0 25.4
endloop
endfacet
facet normal -0.707106781186548 -0.0 0.707106781186547
outer loop
vertex 73.2361350669677 5.12657710399386 28.7861350669678
vertex 82.55 0.0 38.1000000000001
vertex 73.4145263086348 5.45535911912751 28.9645263086348
endloop
endfacet
facet normal -0.707106781186548 -0.0 0.707106781186547
outer loop
vertex 73.4145263086348 5.45535911912751 28.9645263086348
vertex 82.55 0.0 38.1000000000001
vertex 73.5266677312216 5.83823388502726 29.0766677312217
endloop
endfacet
facet normal -0.707106781186548 -0.0 0.707106781186547
outer loop
vertex 73.5266677312216 5.83823388502726 29.0766677312217
vertex 82.55 0.0 38.1000000000001
vertex 73.5649170821013 6.24910911912751 29.1149170821014
endloop
endfacet
facet normal -0.707106781186548 -0.0 0.707106781186547
outer loop
vertex 69.85 0.0 25.4
vertex 73.2361350669677 5.12657710399386 28.7861350669678
vertex 73.0036510745345 4.87429379061971 28.5536510745346
endloop
endfacet
facet normal -0.707106781186548 -0.0 0.707106781186547
outer loop
vertex 69.85 0.0 25.4
vertex 73.0036510745345 4.87429379061971 28.5536510745346
vertex 72.7329177312216 4.71570186989361 28.2829177312217
endloop
endfacet
facet normal -0.707106781186548 -0.0 0.707106781186547
outer loop
vertex 69.85 0.0 25.4
vertex 72.7329177312216 4.71570186989361 28.2829177312217
vertex 72.4423850669677 4.66160911912751 27.9923850669678
endloop
endfacet
facet normal -0.707106781186548 -0.0 0.707106781186547
outer loop
vertex 69.85 0.0 25.4
vertex 72.4423850669677 4.66160911912751 27.9923850669678
vertex 72.1518524027138 4.71570186989361 27.7018524027139
endloop
endfacet
facet normal -0.707106781186548 -0.0 0.707106781186547
outer loop
vertex 69.85 0.0 25.4
vertex 72.1518524027138 4.71570186989361 27.7018524027139
vertex 71.8811190594009 4.87429379061971 27.4311190594009
endloop
endfacet
facet normal -0.707106781186548 -0.0 0.707106781186547
outer loop
vertex 69.85 0.0 25.4
vertex 71.8811190594009 4.87429379061971 27.4311190594009
vertex 71.6486350669677 5.12657710399387 27.1986350669678
endloop
endfacet
facet normal -0.707106781186548 -0.0 0.707106781186547
outer loop
vertex 69.85 0.0 25.4
vertex 71.6486350669677 5.12657710399387 27.1986350669678
vertex 71.4702438253006 5.45535911912751 27.0202438253007
endloop
endfacet
facet normal -0.707106781186548 -0.0 0.707106781186547
outer loop
vertex 69.85 0.0 25.4
vertex 71.4702438253006 5.45535911912751 27.0202438253007
vertex 71.3581024027138 5.83823388502726 26.9081024027139
endloop
endfacet
facet normal -0.707106781186548 -0.0 0.707106781186547
outer loop
vertex 69.85 0.0 25.4
vertex 71.3581024027138 5.83823388502726 26.9081024027139
vertex 71.319853051834 6.24910911912751 26.8698530518341
endloop
endfacet
facet normal -0.707106781186548 -0.0 0.707106781186547
outer loop
vertex 69.85 0.0 25.4
vertex 71.319853051834 6.24910911912751 26.8698530518341
vertex 69.85 25.4 25.4
endloop
endfacet
facet normal 1.0 0.0 7.35522753814166e-16
outer loop
vertex 12.039854 0.0 6.35000000000001
vertex 12.039854 25.4 21.43125
vertex 12.039854 0.0 21.43125
endloop
endfacet
facet normal 1.0 0.0 7.35522753814166e-16
outer loop
vertex 12.039854 25.4 21.43125
vertex 12.039854 0.0 6.35000000000001
vertex 12.039854 25.4 6.35000000000001
endloop
endfacet
facet normal -7.35522753814166e-16 -0.0 1.0
outer loop
vertex 12.039854 0.0 21.43125
vertex 7.4746498357863 11.8709691036586 21.43125
vertex -1.59394199228391e-14 0.0 21.43125
endloop
endfacet
facet normal -7.35522753814166e-16 -0.0 1.0
outer loop
vertex 7.4746498357863 11.8709691036586 21.43125
vertex 12.039854 0.0 21.43125
vertex 7.6332417565124 12.2538438695583 21.43125
endloop
endfacet
facet normal -7.35522753814166e-16 -0.0 1.0
outer loop
vertex 7.6332417565124 12.2538438695583 21.43125
vertex 12.039854 0.0 21.43125
vertex 12.039854 25.4 21.43125
endloop
endfacet
facet normal -7.35522753814166e-16 -0.0 1.0
outer loop
vertex -1.59394199228391e-14 0.0 21.43125
vertex 7.4746498357863 11.8709691036586 21.43125
vertex 7.22236652241215 11.542187088525 21.43125
endloop
endfacet
facet normal -7.35522753814166e-16 -0.0 1.0
outer loop
vertex -1.59394199228391e-14 0.0 21.43125
vertex 7.22236652241215 11.542187088525 21.43125
vertex 6.8935845072785 11.2899037751508 21.43125
endloop
endfacet
facet normal -7.35522753814166e-16 -0.0 1.0
outer loop
vertex -1.59394199228391e-14 0.0 21.43125
vertex 6.8935845072785 11.2899037751508 21.43125
vertex 6.51070974137875 11.1313118544247 21.43125
endloop
endfacet
facet normal -7.35522753814166e-16 -0.0 1.0
outer loop
vertex -1.59394199228391e-14 0.0 21.43125
vertex 6.51070974137875 11.1313118544247 21.43125
vertex 6.0998345072785 11.0772191036586 21.43125
endloop
endfacet
facet normal -7.35522753814166e-16 -0.0 1.0
outer loop
vertex 7.6332417565124 12.2538438695583 21.43125
vertex 12.039854 25.4 21.43125
vertex 7.6873345072785 12.6647191036586 21.43125
endloop
endfacet
facet normal -7.35522753814166e-16 -0.0 1.0
outer loop
vertex 7.6873345072785 12.6647191036586 21.43125
vertex 12.039854 25.4 21.43125
vertex 7.6332417565124 13.0755943377589 21.43125
endloop
endfacet
facet normal -7.35522753814166e-16 -0.0 1.0
outer loop
vertex 7.6332417565124 13.0755943377589 21.43125
vertex 12.039854 25.4 21.43125
vertex 7.4746498357863 13.4584691036586 21.43125
endloop
endfacet
facet normal -7.35522753814166e-16 -0.0 1.0
outer loop
vertex 7.4746498357863 13.4584691036586 21.43125
vertex 12.039854 25.4 21.43125
vertex 7.22236652241215 13.7872511187922 21.43125
endloop
endfacet
facet normal -7.35522753814166e-16 -0.0 1.0
outer loop
vertex 7.22236652241215 13.7872511187922 21.43125
vertex 12.039854 25.4 21.43125
vertex 6.8935845072785 14.0395344321664 21.43125
endloop
endfacet
facet normal -7.35522753814166e-16 -0.0 1.0
outer loop
vertex 6.8935845072785 14.0395344321664 21.43125
vertex 12.039854 25.4 21.43125
vertex 6.51070974137876 14.1981263528925 21.43125
endloop
endfacet
facet normal -7.35522753814166e-16 -0.0 1.0
outer loop
vertex 6.51070974137876 14.1981263528925 21.43125
vertex 12.039854 25.4 21.43125
vertex 6.0998345072785 14.2522191036586 21.43125
endloop
endfacet
facet normal -7.35522753814166e-16 -0.0 1.0
outer loop
vertex -1.59394199228391e-14 0.0 21.43125
vertex 4.56642725804461 12.2538438695583 21.43125
vertex -1.59394199228391e-14 25.4 21.43125
endloop
endfacet
facet normal -7.35522753814166e-16 -0.0 1.0
outer loop
vertex 4.56642725804461 12.2538438695583 21.43125
vertex -1.59394199228391e-14 0.0 21.43125
vertex 4.7250191787707 11.8709691036586 21.43125
endloop
endfacet
facet normal -7.35522753814166e-16 -0.0 1.0
outer loop
vertex 4.7250191787707 11.8709691036586 21.43125
vertex -1.59394199228391e-14 0.0 21.43125
vertex 4.97730249214486 11.542187088525 21.43125
endloop
endfacet
facet normal -7.35522753814166e-16 -0.0 1.0
outer loop
vertex 4.97730249214486 11.542187088525 21.43125
vertex -1.59394199228391e-14 0.0 21.43125
vertex 5.3060845072785 11.2899037751508 21.43125
endloop
endfacet
facet normal -7.35522753814166e-16 -0.0 1.0
outer loop
vertex 5.3060845072785 11.2899037751508 21.43125
vertex -1.59394199228391e-14 0.0 21.43125
vertex 5.68895927317825 11.1313118544247 21.43125
endloop
endfacet
facet normal -7.35522753814166e-16 -0.0 1.0
outer loop
vertex 5.68895927317825 11.1313118544247 21.43125
vertex -1.59394199228391e-14 0.0 21.43125
vertex 6.0998345072785 11.0772191036586 21.43125
endloop
endfacet
facet normal -7.35522753814166e-16 -0.0 1.0
outer loop
vertex -1.59394199228391e-14 25.4 21.43125
vertex 4.56642725804461 12.2538438695583 21.43125
vertex 4.5123345072785 12.6647191036586 21.43125
endloop
endfacet
facet normal -7.35522753814166e-16 -0.0 1.0
outer loop
vertex -1.59394199228391e-14 25.4 21.43125
vertex 4.5123345072785 12.6647191036586 21.43125
vertex 4.56642725804461 13.0755943377589 21.43125
endloop
endfacet
facet normal -7.35522753814166e-16 -0.0 1.0
outer loop
vertex -1.59394199228391e-14 25.4 21.43125
vertex 4.56642725804461 13.0755943377589 21.43125
vertex 4.7250191787707 13.4584691036586 21.43125
endloop
endfacet
facet normal -7.35522753814166e-16 -0.0 1.0
outer loop
vertex -1.59394199228391e-14 25.4 21.43125
vertex 4.7250191787707 13.4584691036586 21.43125
vertex 4.97730249214486 13.7872511187922 21.43125
endloop
endfacet
facet normal -7.35522753814166e-16 -0.0 1.0
outer loop
vertex -1.59394199228391e-14 25.4 21.43125
vertex 4.97730249214486 13.7872511187922 21.43125
vertex 5.3060845072785 14.0395344321664 21.43125
endloop
endfacet
facet normal -7.35522753814166e-16 -0.0 1.0
outer loop
vertex -1.59394199228391e-14 25.4 21.43125
vertex 5.3060845072785 14.0395344321664 21.43125
vertex 5.68895927317825 14.1981263528925 21.43125
endloop
endfacet
facet normal -7.35522753814166e-16 -0.0 1.0
outer loop
vertex -1.59394199228391e-14 25.4 21.43125
vertex 5.68895927317825 14.1981263528925 21.43125
vertex 6.0998345072785 14.2522191036586 21.43125
endloop
endfacet
facet normal -7.35522753814166e-16 -0.0 1.0
outer loop
vertex -1.59394199228391e-14 25.4 21.43125
vertex 6.0998345072785 14.2522191036586 21.43125
vertex 12.039854 25.4 21.43125
endloop
endfacet
facet normal -7.35522753814166e-16 0.0 1.0
outer loop
vertex 70.0181988 25.4 6.35000000000005
vertex 12.039854 0.0 6.35000000000001
vertex 70.0181988 0.0 6.35000000000005
endloop
endfacet
facet normal -7.35522753814166e-16 0.0 1.0
outer loop
vertex 12.039854 0.0 6.35000000000001
vertex 70.0181988 25.4 6.35000000000005
vertex 12.039854 25.4 6.35000000000001
endloop
endfacet
facet normal -0.707106781186548 0.0 0.707106781186547
outer loop
vertex 79.4590994 25.4 15.7909006000001
vertex 70.0181988 0.0 6.35000000000005
vertex 79.4590994 0.0 15.7909006000001
endloop
endfacet
facet normal -0.707106781186548 0.0 0.707106781186547
outer loop
vertex 70.0181988 0.0 6.35000000000005
vertex 79.4590994 25.4 15.7909006000001
vertex 70.0181988 25.4 6.35000000000005
endloop
endfacet
facet normal -0.183012701892218 -0.965925826289069 -0.183012701892219
outer loop
vertex 91.7829177312216 7.78251636836141 9.23291773122171
vertex 73.0036510745345 7.62392444763531 28.5536510745346
vertex 72.7329177312216 7.78251636836141 28.2829177312217
endloop
endfacet
facet normal -0.353553390593272 -0.86602540378444 -0.353553390593273
outer loop
vertex 73.0036510745345 7.62392444763531 28.5536510745346
vertex 91.7829177312216 7.78251636836141 9.23291773122171
vertex 92.0536510745345 7.62392444763531 9.50365107453463
endloop
endfacet
facet normal -0.353553390593273 -0.866025403784439 -0.353553390593274
outer loop
vertex 92.0536510745345 7.62392444763531 9.50365107453463
vertex 73.2361350669677 7.37164113426116 28.7861350669678
vertex 73.0036510745345 7.62392444763531 28.5536510745346
endloop
endfacet
facet normal -0.500000000000001 -0.707106781186546 -0.500000000000002
outer loop
vertex 73.2361350669677 7.37164113426116 28.7861350669678
vertex 92.0536510745345 7.62392444763531 9.50365107453463
vertex 92.2861350669677 7.37164113426116 9.73613506696781
endloop
endfacet
facet normal -0.5 -0.707106781186547 -0.500000000000001
outer loop
vertex 92.2861350669677 7.37164113426116 9.73613506696781
vertex 73.4145263086348 7.04285911912751 28.9645263086348
vertex 73.2361350669677 7.37164113426116 28.7861350669678
endloop
endfacet
facet normal -0.612372435695796 -0.499999999999995 -0.612372435695798
outer loop
vertex 73.4145263086348 7.04285911912751 28.9645263086348
vertex 92.2861350669677 7.37164113426116 9.73613506696781
vertex 92.4645263086348 7.04285911912751 9.91452630863488
endloop
endfacet
facet normal -0.612372435695796 -0.499999999999995 -0.612372435695798
outer loop
vertex 73.4145263086348 7.04285911912751 28.9645263086348
vertex 92.5766677312216 6.65998435322776 10.0266677312217
vertex 73.5266677312216 6.65998435322776 29.0766677312217
endloop
endfacet
facet normal -0.683012701892219 -0.258819045102518 -0.683012701892221
outer loop
vertex 92.5766677312216 6.65998435322776 10.0266677312217
vertex 73.4145263086348 7.04285911912751 28.9645263086348
vertex 92.4645263086348 7.04285911912751 9.91452630863488
endloop
endfacet
facet normal -0.683012701892219 -0.258819045102517 -0.683012701892221
outer loop
vertex 73.5266677312216 6.65998435322776 29.0766677312217
vertex 92.6149170821013 6.24910911912751 10.0649170821015
vertex 73.5649170821013 6.24910911912751 29.1149170821014
endloop
endfacet
facet normal -0.707106781186547 -4.54466604677992e-16 -0.707106781186548
outer loop
vertex 92.6149170821013 6.24910911912751 10.0649170821015
vertex 73.5266677312216 6.65998435322776 29.0766677312217
vertex 92.5766677312216 6.65998435322776 10.0266677312217
endloop
endfacet
facet normal -0.707106781186547 -4.18822165095405e-16 -0.707106781186548
outer loop
vertex 73.5649170821013 6.24910911912751 29.1149170821014
vertex 92.5766677312216 5.83823388502726 10.0266677312217
vertex 73.5266677312216 5.83823388502726 29.0766677312217
endloop
endfacet
facet normal -0.683012701892219 0.258819045102518 -0.683012701892221
outer loop
vertex 92.5766677312216 5.83823388502726 10.0266677312217
vertex 73.5649170821013 6.24910911912751 29.1149170821014
vertex 92.6149170821013 6.24910911912751 10.0649170821015
endloop
endfacet
facet normal -0.683012701892219 0.258819045102517 -0.683012701892221
outer loop
vertex 73.5266677312216 5.83823388502726 29.0766677312217
vertex 92.4645263086348 5.45535911912751 9.91452630863488
vertex 73.4145263086348 5.45535911912751 28.9645263086348
endloop
endfacet
facet normal -0.612372435695795 0.499999999999997 -0.612372435695796
outer loop
vertex 92.4645263086348 5.45535911912751 9.91452630863488
vertex 73.5266677312216 5.83823388502726 29.0766677312217
vertex 92.5766677312216 5.83823388502726 10.0266677312217
endloop
endfacet
facet normal -0.612372435695796 0.499999999999996 -0.612372435695797
outer loop
vertex 73.4145263086348 5.45535911912751 28.9645263086348
vertex 92.2861350669677 5.12657710399387 9.73613506696781
vertex 73.2361350669677 5.12657710399386 28.7861350669678
endloop
endfacet
facet normal -0.499999999999999 0.707106781186548 -0.5
outer loop
vertex 92.2861350669677 5.12657710399387 9.73613506696781
vertex 73.4145263086348 5.45535911912751 28.9645263086348
vertex 92.4645263086348 5.45535911912751 9.91452630863488
endloop
endfacet
facet normal -0.5 0.707106781186547 -0.500000000000001
outer loop
vertex 73.2361350669677 5.12657710399386 28.7861350669678
vertex 92.0536510745345 4.87429379061972 9.50365107453463
vertex 73.0036510745345 4.87429379061971 28.5536510745346
endloop
endfacet
facet normal -0.353553390593273 0.866025403784439 -0.353553390593274
outer loop
vertex 92.0536510745345 4.87429379061972 9.50365107453463
vertex 73.2361350669677 5.12657710399386 28.7861350669678
vertex 92.2861350669677 5.12657710399387 9.73613506696781
endloop
endfacet
facet normal -0.353553390593273 0.86602540378444 -0.353553390593273
outer loop
vertex 73.0036510745345 4.87429379061971 28.5536510745346
vertex 91.7829177312216 4.71570186989362 9.23291773122171
vertex 72.7329177312216 4.71570186989361 28.2829177312217
endloop
endfacet
facet normal -0.183012701892218 0.965925826289069 -0.183012701892218
outer loop
vertex 91.7829177312216 4.71570186989362 9.23291773122171
vertex 73.0036510745345 4.87429379061971 28.5536510745346
vertex 92.0536510745345 4.87429379061972 9.50365107453463
endloop
endfacet
facet normal -0.183012701892217 0.965925826289069 -0.183012701892217
outer loop
vertex 72.7329177312216 4.71570186989361 28.2829177312217
vertex 91.4923850669677 4.66160911912751 8.94238506696781
vertex 72.4423850669677 4.66160911912751 27.9923850669678
endloop
endfacet
facet normal 9.1784431925163e-16 1.0 1.32775537445139e-15
outer loop
vertex 91.4923850669677 4.66160911912751 8.94238506696781
vertex 72.7329177312216 4.71570186989361 28.2829177312217
vertex 91.7829177312216 4.71570186989362 9.23291773122171
endloop
endfacet
facet normal 4.45555494782339e-16 1.0 8.46555440086446e-16
outer loop
vertex 72.4423850669677 4.66160911912751 27.9923850669678
vertex 91.2018524027138 4.71570186989362 8.65185240271391
vertex 72.1518524027138 4.71570186989361 27.7018524027139
endloop
endfacet
facet normal 0.183012701892217 0.965925826289069 0.183012701892218
outer loop
vertex 91.2018524027138 4.71570186989362 8.65185240271391
vertex 72.4423850669677 4.66160911912751 27.9923850669678
vertex 91.4923850669677 4.66160911912751 8.94238506696781
endloop
endfacet
facet normal 0.183012701892218 0.965925826289069 0.183012701892219
outer loop
vertex 72.1518524027138 4.71570186989361 27.7018524027139
vertex 90.9311190594009 4.87429379061972 8.38111905940099
vertex 71.8811190594009 4.87429379061971 27.4311190594009
endloop
endfacet
facet normal 0.353553390593273 0.866025403784439 0.353553390593274
outer loop
vertex 90.9311190594009 4.87429379061972 8.38111905940099
vertex 72.1518524027138 4.71570186989361 27.7018524027139
vertex 91.2018524027138 4.71570186989362 8.65185240271391
endloop
endfacet
facet normal 0.353553390593273 0.866025403784439 0.353553390593274
outer loop
vertex 71.8811190594009 4.87429379061971 27.4311190594009
vertex 90.6986350669677 5.12657710399387 8.14863506696781
vertex 71.6486350669677 5.12657710399387 27.1986350669678
endloop
endfacet
facet normal 0.5 0.707106781186547 0.500000000000001
outer loop
vertex 90.6986350669677 5.12657710399387 8.14863506696781
vertex 71.8811190594009 4.87429379061971 27.4311190594009
vertex 90.9311190594009 4.87429379061972 8.38111905940099
endloop
endfacet
facet normal 0.5 0.707106781186547 0.500000000000001
outer loop
vertex 71.6486350669677 5.12657710399387 27.1986350669678
vertex 90.5202438253006 5.45535911912751 7.97024382530074
vertex 71.4702438253006 5.45535911912751 27.0202438253007
endloop
endfacet
facet normal 0.612372435695795 0.499999999999996 0.612372435695797
outer loop
vertex 90.5202438253006 5.45535911912751 7.97024382530074
vertex 71.6486350669677 5.12657710399387 27.1986350669678
vertex 90.6986350669677 5.12657710399387 8.14863506696781
endloop
endfacet
facet normal 0.612372435695795 0.499999999999996 0.612372435695797
outer loop
vertex 90.5202438253006 5.45535911912751 7.97024382530074
vertex 71.3581024027138 5.83823388502726 26.9081024027139
vertex 71.4702438253006 5.45535911912751 27.0202438253007
endloop
endfacet
facet normal 0.683012701892219 0.258819045102517 0.683012701892221
outer loop
vertex 71.3581024027138 5.83823388502726 26.9081024027139
vertex 90.5202438253006 5.45535911912751 7.97024382530074
vertex 90.4081024027138 5.83823388502726 7.85810240271391
endloop
endfacet
facet normal 0.68301270189222 0.258819045102516 0.683012701892221
outer loop
vertex 90.4081024027138 5.83823388502726 7.85810240271391
vertex 71.319853051834 6.24910911912751 26.8698530518341
vertex 71.3581024027138 5.83823388502726 26.9081024027139
endloop
endfacet
facet normal 0.707106781186547 8.91110989564691e-18 0.707106781186548
outer loop
vertex 71.319853051834 6.24910911912751 26.8698530518341
vertex 90.4081024027138 5.83823388502726 7.85810240271391
vertex 90.3698530518341 6.24910911912751 7.81985305183416
endloop
endfacet
facet normal 0.707106781186547 -8.91110989564691e-18 0.707106781186548
outer loop
vertex 90.3698530518341 6.24910911912751 7.81985305183416
vertex 71.3581024027138 6.65998435322776 26.9081024027139
vertex 71.319853051834 6.24910911912751 26.8698530518341
endloop
endfacet
facet normal 0.683012701892219 -0.258819045102517 0.683012701892221
outer loop
vertex 71.3581024027138 6.65998435322776 26.9081024027139
vertex 90.3698530518341 6.24910911912751 7.81985305183416
vertex 90.4081024027138 6.65998435322777 7.85810240271391
endloop
endfacet
facet normal 0.68301270189222 -0.258819045102516 0.683012701892221
outer loop
vertex 90.4081024027138 6.65998435322777 7.85810240271391
vertex 71.4702438253006 7.04285911912751 27.0202438253007
vertex 71.3581024027138 6.65998435322776 26.9081024027139
endloop
endfacet
facet normal 0.612372435695796 -0.499999999999995 0.612372435695797
outer loop
vertex 71.4702438253006 7.04285911912751 27.0202438253007
vertex 90.4081024027138 6.65998435322777 7.85810240271391
vertex 90.5202438253006 7.04285911912751 7.97024382530074
endloop
endfacet
facet normal 0.612372435695796 -0.499999999999996 0.612372435695797
outer loop
vertex 90.5202438253006 7.04285911912751 7.97024382530074
vertex 71.6486350669677 7.37164113426116 27.1986350669678
vertex 71.4702438253006 7.04285911912751 27.0202438253007
endloop
endfacet
facet normal 0.499999999999999 -0.707106781186548 0.5
outer loop
vertex 71.6486350669677 7.37164113426116 27.1986350669678
vertex 90.5202438253006 7.04285911912751 7.97024382530074
vertex 90.6986350669677 7.37164113426116 8.14863506696781
endloop
endfacet
facet normal 0.499999999999999 -0.707106781186548 0.5
outer loop
vertex 90.6986350669677 7.37164113426116 8.14863506696781
vertex 71.8811190594009 7.62392444763531 27.4311190594009
vertex 71.6486350669677 7.37164113426116 27.1986350669678
endloop
endfacet
facet normal 0.353553390593273 -0.866025403784439 0.353553390593273
outer loop
vertex 71.8811190594009 7.62392444763531 27.4311190594009
vertex 90.6986350669677 7.37164113426116 8.14863506696781
vertex 90.9311190594009 7.62392444763531 8.38111905940099
endloop
endfacet
facet normal 0.353553390593273 -0.866025403784439 0.353553390593273
outer loop
vertex 90.9311190594009 7.62392444763531 8.38111905940099
vertex 72.1518524027138 7.78251636836141 27.7018524027139
vertex 71.8811190594009 7.62392444763531 27.4311190594009
endloop
endfacet
facet normal 0.183012701892219 -0.965925826289068 0.183012701892219
outer loop
vertex 72.1518524027138 7.78251636836141 27.7018524027139
vertex 90.9311190594009 7.62392444763531 8.38111905940099
vertex 91.2018524027138 7.78251636836141 8.65185240271391
endloop
endfacet
facet normal 0.183012701892218 -0.965925826289069 0.183012701892218
outer loop
vertex 91.2018524027138 7.78251636836141 8.65185240271391
vertex 72.4423850669677 7.83660911912751 27.9923850669678
vertex 72.1518524027138 7.78251636836141 27.7018524027139
endloop
endfacet
facet normal -7.12888791651743e-16 -1.0 -1.1227998468515e-15
outer loop
vertex 72.4423850669677 7.83660911912751 27.9923850669678
vertex 91.2018524027138 7.78251636836141 8.65185240271391
vertex 91.4923850669677 7.83660911912751 8.94238506696781
endloop
endfacet
facet normal -2.22777747391172e-16 -1.0 -6.41599912486577e-16
outer loop
vertex 91.4923850669677 7.83660911912751 8.94238506696781
vertex 72.7329177312216 7.78251636836141 28.2829177312217
vertex 72.4423850669677 7.83660911912751 27.9923850669678
endloop
endfacet
facet normal -0.183012701892218 -0.965925826289069 -0.183012701892218
outer loop
vertex 72.7329177312216 7.78251636836141 28.2829177312217
vertex 91.4923850669677 7.83660911912751 8.94238506696781
vertex 91.7829177312216 7.78251636836141 9.23291773122171
endloop
endfacet
facet normal 0.70710678118654 -5.24672563276828e-15 0.707106781186555
outer loop
vertex 72.3858578207418 17.4571062959069 21.9841667971243
vertex 71.8069812055564 17.3858492908429 22.5630434123097
vertex 72.0997362550249 17.3675887951275 22.2702883628412
endloop
endfacet
facet normal 0.70710678118654 -5.24672563276828e-15 0.707106781186555
outer loop
vertex 71.8069812055564 17.3858492908429 22.5630434123097
vertex 72.3858578207418 17.4571062959069 21.9841667971243
vertex 71.527543445157 17.5106433604468 22.8424811727091
endloop
endfacet
facet normal 0.70710678118654 -5.24672563276828e-15 0.707106781186555
outer loop
vertex 71.527543445157 17.5106433604468 22.8424811727091
vertex 72.3858578207418 17.4571062959069 21.9841667971243
vertex 72.6458471908418 17.6483013234375 21.7241774270244
endloop
endfacet
facet normal 0.70710678118654 -5.24672563276828e-15 0.707106781186555
outer loop
vertex 71.527543445157 17.5106433604468 22.8424811727091
vertex 72.6458471908418 17.6483013234375 21.7241774270244
vertex 71.2804661954052 17.7334664943277 23.089558422461
endloop
endfacet
facet normal 0.70710678118654 -5.24672563276828e-15 0.707106781186555
outer loop
vertex 71.2804661954052 17.7334664943277 23.089558422461
vertex 72.6458471908418 17.6483013234375 21.7241774270244
vertex 72.8619865194052 17.9281442525579 21.5080380984609
endloop
endfacet
facet normal 0.70710678118654 -5.24672563276828e-15 0.707106781186555
outer loop
vertex 71.2804661954052 17.7334664943277 23.089558422461
vertex 72.8619865194052 17.9281442525579 21.5080380984609
vertex 71.082587362557 18.0391336641444 23.2874372553091
endloop
endfacet
facet normal 0.70710678118654 -5.24672563276828e-15 0.707106781186555
outer loop
vertex 71.082587362557 18.0391336641444 23.2874372553091
vertex 72.8619865194052 17.9281442525579 21.5080380984609
vertex 73.0195462683777 18.2775642501108 21.3504783494885
endloop
endfacet
facet normal 0.70710678118654 -5.24672563276828e-15 0.707106781186555
outer loop
vertex 71.082587362557 18.0391336641444 23.2874372553091
vertex 73.0195462683777 18.2775642501108 21.3504783494885
vertex 70.947392062061 18.4068141574126 23.4226325558051
endloop
endfacet
facet normal 0.70710678118654 -5.24672563276828e-15 0.707106781186555
outer loop
vertex 70.947392062061 18.4068141574126 23.4226325558051
vertex 73.0195462683777 18.2775642501108 21.3504783494885
vertex 73.1077890012465 18.6727489207068 21.2622356166197
endloop
endfacet
facet normal 0.70710678118654 -5.24672563276828e-15 0.707106781186555
outer loop
vertex 70.947392062061 18.4068141574126 23.4226325558051
vertex 73.1077890012465 18.6727489207068 21.2622356166197
vertex 70.8840936302251 18.8114511561368 23.4859309876411
endloop
endfacet
facet normal 0.70710678118654 -5.24672563276828e-15 0.707106781186555
outer loop
vertex 70.8840936302251 18.8114511561368 23.4859309876411
vertex 73.1077890012465 18.6727489207068 21.2622356166197
vertex 73.1207011215946 19.0867670821184 21.2493234962715
endloop
endfacet
facet normal 0.70710678118654 -5.24672563276828e-15 0.707106781186555
outer loop
vertex 70.8840936302251 18.8114511561368 23.4859309876411
vertex 73.1207011215946 19.0867670821184 21.2493234962715
vertex 70.8970057505731 19.2254693175484 23.473018867293
endloop
endfacet
facet normal 0.70710678118654 -5.24672563276828e-15 0.707106781186555
outer loop
vertex 70.8970057505731 19.2254693175484 23.473018867293
vertex 73.1207011215946 19.0867670821184 21.2493234962715
vertex 73.0574026897587 19.4914040808426 21.3126219281075
endloop
endfacet
facet normal 0.70710678118654 -5.24672563276828e-15 0.707106781186555
outer loop
vertex 70.8970057505731 19.2254693175484 23.473018867293
vertex 73.0574026897587 19.4914040808426 21.3126219281075
vertex 70.9852484834419 19.6206539881444 23.3847761344242
endloop
endfacet
facet normal 0.70710678118654 -5.24672563276828e-15 0.707106781186555
outer loop
vertex 70.9852484834419 19.6206539881444 23.3847761344242
vertex 73.0574026897587 19.4914040808426 21.3126219281075
vertex 72.9222073892626 19.8590845741108 21.4478172286036
endloop
endfacet
facet normal 0.70710678118654 -5.24672563276828e-15 0.707106781186555
outer loop
vertex 70.9852484834419 19.6206539881444 23.3847761344242
vertex 72.9222073892626 19.8590845741108 21.4478172286036
vertex 71.1428082324144 19.9700739856973 23.2272163854517
endloop
endfacet
facet normal 0.70710678118654 -5.24672563276828e-15 0.707106781186555
outer loop
vertex 71.1428082324144 19.9700739856973 23.2272163854517
vertex 72.9222073892626 19.8590845741108 21.4478172286036
vertex 72.7243285564145 20.1647517439275 21.6456960614517
endloop
endfacet
facet normal 0.70710678118654 -5.24672563276828e-15 0.707106781186555
outer loop
vertex 71.1428082324144 19.9700739856973 23.2272163854517
vertex 72.7243285564145 20.1647517439275 21.6456960614517
vertex 71.3589475609779 20.2499169148177 23.0110770568883
endloop
endfacet
facet normal 0.70710678118654 -5.24672563276828e-15 0.707106781186555
outer loop
vertex 71.3589475609779 20.2499169148177 23.0110770568883
vertex 72.7243285564145 20.1647517439275 21.6456960614517
vertex 72.4772513066626 20.3875748778084 21.8927733112035
endloop
endfacet
facet normal 0.70710678118654 -5.24672563276828e-15 0.707106781186555
outer loop
vertex 71.3589475609779 20.2499169148177 23.0110770568883
vertex 72.4772513066626 20.3875748778084 21.8927733112035
vertex 71.6189369310778 20.4411119423483 22.7510876867883
endloop
endfacet
facet normal 0.70710678118654 -5.24672563276828e-15 0.707106781186555
outer loop
vertex 71.6189369310778 20.4411119423483 22.7510876867883
vertex 72.4772513066626 20.3875748778084 21.8927733112035
vertex 72.1978135462632 20.5123689474123 22.1722110716029
endloop
endfacet
facet normal 0.70710678118654 -5.24672563276828e-15 0.707106781186555
outer loop
vertex 71.6189369310778 20.4411119423483 22.7510876867883
vertex 72.1978135462632 20.5123689474123 22.1722110716029
vertex 71.9050584967947 20.5306294431276 22.4649661210714
endloop
endfacet
facet normal 0.241549886508348 -0.939844298091768 -0.24154988650835
outer loop
vertex 71.6189369310778 20.4411119423483 22.7510876867883
vertex 84.4989352520446 20.2499169148176 36.1510647479554
vertex 71.3589475609779 20.2499169148177 23.0110770568883
endloop
endfacet
facet normal 0.405322718067381 -0.819406485474054 -0.405322718067379
outer loop
vertex 84.4989352520446 20.2499169148176 36.1510647479554
vertex 71.6189369310778 20.4411119423483 22.7510876867883
vertex 84.7589246221446 20.4411119423482 35.8910753778555
endloop
endfacet
facet normal 0.405322718067381 -0.819406485474055 -0.405322718067378
outer loop
vertex 71.3589475609779 20.2499169148177 23.0110770568883
vertex 84.2827959234812 19.9700739856972 36.3672040765188
vertex 71.1428082324144 19.9700739856973 23.2272163854517
endloop
endfacet
facet normal 0.541473476217583 -0.643127475004528 -0.541473476217577
outer loop
vertex 84.2827959234812 19.9700739856972 36.3672040765188
vertex 71.3589475609779 20.2499169148177 23.0110770568883
vertex 84.4989352520446 20.2499169148176 36.1510647479554
endloop
endfacet
facet normal 0.640723711790784 -0.423020389931849 -0.640723711790774
outer loop
vertex 70.9852484834419 19.6206539881444 23.3847761344242
vertex 84.2827959234812 19.9700739856972 36.3672040765188
vertex 84.1252361745087 19.6206539881443 36.5247638254913
endloop
endfacet
facet normal 0.541473476217583 -0.643127475004528 -0.541473476217577
outer loop
vertex 84.2827959234812 19.9700739856972 36.3672040765188
vertex 70.9852484834419 19.6206539881444 23.3847761344242
vertex 71.1428082324144 19.9700739856973 23.2272163854517
endloop
endfacet
facet normal 0.696309685251441 -0.174085164359566 -0.696309685251428
outer loop
vertex 70.8970057505731 19.2254693175484 23.473018867293
vertex 84.1252361745087 19.6206539881443 36.5247638254913
vertex 84.0369934416399 19.2254693175483 36.6130065583601
endloop
endfacet
facet normal 0.640723711790783 -0.423020389931851 -0.640723711790773
outer loop
vertex 84.1252361745087 19.6206539881443 36.5247638254913
vertex 70.8970057505731 19.2254693175484 23.473018867293
vertex 70.9852484834419 19.6206539881444 23.3847761344242
endloop
endfacet
facet normal 0.704443304368375 0.0867136774744976 -0.70444330436836
outer loop
vertex 70.8840936302251 18.8114511561368 23.4859309876411
vertex 84.0369934416399 19.2254693175483 36.6130065583601
vertex 84.0240813212918 18.8114511561367 36.6259186787082
endloop
endfacet
facet normal 0.696309685251441 -0.174085164359562 -0.696309685251428
outer loop
vertex 84.0369934416399 19.2254693175483 36.6130065583601
vertex 70.8840936302251 18.8114511561368 23.4859309876411
vertex 70.8970057505731 19.2254693175484 23.473018867293
endloop
endfacet
facet normal 0.664570276440207 0.341603125489791 -0.664570276440192
outer loop
vertex 84.0873797531278 18.4068141574125 36.5626202468722
vertex 70.8840936302251 18.8114511561368 23.4859309876411
vertex 84.0240813212918 18.8114511561367 36.6259186787082
endloop
endfacet
facet normal 0.704443304368375 0.0867136774744976 -0.70444330436836
outer loop
vertex 70.8840936302251 18.8114511561368 23.4859309876411
vertex 84.0873797531278 18.4068141574125 36.5626202468722
vertex 70.947392062061 18.4068141574126 23.4226325558051
endloop
endfacet
facet normal 0.579407882426948 0.573212885028816 -0.579407882426932
outer loop
vertex 84.2225750536238 18.0391336641443 36.4274249463762
vertex 70.947392062061 18.4068141574126 23.4226325558051
vertex 84.0873797531278 18.4068141574125 36.5626202468722
endloop
endfacet
facet normal 0.664570276440206 0.341603125489797 -0.66457027644019
outer loop
vertex 70.947392062061 18.4068141574126 23.4226325558051
vertex 84.2225750536238 18.0391336641443 36.4274249463762
vertex 71.082587362557 18.0391336641444 23.2874372553091
endloop
endfacet
facet normal 0.579407882426948 0.573212885028816 -0.579407882426932
outer loop
vertex 84.2225750536238 18.0391336641443 36.4274249463762
vertex 71.2804661954052 17.7334664943277 23.089558422461
vertex 71.082587362557 18.0391336641444 23.2874372553091
endloop
endfacet
facet normal 0.454759798743095 0.765759133732203 -0.45475979874308
outer loop
vertex 71.2804661954052 17.7334664943277 23.089558422461
vertex 84.2225750536238 18.0391336641443 36.4274249463762
vertex 84.4204538864719 17.7334664943276 36.2295461135281
endloop
endfacet
facet normal 0.454759798743092 0.765759133732207 -0.454759798743077
outer loop
vertex 84.4204538864719 17.7334664943276 36.2295461135281
vertex 71.527543445157 17.5106433604468 22.8424811727091
vertex 71.2804661954052 17.7334664943277 23.089558422461
endloop
endfacet
facet normal 0.299120586300995 0.906120162948549 -0.299120586300982
outer loop
vertex 71.527543445157 17.5106433604468 22.8424811727091
vertex 84.4204538864719 17.7334664943276 36.2295461135281
vertex 84.6675311362238 17.5106433604467 35.9824688637762
endloop
endfacet
facet normal 0.299120586300996 0.906120162948548 -0.299120586300984
outer loop
vertex 84.6675311362238 17.5106433604467 35.9824688637762
vertex 71.8069812055564 17.3858492908429 22.5630434123097
vertex 71.527543445157 17.5106433604468 22.8424811727091
endloop
endfacet
facet normal 0.123096800222625 0.984730600494321 -0.123096800222615
outer loop
vertex 71.8069812055564 17.3858492908429 22.5630434123097
vertex 84.6675311362238 17.5106433604467 35.9824688637762
vertex 84.9469688966232 17.3858492908428 35.7030311033768
endloop
endfacet
facet normal 0.123096800222626 0.98473060049432 -0.123096800222616
outer loop
vertex 84.9469688966232 17.3858492908428 35.7030311033768
vertex 72.0997362550249 17.3675887951275 22.2702883628412
vertex 71.8069812055564 17.3858492908429 22.5630434123097
endloop
endfacet
facet normal -0.061315829363836 0.996233274960664 0.0613158293638422
outer loop
vertex 72.0997362550249 17.3675887951275 22.2702883628412
vertex 84.9469688966232 17.3858492908428 35.7030311033768
vertex 85.2397239460917 17.3675887951274 35.4102760539083
endloop
endfacet
facet normal -0.0613158293638346 0.996233274960664 0.0613158293638408
outer loop
vertex 85.2397239460917 17.3675887951274 35.4102760539083
vertex 72.3858578207418 17.4571062959069 21.9841667971243
vertex 72.0997362550249 17.3675887951275 22.2702883628412
endloop
endfacet
facet normal -0.241549886508348 0.939844298091768 0.24154988650835
outer loop
vertex 72.3858578207418 17.4571062959069 21.9841667971243
vertex 85.2397239460917 17.3675887951274 35.4102760539083
vertex 85.5258455118086 17.4571062959068 35.1241544881914
endloop
endfacet
facet normal -0.241549886508347 0.939844298091768 0.241549886508349
outer loop
vertex 85.5258455118086 17.4571062959068 35.1241544881914
vertex 72.6458471908418 17.6483013234375 21.7241774270244
vertex 72.3858578207418 17.4571062959069 21.9841667971243
endloop
endfacet
facet normal -0.405322718067381 0.819406485474055 0.405322718067379
outer loop
vertex 72.6458471908418 17.6483013234375 21.7241774270244
vertex 85.5258455118086 17.4571062959068 35.1241544881914
vertex 85.7858348819086 17.6483013234374 34.8641651180915
endloop
endfacet
facet normal -0.40532271806738 0.819406485474055 0.405322718067378
outer loop
vertex 85.7858348819086 17.6483013234374 34.8641651180915
vertex 72.8619865194052 17.9281442525579 21.5080380984609
vertex 72.6458471908418 17.6483013234375 21.7241774270244
endloop
endfacet
facet normal -0.541473476217582 0.64312747500453 0.541473476217575
outer loop
vertex 72.8619865194052 17.9281442525579 21.5080380984609
vertex 85.7858348819086 17.6483013234374 34.8641651180915
vertex 86.001974210472 17.9281442525578 34.648025789528
endloop
endfacet
facet normal -0.640723711790783 0.423020389931851 0.640723711790773
outer loop
vertex 86.1595339594444 18.2775642501107 34.4904660405556
vertex 72.8619865194052 17.9281442525579 21.5080380984609
vertex 86.001974210472 17.9281442525578 34.648025789528
endloop
endfacet
facet normal -0.541473476217582 0.64312747500453 0.541473476217575
outer loop
vertex 72.8619865194052 17.9281442525579 21.5080380984609
vertex 86.1595339594444 18.2775642501107 34.4904660405556
vertex 73.0195462683777 18.2775642501108 21.3504783494885
endloop
endfacet
facet normal -0.696309685251441 0.174085164359562 0.696309685251428
outer loop
vertex 86.2477766923133 18.6727489207067 34.4022233076868
vertex 73.0195462683777 18.2775642501108 21.3504783494885
vertex 86.1595339594444 18.2775642501107 34.4904660405556
endloop
endfacet
facet normal -0.640723711790782 0.423020389931853 0.640723711790773
outer loop
vertex 73.0195462683777 18.2775642501108 21.3504783494885
vertex 86.2477766923133 18.6727489207067 34.4022233076868
vertex 73.1077890012465 18.6727489207068 21.2622356166197
endloop
endfacet
facet normal -0.704443304368375 -0.0867136774744948 0.70444330436836
outer loop
vertex 86.2606888126614 19.0867670821183 34.3893111873387
vertex 73.1077890012465 18.6727489207068 21.2622356166197
vertex 86.2477766923133 18.6727489207067 34.4022233076868
endloop
endfacet
facet normal -0.696309685251442 0.174085164359559 0.696309685251429
outer loop
vertex 73.1077890012465 18.6727489207068 21.2622356166197
vertex 86.2606888126614 19.0867670821183 34.3893111873387
vertex 73.1207011215946 19.0867670821184 21.2493234962715
endloop
endfacet
facet normal -0.664570276440207 -0.341603125489791 0.664570276440192
outer loop
vertex 73.0574026897587 19.4914040808426 21.3126219281075
vertex 86.2606888126614 19.0867670821183 34.3893111873387
vertex 86.1973903808254 19.4914040808425 34.4526096191746
endloop
endfacet
facet normal -0.704443304368375 -0.0867136774744948 0.70444330436836
outer loop
vertex 86.2606888126614 19.0867670821183 34.3893111873387
vertex 73.0574026897587 19.4914040808426 21.3126219281075
vertex 73.1207011215946 19.0867670821184 21.2493234962715
endloop
endfacet
facet normal -0.579407882426947 -0.573212885028819 0.579407882426931
outer loop
vertex 72.9222073892626 19.8590845741108 21.4478172286036
vertex 86.1973903808254 19.4914040808425 34.4526096191746
vertex 86.0621950803294 19.8590845741107 34.5878049196707
endloop
endfacet
facet normal -0.664570276440207 -0.341603125489791 0.664570276440192
outer loop
vertex 86.1973903808254 19.4914040808425 34.4526096191746
vertex 72.9222073892626 19.8590845741108 21.4478172286036
vertex 73.0574026897587 19.4914040808426 21.3126219281075
endloop
endfacet
facet normal -0.579407882426947 -0.573212885028819 0.579407882426931
outer loop
vertex 72.9222073892626 19.8590845741108 21.4478172286036
vertex 85.8643162474813 20.1647517439274 34.7856837525188
vertex 72.7243285564145 20.1647517439275 21.6456960614517
endloop
endfacet
facet normal -0.454759798743091 -0.765759133732207 0.454759798743076
outer loop
vertex 85.8643162474813 20.1647517439274 34.7856837525188
vertex 72.9222073892626 19.8590845741108 21.4478172286036
vertex 86.0621950803294 19.8590845741107 34.5878049196707
endloop
endfacet
facet normal -0.454759798743092 -0.765759133732206 0.454759798743077
outer loop
vertex 72.7243285564145 20.1647517439275 21.6456960614517
vertex 85.6172389977294 20.3875748778083 35.0327610022706
vertex 72.4772513066626 20.3875748778084 21.8927733112035
endloop
endfacet
facet normal -0.299120586300996 -0.906120162948549 0.299120586300983
outer loop
vertex 85.6172389977294 20.3875748778083 35.0327610022706
vertex 72.7243285564145 20.1647517439275 21.6456960614517
vertex 85.8643162474813 20.1647517439274 34.7856837525188
endloop
endfacet
facet normal -0.299120586300996 -0.906120162948549 0.299120586300983
outer loop
vertex 72.4772513066626 20.3875748778084 21.8927733112035
vertex 85.33780123733 20.5123689474122 35.31219876267
vertex 72.1978135462632 20.5123689474123 22.1722110716029
endloop
endfacet
facet normal -0.123096800222625 -0.98473060049432 0.123096800222615
outer loop
vertex 85.33780123733 20.5123689474122 35.31219876267
vertex 72.4772513066626 20.3875748778084 21.8927733112035
vertex 85.6172389977294 20.3875748778083 35.0327610022706
endloop
endfacet
facet normal -0.123096800222626 -0.98473060049432 0.123096800222616
outer loop
vertex 72.1978135462632 20.5123689474123 22.1722110716029
vertex 85.0450461878615 20.5306294431276 35.6049538121385
vertex 71.9050584967947 20.5306294431276 22.4649661210714
endloop
endfacet
facet normal 0.0613158293638361 -0.996233274960664 -0.0613158293638423
outer loop
vertex 85.0450461878615 20.5306294431276 35.6049538121385
vertex 72.1978135462632 20.5123689474123 22.1722110716029
vertex 85.33780123733 20.5123689474122 35.31219876267
endloop
endfacet
facet normal 0.0613158293638356 -0.996233274960664 -0.0613158293638418
outer loop
vertex 71.9050584967947 20.5306294431276 22.4649661210714
vertex 84.7589246221446 20.4411119423482 35.8910753778555
vertex 71.6189369310778 20.4411119423483 22.7510876867883
endloop
endfacet
facet normal 0.241549886508349 -0.939844298091767 -0.241549886508351
outer loop
vertex 84.7589246221446 20.4411119423482 35.8910753778555
vertex 71.9050584967947 20.5306294431276 22.4649661210714
vertex 85.0450461878615 20.5306294431276 35.6049538121385
endloop
endfacet
facet normal 0.25881904510252 0.965925826289069 1.90367296793359e-16
outer loop
vertex 5.68895927317825 11.1313118544247 21.43125
vertex 5.30608450727852 11.2899037751508 5.63993296509579e-15
vertex 5.3060845072785 11.2899037751508 21.43125
endloop
endfacet
facet normal 0.499999999999999 0.866025403784439 3.67761376907082e-16
outer loop
vertex 5.30608450727852 11.2899037751508 5.63993296509579e-15
vertex 5.68895927317825 11.1313118544247 21.43125
vertex 5.68895927317826 11.1313118544247 5.63993296509579e-15
endloop
endfacet
facet normal 0.499999999999999 0.866025403784439 3.67761376907082e-16
outer loop
vertex 5.3060845072785 11.2899037751508 21.43125
vertex 4.97730249214487 11.542187088525 5.63993296509579e-15
vertex 4.97730249214486 11.542187088525 21.43125
endloop
endfacet
facet normal 0.707106781186548 0.707106781186548 5.20093126939001e-16
outer loop
vertex 4.97730249214487 11.542187088525 5.63993296509579e-15
vertex 5.3060845072785 11.2899037751508 21.43125
vertex 5.30608450727852 11.2899037751508 5.63993296509579e-15
endloop
endfacet
facet normal 0.707106781186548 0.707106781186548 5.20093126939001e-16
outer loop
vertex 4.97730249214487 11.542187088525 5.63993296509579e-15
vertex 4.7250191787707 11.8709691036586 21.43125
vertex 4.97730249214486 11.542187088525 21.43125
endloop
endfacet
facet normal 0.866025403784439 0.499999999999999 6.36981389864556e-16
outer loop
vertex 4.7250191787707 11.8709691036586 21.43125
vertex 4.97730249214487 11.542187088525 5.63993296509579e-15
vertex 4.72501917877072 11.8709691036586 5.63993296509579e-15
endloop
endfacet
facet normal 0.866025403784439 0.499999999999999 6.36981389864556e-16
outer loop
vertex 4.72501917877072 11.8709691036586 5.63993296509579e-15
vertex 4.56642725804461 12.2538438695583 21.43125
vertex 4.7250191787707 11.8709691036586 21.43125
endloop
endfacet
facet normal 0.965925826289069 0.25881904510252 7.1046042373236e-16
outer loop
vertex 4.56642725804461 12.2538438695583 21.43125
vertex 4.72501917877072 11.8709691036586 5.63993296509579e-15
vertex 4.56642725804462 12.2538438695583 5.63993296509579e-15
endloop
endfacet
facet normal 0.965925826289069 0.25881904510252 7.1046042373236e-16
outer loop
vertex 4.56642725804462 12.2538438695583 5.63993296509579e-15
vertex 4.5123345072785 12.6647191036586 21.43125
vertex 4.56642725804461 12.2538438695583 21.43125
endloop
endfacet
facet normal 1.0 2.40599967182466e-16 7.35522753814166e-16
outer loop
vertex 4.5123345072785 12.6647191036586 21.43125
vertex 4.56642725804462 12.2538438695583 5.63993296509579e-15
vertex 4.51233450727852 12.6647191036586 5.63993296509579e-15
endloop
endfacet
facet normal 1.0 2.40599967182466e-16 7.35522753814166e-16
outer loop
vertex 4.51233450727852 12.6647191036586 5.63993296509579e-15
vertex 4.56642725804461 13.0755943377589 21.43125
vertex 4.5123345072785 12.6647191036586 21.43125
endloop
endfacet
facet normal 0.965925826289069 -0.258819045102519 7.1046042373236e-16
outer loop
vertex 4.56642725804461 13.0755943377589 21.43125
vertex 4.51233450727852 12.6647191036586 5.63993296509579e-15
vertex 4.56642725804462 13.0755943377589 5.63993296509579e-15
endloop
endfacet
facet normal 0.965925826289069 -0.258819045102519 7.1046042373236e-16
outer loop
vertex 4.56642725804462 13.0755943377589 5.63993296509579e-15
vertex 4.7250191787707 13.4584691036586 21.43125
vertex 4.56642725804461 13.0755943377589 21.43125
endloop
endfacet
facet normal 0.866025403784439 -0.5 6.36981389864556e-16
outer loop
vertex 4.7250191787707 13.4584691036586 21.43125
vertex 4.56642725804462 13.0755943377589 5.63993296509579e-15
vertex 4.72501917877072 13.4584691036586 5.63993296509579e-15
endloop
endfacet
facet normal 0.866025403784439 -0.5 6.36981389864556e-16
outer loop
vertex 4.72501917877072 13.4584691036586 5.63993296509579e-15
vertex 4.97730249214486 13.7872511187922 21.43125
vertex 4.7250191787707 13.4584691036586 21.43125
endloop
endfacet
facet normal 0.707106781186546 -0.707106781186549 5.20093126938999e-16
outer loop
vertex 4.97730249214486 13.7872511187922 21.43125
vertex 4.72501917877072 13.4584691036586 5.63993296509579e-15
vertex 4.97730249214487 13.7872511187922 5.63993296509579e-15
endloop
endfacet
facet normal 0.499999999999998 -0.86602540378444 3.67761376907081e-16
outer loop
vertex 5.30608450727852 14.0395344321664 5.63993296509579e-15
vertex 4.97730249214486 13.7872511187922 21.43125
vertex 4.97730249214487 13.7872511187922 5.63993296509579e-15
endloop
endfacet
facet normal 0.707106781186546 -0.707106781186549 5.20093126938999e-16
outer loop
vertex 4.97730249214486 13.7872511187922 21.43125
vertex 5.30608450727852 14.0395344321664 5.63993296509579e-15
vertex 5.3060845072785 14.0395344321664 21.43125
endloop
endfacet
facet normal 0.258819045102523 -0.965925826289068 1.9036729679336e-16
outer loop
vertex 5.68895927317827 14.1981263528925 5.63993296509579e-15
vertex 5.3060845072785 14.0395344321664 21.43125
vertex 5.30608450727852 14.0395344321664 5.63993296509579e-15
endloop
endfacet
facet normal 0.499999999999998 -0.86602540378444 3.67761376907081e-16
outer loop
vertex 5.3060845072785 14.0395344321664 21.43125
vertex 5.68895927317827 14.1981263528925 5.63993296509579e-15
vertex 5.68895927317825 14.1981263528925 21.43125
endloop
endfacet
facet normal 4.27733274991052e-16 -1.0 3.14607556319371e-31
outer loop
vertex 6.09983450727852 14.2522191036586 5.63993296509579e-15
vertex 5.68895927317825 14.1981263528925 21.43125
vertex 5.68895927317827 14.1981263528925 5.63993296509579e-15
endloop
endfacet
facet normal 0.258819045102523 -0.965925826289068 1.9036729679336e-16
outer loop
vertex 5.68895927317825 14.1981263528925 21.43125
vertex 6.09983450727852 14.2522191036586 5.63993296509579e-15
vertex 6.0998345072785 14.2522191036586 21.43125
endloop
endfacet
facet normal -0.258819045102523 -0.965925826289068 -1.90367296793361e-16
outer loop
vertex 6.51070974137877 14.1981263528925 5.63993296509579e-15
vertex 6.0998345072785 14.2522191036586 21.43125
vertex 6.09983450727852 14.2522191036586 5.63993296509579e-15
endloop
endfacet
facet normal 4.27733274991052e-16 -1.0 3.14607556319371e-31
outer loop
vertex 6.0998345072785 14.2522191036586 21.43125
vertex 6.51070974137877 14.1981263528925 5.63993296509579e-15
vertex 6.51070974137876 14.1981263528925 21.43125
endloop
endfacet
facet normal -0.499999999999999 -0.866025403784439 -3.67761376907082e-16
outer loop
vertex 6.89358450727852 14.0395344321664 5.63993296509579e-15
vertex 6.51070974137876 14.1981263528925 21.43125
vertex 6.51070974137877 14.1981263528925 5.63993296509579e-15
endloop
endfacet
facet normal -0.258819045102523 -0.965925826289068 -1.90367296793361e-16
outer loop
vertex 6.51070974137876 14.1981263528925 21.43125
vertex 6.89358450727852 14.0395344321664 5.63993296509579e-15
vertex 6.8935845072785 14.0395344321664 21.43125
endloop
endfacet
facet normal -0.707106781186546 -0.707106781186549 -5.20093126938999e-16
outer loop
vertex 7.22236652241216 13.7872511187922 5.63993296509579e-15
vertex 6.8935845072785 14.0395344321664 21.43125
vertex 6.89358450727852 14.0395344321664 5.63993296509579e-15
endloop
endfacet
facet normal -0.499999999999999 -0.866025403784439 -3.67761376907082e-16
outer loop
vertex 6.8935845072785 14.0395344321664 21.43125
vertex 7.22236652241216 13.7872511187922 5.63993296509579e-15
vertex 7.22236652241215 13.7872511187922 21.43125
endloop
endfacet
facet normal -0.707106781186546 -0.707106781186549 -5.20093126938999e-16
outer loop
vertex 7.22236652241216 13.7872511187922 5.63993296509579e-15
vertex 7.4746498357863 13.4584691036586 21.43125
vertex 7.22236652241215 13.7872511187922 21.43125
endloop
endfacet
facet normal -0.866025403784439 -0.5 -6.36981389864556e-16
outer loop
vertex 7.4746498357863 13.4584691036586 21.43125
vertex 7.22236652241216 13.7872511187922 5.63993296509579e-15
vertex 7.47464983578632 13.4584691036586 5.63993296509579e-15
endloop
endfacet
facet normal -0.866025403784439 -0.5 -6.36981389864556e-16
outer loop
vertex 7.47464983578632 13.4584691036586 5.63993296509579e-15
vertex 7.6332417565124 13.0755943377589 21.43125
vertex 7.4746498357863 13.4584691036586 21.43125
endloop
endfacet
facet normal -0.965925826289069 -0.258819045102519 -7.1046042373236e-16
outer loop
vertex 7.6332417565124 13.0755943377589 21.43125
vertex 7.47464983578632 13.4584691036586 5.63993296509579e-15
vertex 7.63324175651241 13.0755943377589 5.63993296509579e-15
endloop
endfacet
facet normal -0.965925826289069 -0.258819045102519 -7.1046042373236e-16
outer loop
vertex 7.63324175651241 13.0755943377589 5.63993296509579e-15
vertex 7.6873345072785 12.6647191036586 21.43125
vertex 7.6332417565124 13.0755943377589 21.43125
endloop
endfacet
facet normal -1.0 2.40599967182466e-16 -7.35522753814166e-16
outer loop
vertex 7.6873345072785 12.6647191036586 21.43125
vertex 7.63324175651241 13.0755943377589 5.63993296509579e-15
vertex 7.68733450727852 12.6647191036586 5.63993296509579e-15
endloop
endfacet
facet normal -1.0 2.40599967182466e-16 -7.35522753814166e-16
outer loop
vertex 7.68733450727852 12.6647191036586 5.63993296509579e-15
vertex 7.6332417565124 12.2538438695583 21.43125
vertex 7.6873345072785 12.6647191036586 21.43125
endloop
endfacet
facet normal -0.965925826289068 0.258819045102523 -7.10460423732359e-16
outer loop
vertex 7.6332417565124 12.2538438695583 21.43125
vertex 7.68733450727852 12.6647191036586 5.63993296509579e-15
vertex 7.63324175651241 12.2538438695583 5.63993296509579e-15
endloop
endfacet
facet normal -0.965925826289068 0.258819045102523 -7.10460423732359e-16
outer loop
vertex 7.63324175651241 12.2538438695583 5.63993296509579e-15
vertex 7.4746498357863 11.8709691036586 21.43125
vertex 7.6332417565124 12.2538438695583 21.43125
endloop
endfacet
facet normal -0.866025403784439 0.499999999999999 -6.36981389864556e-16
outer loop
vertex 7.4746498357863 11.8709691036586 21.43125
vertex 7.63324175651241 12.2538438695583 5.63993296509579e-15
vertex 7.47464983578631 11.8709691036586 5.63993296509579e-15
endloop
endfacet
facet normal -0.866025403784439 0.499999999999999 -6.36981389864556e-16
outer loop
vertex 7.47464983578631 11.8709691036586 5.63993296509579e-15
vertex 7.22236652241215 11.542187088525 21.43125
vertex 7.4746498357863 11.8709691036586 21.43125
endloop
endfacet
facet normal -0.707106781186549 0.707106781186546 -5.20093126939002e-16
outer loop
vertex 7.22236652241215 11.542187088525 21.43125
vertex 7.47464983578631 11.8709691036586 5.63993296509579e-15
vertex 7.22236652241216 11.542187088525 5.63993296509579e-15
endloop
endfacet
facet normal -0.707106781186549 0.707106781186546 -5.20093126939002e-16
outer loop
vertex 7.22236652241215 11.542187088525 21.43125
vertex 6.89358450727852 11.2899037751508 5.63993296509579e-15
vertex 6.8935845072785 11.2899037751508 21.43125
endloop
endfacet
facet normal -0.499999999999998 0.86602540378444 -3.67761376907081e-16
outer loop
vertex 6.89358450727852 11.2899037751508 5.63993296509579e-15
vertex 7.22236652241215 11.542187088525 21.43125
vertex 7.22236652241216 11.542187088525 5.63993296509579e-15
endloop
endfacet
facet normal -0.499999999999998 0.86602540378444 -3.67761376907081e-16
outer loop
vertex 6.8935845072785 11.2899037751508 21.43125
vertex 6.51070974137877 11.1313118544247 5.63993296509579e-15
vertex 6.51070974137875 11.1313118544247 21.43125
endloop
endfacet
facet normal -0.258819045102519 0.965925826289069 -1.90367296793358e-16
outer loop
vertex 6.51070974137877 11.1313118544247 5.63993296509579e-15
vertex 6.8935845072785 11.2899037751508 21.43125
vertex 6.89358450727852 11.2899037751508 5.63993296509579e-15
endloop
endfacet
facet normal -0.258819045102519 0.965925826289069 -1.90367296793358e-16
outer loop
vertex 6.51070974137875 11.1313118544247 21.43125
vertex 6.09983450727852 11.0772191036586 5.63993296509579e-15
vertex 6.0998345072785 11.0772191036586 21.43125
endloop
endfacet
facet normal -4.27733274991051e-16 1.0 -3.1460755631937e-31
outer loop
vertex 6.09983450727852 11.0772191036586 5.63993296509579e-15
vertex 6.51070974137875 11.1313118544247 21.43125
vertex 6.51070974137877 11.1313118544247 5.63993296509579e-15
endloop
endfacet
facet normal -4.27733274991051e-16 1.0 -3.1460755631937e-31
outer loop
vertex 6.0998345072785 11.0772191036586 21.43125
vertex 5.68895927317826 11.1313118544247 5.63993296509579e-15
vertex 5.68895927317825 11.1313118544247 21.43125
endloop
endfacet
facet normal 0.25881904510252 0.965925826289069 1.90367296793359e-16
outer loop
vertex 5.68895927317826 11.1313118544247 5.63993296509579e-15
vertex 6.0998345072785 11.0772191036586 21.43125
vertex 6.09983450727852 11.0772191036586 5.63993296509579e-15
endloop
endfacet
facet normal 1.0 0.0 7.35522753814166e-16
outer loop
vertex 95.25 0.0 12.7000000000001
vertex 95.25 25.4 25.4000000000001
vertex 95.25 0.0 25.4000000000001
endloop
endfacet
facet normal 1.0 0.0 7.35522753814166e-16
outer loop
vertex 95.25 25.4 25.4000000000001
vertex 95.25 0.0 12.7000000000001
vertex 95.25 25.4 12.7000000000001
endloop
endfacet
endsolid railguide
